<svg width="32" height="32" viewBox="0 0 32 32" fill="none" xmlns="http://www.w3.org/2000/svg">
<path d="M28 21.3329V10.6662C27.9995 10.1986 27.8761 9.73929 27.6421 9.33443C27.408 8.92956 27.0717 8.59336 26.6667 8.35954L17.3333 3.02621C16.9279 2.79216 16.4681 2.66895 16 2.66895C15.5319 2.66895 15.0721 2.79216 14.6667 3.02621L5.33333 8.35954C4.92835 8.59336 4.59197 8.92956 4.35795 9.33443C4.12392 9.73929 4.00048 10.1986 4 10.6662V21.3329C4.00048 21.8005 4.12392 22.2598 4.35795 22.6647C4.59197 23.0695 4.92835 23.4057 5.33333 23.6395L14.6667 28.9729C15.0721 29.2069 15.5319 29.3301 16 29.3301C16.4681 29.3301 16.9279 29.2069 17.3333 28.9729L26.6667 23.6395C27.0717 23.4057 27.408 23.0695 27.6421 22.6647C27.8761 22.2598 27.9995 21.8005 28 21.3329Z" stroke="#CD005F" stroke-width="3" stroke-linecap="round" stroke-linejoin="round"/>
<path d="M10 5.61328L16 9.07995L22 5.61328" stroke="#CD005F" stroke-width="3" stroke-linecap="round" stroke-linejoin="round"/>
<path d="M10 26.3867V19.4667L4 16" stroke="#CD005F" stroke-width="3" stroke-linecap="round" stroke-linejoin="round"/>
<path d="M28 16L22 19.4667V26.3867" stroke="#CD005F" stroke-width="3" stroke-linecap="round" stroke-linejoin="round"/>
<path d="M4.35999 9.28027L16 16.0136L27.64 9.28027" stroke="#CD005F" stroke-width="3" stroke-linecap="round" stroke-linejoin="round"/>
<path d="M16 29.44V16" stroke="#CD005F" stroke-width="3" stroke-linecap="round" stroke-linejoin="round"/>
</svg>
