<svg width="32" height="32" viewBox="0 0 32 32" fill="none" xmlns="http://www.w3.org/2000/svg">
<path d="M16 29.3337C23.3638 29.3337 29.3333 23.3641 29.3333 16.0003C29.3333 8.63653 23.3638 2.66699 16 2.66699C8.63619 2.66699 2.66666 8.63653 2.66666 16.0003C2.66666 23.3641 8.63619 29.3337 16 29.3337Z" stroke="#262626" stroke-width="2" stroke-linecap="round" stroke-linejoin="round"/>
<path d="M12.12 11.9998C12.4335 11.1087 13.0522 10.3573 13.8666 9.87863C14.681 9.39999 15.6385 9.22503 16.5696 9.38473C17.5006 9.54443 18.3451 10.0285 18.9534 10.7512C19.5618 11.4738 19.8947 12.3885 19.8933 13.3331C19.8933 15.9998 15.8933 17.3331 15.8933 17.3331" stroke="#262626" stroke-width="2" stroke-linecap="round" stroke-linejoin="round"/>
<path d="M16 22.667H16.0133" stroke="#262626" stroke-width="2" stroke-linecap="round" stroke-linejoin="round"/>
</svg>
