<svg width="326" height="416" viewBox="0 0 326 416" fill="none" xmlns="http://www.w3.org/2000/svg">
<rect width="325.578" height="554.647" rx="16" fill="#F9F0F0"/>
<path d="M299.176 213.37C299.176 230.394 282.867 253.999 261.694 253.999C233.225 253.999 218.919 227.71 218.919 203.928C218.919 180.146 247.245 169.164 267.274 169.164C285.442 169.164 299.176 189.588 299.176 213.37Z" fill="#E46267"/>
<path d="M61.6336 216.138V215.228H67.9123V216.138L65.8712 216.382C65.8564 217.328 65.8416 218.282 65.8268 219.244C65.8268 220.19 65.8268 221.144 65.8268 222.106V223.636C65.8268 224.42 65.8268 225.271 65.8268 226.188C65.8416 227.09 65.8564 228.014 65.8712 228.961H70.9073L71.5507 225.899H72.9041L72.6822 230.07H61.6336V229.161L63.6748 228.917C63.7043 227.955 63.7191 227.001 63.7191 226.055C63.7191 225.108 63.7191 224.161 63.7191 223.215V222.106C63.7191 221.144 63.7191 220.183 63.7191 219.221C63.7191 218.26 63.7043 217.313 63.6748 216.382L61.6336 216.138ZM79.8417 220.264C79.4275 220.264 79.006 220.382 78.5771 220.619C78.1629 220.856 77.8006 221.233 77.49 221.751C77.1942 222.268 77.0019 222.956 76.9131 223.814H80.951C81.4834 223.814 81.831 223.703 81.9937 223.481C82.1712 223.259 82.2599 222.986 82.2599 222.66C82.2599 222.231 82.149 221.839 81.9271 221.484C81.7201 221.115 81.4317 220.819 81.0619 220.597C80.7069 220.375 80.3002 220.264 79.8417 220.264ZM79.8195 230.359C78.3256 230.359 77.1276 229.878 76.2254 228.917C75.3231 227.94 74.872 226.602 74.872 224.901C74.872 223.762 75.1013 222.771 75.5598 221.928C76.0331 221.085 76.6543 220.427 77.4234 219.954C78.2073 219.48 79.0578 219.244 79.9748 219.244C80.7439 219.244 81.4391 219.414 82.0603 219.754C82.6815 220.094 83.177 220.582 83.5467 221.218C83.9165 221.839 84.1014 222.601 84.1014 223.503C84.1014 223.755 84.0866 223.991 84.057 224.213C84.0274 224.42 83.9904 224.598 83.9461 224.746H76.8688C76.8983 226.106 77.2385 227.142 77.8893 227.852C78.5401 228.562 79.398 228.917 80.4629 228.917C81.1728 228.917 81.7644 228.776 82.2377 228.495C82.711 228.199 83.1474 227.822 83.5467 227.364L84.0792 227.785C83.665 228.569 83.103 229.198 82.393 229.671C81.6831 230.129 80.8252 230.359 79.8195 230.359ZM89.7314 230.359C88.9623 230.359 88.3485 230.152 87.8899 229.738C87.4314 229.323 87.2022 228.687 87.2022 227.83C87.2022 227.549 87.2022 227.275 87.2022 227.009C87.217 226.728 87.2244 226.373 87.2244 225.944V220.708H85.3829V219.732L87.3575 219.488L87.9343 216.515H89.2655L89.1324 219.532H92.1275V220.708H89.1102V227.585C89.1102 228.148 89.2211 228.562 89.443 228.828C89.6648 229.079 89.9606 229.205 90.3304 229.205C90.5818 229.205 90.8185 229.153 91.0403 229.05C91.277 228.946 91.5358 228.798 91.8168 228.606L92.3493 229.183C91.7429 229.967 90.8703 230.359 89.7314 230.359ZM96.8352 230.359C96.214 230.359 95.6446 230.285 95.1269 230.137C94.6092 230.004 94.0767 229.797 93.5295 229.516L93.4408 227.075H94.661L95.0825 229.005C95.6002 229.242 96.1992 229.36 96.8796 229.36C97.7226 229.36 98.3438 229.205 98.7432 228.894C99.1573 228.584 99.3644 228.177 99.3644 227.674C99.3644 227.201 99.1943 226.824 98.8541 226.543C98.5139 226.247 97.9963 225.981 97.3011 225.744L96.2805 225.367C95.4671 225.071 94.8163 224.687 94.3282 224.213C93.8401 223.74 93.5961 223.126 93.5961 222.372C93.5961 221.825 93.744 221.314 94.0398 220.841C94.3356 220.368 94.7719 219.983 95.3487 219.687C95.9256 219.392 96.6281 219.244 97.4564 219.244C98.0628 219.244 98.6101 219.325 99.0982 219.488C99.601 219.636 100.089 219.857 100.562 220.153L100.474 222.416H99.32L98.965 220.641C98.4622 220.39 97.9519 220.264 97.4342 220.264C96.7538 220.264 96.2362 220.405 95.8812 220.686C95.541 220.952 95.3709 221.314 95.3709 221.773C95.3709 222.261 95.5188 222.631 95.8146 222.882C96.1252 223.134 96.6577 223.4 97.412 223.681L98.0998 223.925C99.2091 224.339 99.993 224.812 100.451 225.345C100.925 225.877 101.161 226.491 101.161 227.186C101.161 227.748 100.999 228.273 100.673 228.761C100.348 229.235 99.8673 229.619 99.2313 229.915C98.5953 230.211 97.7966 230.359 96.8352 230.359ZM111.633 230.359C111.012 230.359 110.442 230.285 109.925 230.137C109.407 230.004 108.875 229.797 108.327 229.516L108.239 227.075H109.459L109.88 229.005C110.398 229.242 110.997 229.36 111.677 229.36C112.52 229.36 113.142 229.205 113.541 228.894C113.955 228.584 114.162 228.177 114.162 227.674C114.162 227.201 113.992 226.824 113.652 226.543C113.312 226.247 112.794 225.981 112.099 225.744L111.078 225.367C110.265 225.071 109.614 224.687 109.126 224.213C108.638 223.74 108.394 223.126 108.394 222.372C108.394 221.825 108.542 221.314 108.838 220.841C109.133 220.368 109.57 219.983 110.147 219.687C110.723 219.392 111.426 219.244 112.254 219.244C112.861 219.244 113.408 219.325 113.896 219.488C114.399 219.636 114.887 219.857 115.36 220.153L115.271 222.416H114.118L113.763 220.641C113.26 220.39 112.75 220.264 112.232 220.264C111.552 220.264 111.034 220.405 110.679 220.686C110.339 220.952 110.169 221.314 110.169 221.773C110.169 222.261 110.317 222.631 110.612 222.882C110.923 223.134 111.456 223.4 112.21 223.681L112.898 223.925C114.007 224.339 114.791 224.812 115.249 225.345C115.723 225.877 115.959 226.491 115.959 227.186C115.959 227.748 115.797 228.273 115.471 228.761C115.146 229.235 114.665 229.619 114.029 229.915C113.393 230.211 112.594 230.359 111.633 230.359ZM122.783 220.264C122.369 220.264 121.948 220.382 121.519 220.619C121.105 220.856 120.742 221.233 120.432 221.751C120.136 222.268 119.944 222.956 119.855 223.814H123.893C124.425 223.814 124.773 223.703 124.936 223.481C125.113 223.259 125.202 222.986 125.202 222.66C125.202 222.231 125.091 221.839 124.869 221.484C124.662 221.115 124.373 220.819 124.004 220.597C123.649 220.375 123.242 220.264 122.783 220.264ZM122.761 230.359C121.267 230.359 120.069 229.878 119.167 228.917C118.265 227.94 117.814 226.602 117.814 224.901C117.814 223.762 118.043 222.771 118.502 221.928C118.975 221.085 119.596 220.427 120.365 219.954C121.149 219.48 122 219.244 122.917 219.244C123.686 219.244 124.381 219.414 125.002 219.754C125.623 220.094 126.119 220.582 126.489 221.218C126.858 221.839 127.043 222.601 127.043 223.503C127.043 223.755 127.028 223.991 126.999 224.213C126.969 224.42 126.932 224.598 126.888 224.746H119.811C119.84 226.106 120.18 227.142 120.831 227.852C121.482 228.562 122.34 228.917 123.405 228.917C124.115 228.917 124.706 228.776 125.18 228.495C125.653 228.199 126.089 227.822 126.489 227.364L127.021 227.785C126.607 228.569 126.045 229.198 125.335 229.671C124.625 230.129 123.767 230.359 122.761 230.359ZM134.093 220.264C133.679 220.264 133.257 220.382 132.828 220.619C132.414 220.856 132.052 221.233 131.741 221.751C131.446 222.268 131.253 222.956 131.165 223.814H135.202C135.735 223.814 136.082 223.703 136.245 223.481C136.423 223.259 136.511 222.986 136.511 222.66C136.511 222.231 136.4 221.839 136.179 221.484C135.971 221.115 135.683 220.819 135.313 220.597C134.958 220.375 134.552 220.264 134.093 220.264ZM134.071 230.359C132.577 230.359 131.379 229.878 130.477 228.917C129.575 227.94 129.123 226.602 129.123 224.901C129.123 223.762 129.353 222.771 129.811 221.928C130.285 221.085 130.906 220.427 131.675 219.954C132.459 219.48 133.309 219.244 134.226 219.244C134.995 219.244 135.69 219.414 136.312 219.754C136.933 220.094 137.428 220.582 137.798 221.218C138.168 221.839 138.353 222.601 138.353 223.503C138.353 223.755 138.338 223.991 138.308 224.213C138.279 224.42 138.242 224.598 138.197 224.746H131.12C131.15 226.106 131.49 227.142 132.141 227.852C132.792 228.562 133.649 228.917 134.714 228.917C135.424 228.917 136.016 228.776 136.489 228.495C136.962 228.199 137.399 227.822 137.798 227.364L138.331 227.785C137.916 228.569 137.354 229.198 136.644 229.671C135.935 230.129 135.077 230.359 134.071 230.359ZM151.646 220.331V219.532H155.972V220.331L154.774 220.575L151.202 230.004C150.463 231.971 149.745 233.391 149.05 234.263C148.37 235.151 147.571 235.595 146.654 235.595C146.107 235.595 145.626 235.454 145.212 235.173C144.813 234.907 144.613 234.559 144.613 234.13C144.687 233.805 144.864 233.561 145.145 233.398C145.441 233.235 145.759 233.154 146.099 233.154C146.395 233.154 146.669 233.213 146.92 233.332C147.172 233.465 147.445 233.687 147.741 233.997L147.852 234.108C148.325 233.709 148.725 233.221 149.05 232.644C149.375 232.082 149.642 231.505 149.849 230.913L149.937 230.647L145.922 220.508L144.702 220.331V219.532H150.026V220.353L148.074 220.575L150.847 228.14L153.576 220.597L151.646 220.331ZM161.611 230.359C160.754 230.359 159.933 230.159 159.149 229.76C158.38 229.346 157.751 228.732 157.263 227.918C156.775 227.09 156.531 226.069 156.531 224.857C156.531 223.629 156.775 222.601 157.263 221.773C157.751 220.93 158.38 220.301 159.149 219.887C159.933 219.458 160.754 219.244 161.611 219.244C162.469 219.244 163.283 219.458 164.052 219.887C164.836 220.301 165.472 220.93 165.96 221.773C166.463 222.601 166.714 223.629 166.714 224.857C166.714 226.069 166.463 227.09 165.96 227.918C165.472 228.732 164.836 229.346 164.052 229.76C163.283 230.159 162.469 230.359 161.611 230.359ZM161.611 229.36C162.573 229.36 163.312 228.983 163.83 228.229C164.348 227.46 164.606 226.336 164.606 224.857C164.606 223.363 164.348 222.224 163.83 221.44C163.312 220.656 162.573 220.264 161.611 220.264C160.65 220.264 159.91 220.656 159.393 221.44C158.89 222.224 158.638 223.363 158.638 224.857C158.638 226.336 158.89 227.46 159.393 228.229C159.91 228.983 160.65 229.36 161.611 229.36ZM172.439 230.359C171.537 230.359 170.827 230.063 170.31 229.471C169.792 228.865 169.541 227.83 169.555 226.365L169.622 220.841L168.047 220.508V219.71L171.308 219.399L171.53 219.621L171.419 222.727V226.166C171.419 227.127 171.567 227.807 171.863 228.207C172.158 228.591 172.602 228.784 173.194 228.784C174.229 228.784 175.264 228.303 176.3 227.341L176.366 220.819L174.791 220.508V219.71L178.008 219.399L178.23 219.621L178.163 222.727V228.961L179.672 229.272V230.07L176.588 230.248L176.366 228.273C175.775 228.998 175.139 229.53 174.458 229.871C173.793 230.196 173.12 230.359 172.439 230.359ZM181.358 230.07V229.272L182.956 228.983C182.971 228.421 182.978 227.815 182.978 227.164C182.993 226.498 183 225.914 183 225.411V224.346C183 223.74 182.993 223.237 182.978 222.838C182.978 222.438 182.963 222.017 182.934 221.573L181.181 221.373V220.597L184.287 219.244L184.62 219.465L184.864 222.083C185.234 221.196 185.707 220.501 186.284 219.998C186.875 219.495 187.467 219.244 188.059 219.244C188.399 219.244 188.717 219.318 189.013 219.465C189.308 219.613 189.523 219.813 189.656 220.064C189.656 221.144 189.22 221.684 188.347 221.684C188.095 221.684 187.859 221.64 187.637 221.551C187.415 221.447 187.201 221.307 186.994 221.129L186.727 220.885C186.284 221.211 185.914 221.61 185.618 222.083C185.322 222.557 185.078 223.111 184.886 223.747V225.411C184.886 225.899 184.886 226.469 184.886 227.12C184.901 227.77 184.916 228.377 184.93 228.939L186.75 229.272V230.07H181.358ZM195.763 235.373V234.596L197.537 234.286C197.552 233.679 197.56 233.073 197.56 232.466C197.574 231.875 197.582 231.283 197.582 230.692V224.346C197.582 223.74 197.574 223.237 197.56 222.838C197.56 222.438 197.545 222.017 197.515 221.573L195.763 221.373V220.597L198.869 219.244L199.201 219.465L199.334 220.908C200.385 219.798 201.501 219.244 202.685 219.244C203.483 219.244 204.201 219.465 204.837 219.909C205.473 220.353 205.975 220.989 206.345 221.817C206.73 222.631 206.922 223.614 206.922 224.768C206.922 225.907 206.722 226.898 206.323 227.741C205.924 228.569 205.376 229.212 204.681 229.671C204.001 230.129 203.224 230.359 202.352 230.359C201.849 230.359 201.346 230.255 200.843 230.048C200.355 229.841 199.874 229.464 199.401 228.917V230.669C199.401 231.261 199.401 231.853 199.401 232.444C199.416 233.051 199.431 233.657 199.445 234.263L201.464 234.596V235.373H195.763ZM202.152 220.508C201.812 220.508 201.42 220.597 200.976 220.774C200.533 220.937 200.03 221.255 199.468 221.728V227.963C199.882 228.362 200.288 228.65 200.688 228.828C201.087 229.005 201.494 229.094 201.908 229.094C202.736 229.094 203.446 228.761 204.038 228.096C204.63 227.43 204.925 226.38 204.925 224.945C204.925 223.525 204.666 222.431 204.149 221.662C203.631 220.893 202.966 220.508 202.152 220.508ZM208.852 230.07V229.272L210.45 228.983C210.465 228.421 210.472 227.815 210.472 227.164C210.487 226.498 210.494 225.914 210.494 225.411V224.346C210.494 223.74 210.487 223.237 210.472 222.838C210.472 222.438 210.457 222.017 210.428 221.573L208.675 221.373V220.597L211.781 219.244L212.114 219.465L212.358 222.083C212.728 221.196 213.201 220.501 213.778 219.998C214.369 219.495 214.961 219.244 215.553 219.244C215.893 219.244 216.211 219.318 216.507 219.465C216.802 219.613 217.017 219.813 217.15 220.064C217.15 221.144 216.714 221.684 215.841 221.684C215.59 221.684 215.353 221.64 215.131 221.551C214.909 221.447 214.695 221.307 214.488 221.129L214.221 220.885C213.778 221.211 213.408 221.61 213.112 222.083C212.816 222.557 212.572 223.111 212.38 223.747V225.411C212.38 225.899 212.38 226.469 212.38 227.12C212.395 227.77 212.41 228.377 212.424 228.939L214.244 229.272V230.07H208.852ZM223.164 230.359C222.306 230.359 221.485 230.159 220.702 229.76C219.932 229.346 219.304 228.732 218.816 227.918C218.328 227.09 218.084 226.069 218.084 224.857C218.084 223.629 218.328 222.601 218.816 221.773C219.304 220.93 219.932 220.301 220.702 219.887C221.485 219.458 222.306 219.244 223.164 219.244C224.022 219.244 224.836 219.458 225.605 219.887C226.389 220.301 227.025 220.93 227.513 221.773C228.016 222.601 228.267 223.629 228.267 224.857C228.267 226.069 228.016 227.09 227.513 227.918C227.025 228.732 226.389 229.346 225.605 229.76C224.836 230.159 224.022 230.359 223.164 230.359ZM223.164 229.36C224.126 229.36 224.865 228.983 225.383 228.229C225.9 227.46 226.159 226.336 226.159 224.857C226.159 223.363 225.9 222.224 225.383 221.44C224.865 220.656 224.126 220.264 223.164 220.264C222.203 220.264 221.463 220.656 220.946 221.44C220.443 222.224 220.191 223.363 220.191 224.857C220.191 226.336 220.443 227.46 220.946 228.229C221.463 228.983 222.203 229.36 223.164 229.36ZM230.06 230.07V229.272L231.813 228.961C231.828 228.369 231.835 227.778 231.835 227.186C231.85 226.595 231.857 226.003 231.857 225.411V220.708H230.016V219.732L231.902 219.488C232.005 218.304 232.168 217.35 232.39 216.626C232.626 215.886 233.018 215.243 233.566 214.695C234.039 214.222 234.534 213.897 235.052 213.719C235.57 213.542 236.08 213.453 236.583 213.453C237.101 213.453 237.559 213.549 237.958 213.742C238.358 213.919 238.609 214.222 238.713 214.651C238.698 214.932 238.572 215.169 238.336 215.361C238.099 215.553 237.773 215.649 237.359 215.649C236.827 215.649 236.294 215.428 235.762 214.984L235.141 214.496C235.082 214.54 235.022 214.585 234.963 214.629C234.919 214.673 234.875 214.718 234.83 214.762C234.446 215.147 234.15 215.731 233.943 216.515C233.75 217.284 233.669 218.29 233.699 219.532H236.76V220.708H233.743V225.411C233.743 226.003 233.743 226.595 233.743 227.186C233.758 227.763 233.773 228.347 233.787 228.939L235.784 229.272V230.07H230.06ZM238.574 230.07V229.272L240.238 228.961C240.253 228.399 240.261 227.793 240.261 227.142C240.275 226.476 240.283 225.899 240.283 225.411V224.369C240.283 223.762 240.275 223.259 240.261 222.86C240.261 222.446 240.246 222.017 240.216 221.573L238.441 221.373V220.597L241.858 219.244L242.191 219.465L242.124 222.483V225.411C242.124 225.899 242.124 226.476 242.124 227.142C242.139 227.793 242.154 228.399 242.169 228.961L243.722 229.272V230.07H238.574ZM241.192 216.803C240.778 216.803 240.423 216.67 240.127 216.404C239.846 216.138 239.706 215.797 239.706 215.383C239.706 214.954 239.846 214.614 240.127 214.363C240.423 214.096 240.778 213.963 241.192 213.963C241.606 213.963 241.954 214.096 242.235 214.363C242.531 214.614 242.679 214.954 242.679 215.383C242.679 215.797 242.531 216.138 242.235 216.404C241.954 216.67 241.606 216.803 241.192 216.803ZM248.954 230.359C248.185 230.359 247.571 230.152 247.113 229.738C246.654 229.323 246.425 228.687 246.425 227.83C246.425 227.549 246.425 227.275 246.425 227.009C246.44 226.728 246.447 226.373 246.447 225.944V220.708H244.606V219.732L246.58 219.488L247.157 216.515H248.488L248.355 219.532H251.35V220.708H248.333V227.585C248.333 228.148 248.444 228.562 248.666 228.828C248.888 229.079 249.183 229.205 249.553 229.205C249.805 229.205 250.041 229.153 250.263 229.05C250.5 228.946 250.759 228.798 251.04 228.606L251.572 229.183C250.966 229.967 250.093 230.359 248.954 230.359ZM254.949 230.359C254.505 230.359 254.128 230.203 253.817 229.893C253.521 229.582 253.373 229.212 253.373 228.784C253.373 228.34 253.521 227.963 253.817 227.652C254.128 227.341 254.505 227.186 254.949 227.186C255.392 227.186 255.762 227.341 256.058 227.652C256.369 227.963 256.524 228.34 256.524 228.784C256.524 229.212 256.369 229.582 256.058 229.893C255.762 230.203 255.392 230.359 254.949 230.359ZM261.6 230.359C261.156 230.359 260.779 230.203 260.469 229.893C260.173 229.582 260.025 229.212 260.025 228.784C260.025 228.34 260.173 227.963 260.469 227.652C260.779 227.341 261.156 227.186 261.6 227.186C262.044 227.186 262.414 227.341 262.709 227.652C263.02 227.963 263.175 228.34 263.175 228.784C263.175 229.212 263.02 229.582 262.709 229.893C262.414 230.203 262.044 230.359 261.6 230.359Z" fill="#17181C"/>
<path d="M134.095 273.734V271.46C132.715 271.415 131.646 271.104 130.888 270.528C130.13 269.937 129.744 269.156 129.729 268.186C129.88 267.807 130.077 267.534 130.32 267.367C130.562 267.2 130.828 267.117 131.116 267.117C131.555 267.117 131.897 267.231 132.139 267.458C132.397 267.685 132.579 268.095 132.685 268.686L132.958 270.141C133.125 270.172 133.299 270.194 133.481 270.21C133.678 270.225 133.883 270.24 134.095 270.255V265.366L133.936 265.298C132.601 264.858 131.578 264.267 130.866 263.524C130.153 262.781 129.797 261.871 129.797 260.795C129.797 259.628 130.183 258.65 130.957 257.861C131.73 257.073 132.821 256.611 134.231 256.474V254.382H135.641V256.451C136.793 256.527 137.718 256.846 138.415 257.407C139.128 257.952 139.522 258.68 139.598 259.59C139.537 259.999 139.378 260.287 139.12 260.454C138.863 260.621 138.597 260.704 138.325 260.704C137.945 260.704 137.582 260.59 137.233 260.363C136.884 260.12 136.649 259.612 136.528 258.839L136.346 257.725C136.225 257.695 136.104 257.679 135.982 257.679C135.876 257.679 135.762 257.672 135.641 257.657V262.319H135.664C137.256 262.834 138.385 263.478 139.052 264.252C139.734 265.025 140.076 265.942 140.076 267.003C140.076 268.155 139.674 269.133 138.87 269.937C138.067 270.74 136.945 271.225 135.505 271.392V273.734H134.095ZM137.142 267.981C137.142 267.45 137.021 267.033 136.778 266.73C136.551 266.412 136.126 266.124 135.505 265.866V270.096C136.02 269.944 136.422 269.686 136.71 269.323C136.998 268.944 137.142 268.496 137.142 267.981ZM132.617 259.749C132.617 260.264 132.738 260.681 132.98 261C133.238 261.318 133.655 261.598 134.231 261.841V257.77C133.746 257.892 133.352 258.112 133.049 258.43C132.761 258.748 132.617 259.188 132.617 259.749ZM142.077 271.119V269.095C142.607 268.58 143.123 268.072 143.623 267.572C144.138 267.071 144.623 266.586 145.078 266.116C145.806 265.389 146.405 264.721 146.875 264.115C147.36 263.509 147.724 262.91 147.966 262.319C148.209 261.712 148.33 261.068 148.33 260.386C148.33 259.506 148.118 258.824 147.693 258.339C147.284 257.854 146.723 257.611 146.011 257.611C145.92 257.611 145.821 257.611 145.715 257.611C145.624 257.611 145.533 257.619 145.442 257.634L145.146 259.249C145.04 260.037 144.821 260.56 144.487 260.818C144.153 261.06 143.812 261.182 143.464 261.182C143.145 261.182 142.85 261.098 142.577 260.931C142.319 260.765 142.122 260.537 141.986 260.249C142.016 259.415 142.274 258.718 142.759 258.157C143.244 257.581 143.881 257.149 144.669 256.861C145.457 256.573 146.321 256.429 147.261 256.429C148.368 256.429 149.263 256.603 149.945 256.952C150.642 257.3 151.158 257.77 151.491 258.362C151.825 258.953 151.991 259.62 151.991 260.363C151.991 261.091 151.802 261.796 151.423 262.478C151.044 263.16 150.453 263.857 149.649 264.57C148.846 265.282 147.815 266.071 146.556 266.935C146.253 267.147 145.935 267.367 145.601 267.594C145.268 267.822 144.927 268.064 144.578 268.322H152.287V271.119H142.077ZM158.631 269.846C158.631 270.877 158.389 271.794 157.904 272.597C157.434 273.401 156.835 274.06 156.107 274.576C155.395 275.106 154.675 275.485 153.947 275.713L153.629 274.758C154.387 274.363 155.008 273.901 155.493 273.37C155.994 272.84 156.38 272.271 156.653 271.665L155.857 271.256C155.387 270.998 155.054 270.702 154.857 270.369C154.675 270.02 154.584 269.679 154.584 269.345C154.584 268.784 154.773 268.314 155.152 267.935C155.531 267.556 156.009 267.367 156.585 267.367C156.903 267.367 157.199 267.412 157.472 267.503C157.745 267.594 158.017 267.761 158.29 268.004C158.427 268.352 158.518 268.663 158.563 268.936C158.609 269.194 158.631 269.497 158.631 269.846ZM162.516 270.892L169.133 259.59H161.242V256.793H171.43V258.521L166.086 271.119H162.743L162.516 270.892ZM176.615 263.956C176.615 265.654 176.698 266.958 176.865 267.867C177.031 268.777 177.259 269.406 177.547 269.755C177.835 270.103 178.161 270.278 178.525 270.278C178.889 270.278 179.215 270.103 179.503 269.755C179.791 269.406 180.018 268.777 180.185 267.867C180.367 266.942 180.458 265.639 180.458 263.956C180.458 262.258 180.367 260.954 180.185 260.045C180.018 259.12 179.791 258.483 179.503 258.134C179.215 257.786 178.889 257.611 178.525 257.611C178.161 257.611 177.835 257.786 177.547 258.134C177.259 258.483 177.031 259.112 176.865 260.022C176.698 260.931 176.615 262.243 176.615 263.956ZM178.525 256.429C179.465 256.429 180.344 256.694 181.163 257.225C181.981 257.74 182.641 258.551 183.141 259.658C183.657 260.765 183.914 262.197 183.914 263.956C183.914 265.699 183.657 267.124 183.141 268.231C182.641 269.338 181.981 270.156 181.163 270.687C180.344 271.203 179.465 271.46 178.525 271.46C177.585 271.46 176.706 271.203 175.887 270.687C175.068 270.156 174.409 269.338 173.908 268.231C173.423 267.124 173.181 265.699 173.181 263.956C173.181 262.197 173.423 260.765 173.908 259.658C174.409 258.551 175.068 257.74 175.887 257.225C176.706 256.694 177.585 256.429 178.525 256.429ZM188.94 263.956C188.94 265.654 189.023 266.958 189.19 267.867C189.357 268.777 189.584 269.406 189.872 269.755C190.16 270.103 190.486 270.278 190.85 270.278C191.214 270.278 191.54 270.103 191.828 269.755C192.116 269.406 192.343 268.777 192.51 267.867C192.692 266.942 192.783 265.639 192.783 263.956C192.783 262.258 192.692 260.954 192.51 260.045C192.343 259.12 192.116 258.483 191.828 258.134C191.54 257.786 191.214 257.611 190.85 257.611C190.486 257.611 190.16 257.786 189.872 258.134C189.584 258.483 189.357 259.112 189.19 260.022C189.023 260.931 188.94 262.243 188.94 263.956ZM190.85 256.429C191.79 256.429 192.669 256.694 193.488 257.225C194.307 257.74 194.966 258.551 195.466 259.658C195.982 260.765 196.239 262.197 196.239 263.956C196.239 265.699 195.982 267.124 195.466 268.231C194.966 269.338 194.307 270.156 193.488 270.687C192.669 271.203 191.79 271.46 190.85 271.46C189.91 271.46 189.031 271.203 188.212 270.687C187.393 270.156 186.734 269.338 186.234 268.231C185.749 267.124 185.506 265.699 185.506 263.956C185.506 262.197 185.749 260.765 186.234 259.658C186.734 258.551 187.393 257.74 188.212 257.225C189.031 256.694 189.91 256.429 190.85 256.429Z" fill="#17181C"/>
<path d="M105.384 309.266C105.384 306.768 107.41 304.742 109.909 304.742H215.672C218.171 304.742 220.196 306.768 220.196 309.266V331.278C220.196 333.777 218.171 335.802 215.672 335.802H109.909C107.41 335.802 105.384 333.777 105.384 331.278V309.266Z" fill="#17181C"/>
<path d="M160.678 320.93L162.153 322.619L165.841 318.396" stroke="white" stroke-width="1.10929" stroke-linecap="round" stroke-linejoin="round"/>
<circle cx="162.79" cy="320.273" r="8.59703" stroke="white" stroke-width="1.10929"/>
</svg>
