<svg width="425" height="114" viewBox="0 0 425 114" fill="none" xmlns="http://www.w3.org/2000/svg">
<rect x="0.00012207" y="13.1934" width="424.426" height="100.522" rx="16" fill="white"/>
<path d="M31.2017 49.877V42.6565H33.7753C34.3347 42.6565 34.7989 42.7529 35.168 42.9456C35.5393 43.1384 35.8167 43.4051 36 43.7459C36.1833 44.0844 36.275 44.4757 36.275 44.92C36.275 45.3618 36.1822 45.7508 35.9965 46.0869C35.8131 46.4207 35.5358 46.6804 35.1644 46.8661C34.7954 47.0518 34.3312 47.1446 33.7718 47.1446H31.8222V46.2068H33.6731C34.0257 46.2068 34.3124 46.1563 34.5333 46.0552C34.7566 45.9541 34.92 45.8072 35.0234 45.6145C35.1268 45.4218 35.1785 45.1903 35.1785 44.92C35.1785 44.6473 35.1256 44.4111 35.0199 44.2113C34.9165 44.0115 34.7531 43.8588 34.5298 43.753C34.3089 43.6449 34.0186 43.5908 33.659 43.5908H32.2911V49.877H31.2017ZM34.766 46.6193L36.55 49.877H35.309L33.5603 46.6193H34.766ZM39.7821 49.9862C39.2485 49.9862 38.789 49.8723 38.4036 49.6443C38.0205 49.4139 37.7243 49.0907 37.5151 48.6747C37.3083 48.2564 37.2049 47.7663 37.2049 47.2045C37.2049 46.6499 37.3083 46.161 37.5151 45.7379C37.7243 45.3148 38.0158 44.9846 38.3895 44.7472C38.7655 44.5098 39.2051 44.3911 39.7081 44.3911C40.0136 44.3911 40.3098 44.4417 40.5965 44.5427C40.8833 44.6438 41.1406 44.8024 41.3686 45.0187C41.5966 45.2349 41.7764 45.5158 41.908 45.8613C42.0396 46.2045 42.1055 46.6216 42.1055 47.1129V47.4866H37.8007V46.6969H41.0725C41.0725 46.4195 41.016 46.1739 40.9032 45.96C40.7904 45.7438 40.6318 45.5734 40.4273 45.4488C40.2251 45.3242 39.9877 45.2619 39.7151 45.2619C39.419 45.2619 39.1604 45.3348 38.9395 45.4805C38.7209 45.6239 38.5517 45.8119 38.4318 46.0446C38.3143 46.275 38.2555 46.5253 38.2555 46.7956V47.4126C38.2555 47.7745 38.319 48.0824 38.4459 48.3363C38.5752 48.5901 38.755 48.784 38.9853 48.918C39.2156 49.0496 39.4848 49.1154 39.7927 49.1154C39.9924 49.1154 40.1746 49.0872 40.3391 49.0308C40.5037 48.972 40.6459 48.8851 40.7657 48.7699C40.8856 48.6547 40.9773 48.5125 41.0407 48.3433L42.0385 48.5231C41.9586 48.8169 41.8152 49.0743 41.6083 49.2952C41.4039 49.5138 41.1465 49.6842 40.8362 49.8064C40.5283 49.9263 40.177 49.9862 39.7821 49.9862ZM45.8029 44.4616V45.3078H42.845V44.4616H45.8029ZM43.6382 43.1642H44.6924V48.2869C44.6924 48.4914 44.7229 48.6453 44.784 48.7488C44.8451 48.8498 44.9239 48.9192 45.0203 48.9568C45.119 48.992 45.2259 49.0097 45.3411 49.0097C45.4257 49.0097 45.4997 49.0038 45.5632 48.992C45.6267 48.9803 45.676 48.9709 45.7113 48.9638L45.9017 49.8346C45.8405 49.8581 45.7536 49.8817 45.6408 49.9052C45.5279 49.931 45.3869 49.9451 45.2177 49.9475C44.9403 49.9522 44.6818 49.9028 44.4421 49.7994C44.2023 49.696 44.0084 49.5361 43.8603 49.3199C43.7123 49.1037 43.6382 48.8322 43.6382 48.5055V43.1642ZM48.545 49.9968C48.2018 49.9968 47.8916 49.9334 47.6142 49.8064C47.3369 49.6772 47.1171 49.4903 46.9549 49.2459C46.7951 49.0014 46.7152 48.7018 46.7152 48.3468C46.7152 48.0413 46.7739 47.7898 46.8915 47.5924C47.009 47.3949 47.1676 47.2386 47.3674 47.1235C47.5672 47.0083 47.7905 46.9213 48.0373 46.8626C48.2841 46.8038 48.5356 46.7591 48.7918 46.7286C49.1161 46.691 49.3794 46.6604 49.5815 46.6369C49.7836 46.6111 49.9305 46.5699 50.0222 46.5135C50.1139 46.4571 50.1597 46.3655 50.1597 46.2385V46.2139C50.1597 45.906 50.0727 45.6674 49.8988 45.4982C49.7272 45.3289 49.471 45.2443 49.1302 45.2443C48.7753 45.2443 48.4956 45.3231 48.2911 45.4805C48.089 45.6357 47.9491 45.8084 47.8716 45.9988L46.8809 45.7732C46.9984 45.4441 47.17 45.1785 47.3956 44.9764C47.6236 44.7719 47.8857 44.6238 48.1818 44.5321C48.478 44.4381 48.7894 44.3911 49.1161 44.3911C49.3324 44.3911 49.5615 44.417 49.8036 44.4687C50.0481 44.518 50.276 44.6097 50.4876 44.7437C50.7015 44.8776 50.8766 45.0692 51.0129 45.3183C51.1492 45.5651 51.2174 45.886 51.2174 46.2808V49.877H50.1879V49.1366H50.1456C50.0774 49.2729 49.9752 49.4069 49.8389 49.5385C49.7025 49.6701 49.5274 49.7794 49.3136 49.8664C49.0997 49.9533 48.8435 49.9968 48.545 49.9968ZM48.7741 49.1507C49.0656 49.1507 49.3147 49.0931 49.5216 48.9779C49.7307 48.8628 49.8894 48.7123 49.9975 48.5266C50.108 48.3386 50.1632 48.1377 50.1632 47.9238V47.2257C50.1256 47.2633 50.0528 47.2986 49.9446 47.3315C49.8389 47.362 49.7178 47.3891 49.5815 47.4126C49.4452 47.4337 49.3124 47.4537 49.1831 47.4725C49.0538 47.4889 48.9457 47.503 48.8588 47.5148C48.6543 47.5407 48.4674 47.5841 48.2982 47.6452C48.1313 47.7064 47.9973 47.7945 47.8963 47.9097C47.7975 48.0225 47.7482 48.1729 47.7482 48.3609C47.7482 48.6218 47.8446 48.8193 48.0373 48.9532C48.23 49.0849 48.4756 49.1507 48.7741 49.1507ZM52.6214 49.877V44.4616H53.6756V49.877H52.6214ZM53.1538 43.6261C52.9705 43.6261 52.813 43.565 52.6814 43.4427C52.5521 43.3182 52.4875 43.1701 52.4875 42.9985C52.4875 42.8246 52.5521 42.6765 52.6814 42.5543C52.813 42.4297 52.9705 42.3674 53.1538 42.3674C53.3371 42.3674 53.4934 42.4297 53.6227 42.5543C53.7543 42.6765 53.8202 42.8246 53.8202 42.9985C53.8202 43.1701 53.7543 43.3182 53.6227 43.4427C53.4934 43.565 53.3371 43.6261 53.1538 43.6261ZM56.1479 42.6565V49.877H55.0938V42.6565H56.1479ZM60.2782 49.877V42.6565H62.8519C63.4136 42.6565 63.879 42.7588 64.248 42.9632C64.617 43.1677 64.8932 43.4474 65.0765 43.8023C65.2599 44.1549 65.3515 44.5521 65.3515 44.994C65.3515 45.4382 65.2587 45.8378 65.073 46.1927C64.8897 46.5453 64.6123 46.825 64.241 47.0318C63.8719 47.2363 63.4077 47.3385 62.8483 47.3385H61.0785V46.4148H62.7496C63.1045 46.4148 63.3925 46.3537 63.6134 46.2315C63.8343 46.1069 63.9965 45.9377 64.0999 45.7238C64.2033 45.5099 64.2551 45.2666 64.2551 44.994C64.2551 44.7213 64.2033 44.4793 64.0999 44.2677C63.9965 44.0562 63.8332 43.8905 63.6099 43.7706C63.3889 43.6507 63.0975 43.5908 62.7355 43.5908H61.3676V49.877H60.2782ZM66.544 49.877V44.4616H67.5629V45.3219H67.6194C67.7181 45.0304 67.892 44.8013 68.1411 44.6344C68.3926 44.4652 68.677 44.3805 68.9943 44.3805C69.0602 44.3805 69.1377 44.3829 69.227 44.3876C69.3187 44.3923 69.3904 44.3982 69.4421 44.4052V45.4135C69.3998 45.4018 69.3246 45.3889 69.2165 45.3748C69.1083 45.3583 69.0002 45.3501 68.8921 45.3501C68.643 45.3501 68.4208 45.403 68.2258 45.5087C68.033 45.6121 67.8803 45.7567 67.7674 45.9424C67.6546 46.1257 67.5982 46.3349 67.5982 46.5699V49.877H66.544ZM70.3543 49.877V44.4616H71.4085V49.877H70.3543ZM70.8867 43.6261C70.7034 43.6261 70.5459 43.565 70.4143 43.4427C70.285 43.3182 70.2204 43.1701 70.2204 42.9985C70.2204 42.8246 70.285 42.6765 70.4143 42.5543C70.5459 42.4297 70.7034 42.3674 70.8867 42.3674C71.07 42.3674 71.2263 42.4297 71.3556 42.5543C71.4872 42.6765 71.553 42.8246 71.553 42.9985C71.553 43.1701 71.4872 43.3182 71.3556 43.4427C71.2263 43.565 71.07 43.6261 70.8867 43.6261ZM75.1077 49.9862C74.5836 49.9862 74.1323 49.8676 73.7539 49.6302C73.3778 49.3904 73.0887 49.0602 72.8866 48.6395C72.6845 48.2187 72.5834 47.7369 72.5834 47.194C72.5834 46.644 72.6868 46.1586 72.8937 45.7379C73.1005 45.3148 73.3919 44.9846 73.768 44.7472C74.1441 44.5098 74.5871 44.3911 75.0972 44.3911C75.5085 44.3911 75.8751 44.4675 76.1971 44.6203C76.5192 44.7707 76.7789 44.9822 76.9763 45.2549C77.1761 45.5275 77.2948 45.846 77.3324 46.2103H76.3064C76.25 45.9565 76.1208 45.7379 75.9186 45.5546C75.7188 45.3712 75.4509 45.2796 75.1148 45.2796C74.821 45.2796 74.5636 45.3571 74.3427 45.5123C74.1241 45.665 73.9537 45.8836 73.8315 46.168C73.7092 46.4501 73.6481 46.7838 73.6481 47.1693C73.6481 47.5642 73.7081 47.905 73.8279 48.1917C73.9478 48.4785 74.117 48.7006 74.3356 48.8581C74.5566 49.0155 74.8163 49.0943 75.1148 49.0943C75.3146 49.0943 75.4956 49.0578 75.6577 48.985C75.8223 48.9098 75.9598 48.8028 76.0702 48.6641C76.183 48.5255 76.2618 48.3586 76.3064 48.1635H77.3324C77.2948 48.5137 77.1808 48.8263 76.9904 49.1013C76.8 49.3763 76.545 49.5926 76.2254 49.75C75.908 49.9075 75.5355 49.9862 75.1077 49.9862ZM80.7937 49.9862C80.2601 49.9862 79.8006 49.8723 79.4151 49.6443C79.032 49.4139 78.7359 49.0907 78.5267 48.6747C78.3199 48.2564 78.2164 47.7663 78.2164 47.2045C78.2164 46.6499 78.3199 46.161 78.5267 45.7379C78.7359 45.3148 79.0273 44.9846 79.401 44.7472C79.7771 44.5098 80.2166 44.3911 80.7196 44.3911C81.0252 44.3911 81.3213 44.4417 81.6081 44.5427C81.8948 44.6438 82.1522 44.8024 82.3802 45.0187C82.6082 45.2349 82.788 45.5158 82.9196 45.8613C83.0512 46.2045 83.117 46.6216 83.117 47.1129V47.4866H78.8123V46.6969H82.084C82.084 46.4195 82.0276 46.1739 81.9148 45.96C81.802 45.7438 81.6433 45.5734 81.4388 45.4488C81.2367 45.3242 80.9993 45.2619 80.7267 45.2619C80.4305 45.2619 80.172 45.3348 79.951 45.4805C79.7324 45.6239 79.5632 45.8119 79.4433 46.0446C79.3258 46.275 79.2671 46.5253 79.2671 46.7956V47.4126C79.2671 47.7745 79.3305 48.0824 79.4574 48.3363C79.5867 48.5901 79.7665 48.784 79.9969 48.918C80.2272 49.0496 80.4963 49.1154 80.8042 49.1154C81.004 49.1154 81.1862 49.0872 81.3507 49.0308C81.5152 48.972 81.6574 48.8851 81.7773 48.7699C81.8972 48.6547 81.9888 48.5125 82.0523 48.3433L83.05 48.5231C82.9701 48.8169 82.8267 49.0743 82.6199 49.2952C82.4154 49.5138 82.1581 49.6842 81.8478 49.8064C81.5399 49.9263 81.1885 49.9862 80.7937 49.9862Z" fill="#17181C"/>
<path d="M35.3869 59.6338H389.667C392.245 59.6338 394.335 61.7237 394.335 64.3018V82.8887C394.335 85.4665 392.245 87.5566 389.667 87.5566H35.3869C32.809 87.5566 30.7191 85.4665 30.7189 82.8887V64.3018C30.7189 61.7237 32.8089 59.6338 35.3869 59.6338Z" fill="white"/>
<path d="M35.3869 59.6338H389.667C392.245 59.6338 394.335 61.7237 394.335 64.3018V82.8887C394.335 85.4665 392.245 87.5566 389.667 87.5566H35.3869C32.809 87.5566 30.7191 85.4665 30.7189 82.8887V64.3018C30.7189 61.7237 32.8089 59.6338 35.3869 59.6338Z" stroke="#E1E7ED" stroke-width="0.620506"/>
<path d="M43.3881 76.9127C43.6072 76.8928 43.7997 76.8463 43.9656 76.7733C44.1315 76.697 44.2709 76.6007 44.3838 76.4846C44.4999 76.3684 44.5862 76.234 44.6426 76.0814C44.7024 75.9254 44.7322 75.7544 44.7322 75.5686C44.7322 75.4027 44.7007 75.2599 44.6377 75.1405C44.5779 75.021 44.495 74.9181 44.3887 74.8318C44.2825 74.7422 44.1581 74.6675 44.0154 74.6078C43.8727 74.5447 43.72 74.4867 43.5574 74.4336L43.3881 76.9127ZM43.2238 71.1579C43.0081 71.1778 42.8206 71.221 42.6613 71.2873C42.5053 71.3537 42.3759 71.4367 42.273 71.5362C42.1701 71.6358 42.0938 71.7486 42.044 71.8748C41.9942 71.9976 41.9693 72.127 41.9693 72.2631C41.9693 72.4224 41.9975 72.5618 42.054 72.6812C42.1104 72.7974 42.1884 72.9003 42.2879 72.9899C42.3875 73.0795 42.5037 73.1575 42.6364 73.2239C42.7692 73.2902 42.9135 73.35 43.0695 73.4031L43.2238 71.1579ZM43.6171 73.5773C43.8561 73.6536 44.0917 73.735 44.324 73.8212C44.5563 73.9075 44.7654 74.0187 44.9513 74.1548C45.1371 74.2909 45.2865 74.4618 45.3993 74.6675C45.5155 74.87 45.5736 75.1239 45.5736 75.4292C45.5736 75.7279 45.5238 76.0083 45.4242 76.2705C45.3247 76.5327 45.1786 76.7634 44.9861 76.9625C44.797 77.1616 44.563 77.3242 44.2842 77.4504C44.0087 77.5732 43.6935 77.6462 43.3383 77.6694L43.2786 78.5406C43.2753 78.6036 43.2504 78.6584 43.2039 78.7049C43.1575 78.7546 43.0994 78.7795 43.0297 78.7795H42.7011L42.7758 77.6594C42.3742 77.6196 42.0075 77.5201 41.6756 77.3608C41.3471 77.1981 41.0633 76.9924 40.8244 76.7435L41.0932 76.3352C41.1197 76.2987 41.1529 76.2689 41.1927 76.2456C41.2326 76.2224 41.2757 76.2108 41.3222 76.2108C41.3852 76.2108 41.4566 76.2423 41.5362 76.3054C41.6159 76.3684 41.7138 76.4398 41.8299 76.5194C41.9494 76.5991 42.0888 76.6771 42.2481 76.7534C42.4107 76.8297 42.6049 76.8812 42.8306 76.9077L43.0098 74.2643C42.7775 74.1946 42.5485 74.1166 42.3228 74.0303C42.1004 73.944 41.8996 73.8295 41.7204 73.6868C41.5445 73.5441 41.4018 73.3666 41.2923 73.1542C41.1861 72.9418 41.133 72.6746 41.133 72.3527C41.133 72.1104 41.1795 71.8748 41.2724 71.6458C41.3686 71.4134 41.508 71.2077 41.6906 71.0285C41.8731 70.8493 42.0971 70.7032 42.3626 70.5904C42.6281 70.4742 42.9318 70.4095 43.2736 70.3962L43.3234 69.6794C43.3267 69.6163 43.35 69.5599 43.3931 69.5101C43.4396 69.4603 43.4993 69.4354 43.5723 69.4354H43.9009L43.8362 70.4161C44.1813 70.4593 44.48 70.5489 44.7322 70.685C44.9878 70.821 45.2135 70.987 45.4093 71.1828L45.1952 71.5114C45.1288 71.6109 45.0525 71.6607 44.9662 71.6607C44.9198 71.6607 44.8617 71.6408 44.792 71.601C44.7256 71.5578 44.6443 71.508 44.5481 71.4516C44.4551 71.3952 44.3439 71.3404 44.2145 71.2873C44.0884 71.2342 43.944 71.1944 43.7814 71.1679L43.6171 73.5773ZM51.1798 76.9177V77.5947H47.3565V76.9177H48.8849V72.054C48.8849 71.908 48.8898 71.7603 48.8998 71.6109L47.6303 72.7011C47.5872 72.7377 47.5441 72.7609 47.5009 72.7708C47.4578 72.7775 47.4179 72.7775 47.3814 72.7708C47.3449 72.7642 47.3101 72.7509 47.2769 72.731C47.247 72.7111 47.2238 72.6895 47.2072 72.6663L46.9284 72.283L49.0541 70.446H49.776V76.9177H51.1798ZM52.5347 72.3925C52.5811 72.0673 52.6707 71.7802 52.8035 71.5313C52.9362 71.279 53.1038 71.0683 53.3063 70.899C53.512 70.7298 53.746 70.602 54.0082 70.5157C54.2737 70.4261 54.5591 70.3813 54.8645 70.3813C55.1665 70.3813 55.4453 70.4244 55.7008 70.5107C55.9563 70.597 56.1754 70.7198 56.3579 70.8791C56.5438 71.0384 56.6881 71.2309 56.791 71.4566C56.8939 71.6823 56.9454 71.9328 56.9454 72.2083C56.9454 72.434 56.9155 72.6364 56.8557 72.8156C56.7993 72.9915 56.7164 73.1459 56.6068 73.2786C56.5006 73.4114 56.3712 73.5242 56.2185 73.6171C56.0659 73.7101 55.8949 73.7864 55.7058 73.8461C56.1704 73.9656 56.5189 74.1714 56.7512 74.4634C56.9868 74.7522 57.1047 75.1139 57.1047 75.5487C57.1047 75.8772 57.0416 76.1726 56.9155 76.4348C56.7927 76.697 56.6234 76.921 56.4077 77.1069C56.192 77.2894 55.9398 77.4304 55.651 77.53C55.3656 77.6263 55.0586 77.6744 54.73 77.6744C54.3517 77.6744 54.0281 77.6279 53.7593 77.535C53.4905 77.4387 53.2631 77.3076 53.0773 77.1417C52.8914 76.9758 52.7388 76.78 52.6193 76.5543C52.4998 76.3253 52.3986 76.078 52.3156 75.8125L52.6989 75.6532C52.7985 75.6101 52.8947 75.5985 52.9877 75.6184C53.0839 75.6383 53.1536 75.6931 53.1968 75.7827C53.2399 75.8756 53.293 75.9868 53.3561 76.1162C53.4224 76.2456 53.512 76.3701 53.6249 76.4896C53.7377 76.609 53.8804 76.7103 54.053 76.7932C54.2289 76.8762 54.4513 76.9177 54.7201 76.9177C54.969 76.9177 55.1864 76.8779 55.3722 76.7982C55.5614 76.7152 55.7174 76.609 55.8402 76.4796C55.9663 76.3502 56.0609 76.2058 56.1239 76.0465C56.187 75.8872 56.2185 75.7296 56.2185 75.5736C56.2185 75.3811 56.1936 75.2052 56.1439 75.0459C56.0941 74.8866 56.0012 74.7488 55.8651 74.6327C55.729 74.5165 55.5415 74.4253 55.3025 74.3589C55.0669 74.2925 54.7632 74.2593 54.3915 74.2593V73.6171C54.6969 73.6138 54.9557 73.5806 55.1681 73.5176C55.3839 73.4545 55.5581 73.3682 55.6908 73.2587C55.8269 73.1492 55.9248 73.0181 55.9846 72.8654C56.0476 72.7128 56.0791 72.5435 56.0791 72.3576C56.0791 72.1519 56.046 71.9727 55.9796 71.82C55.9165 71.6673 55.8286 71.5412 55.7157 71.4417C55.6029 71.3421 55.4685 71.2674 55.3125 71.2176C55.1598 71.1679 54.9939 71.143 54.8147 71.143C54.6355 71.143 54.4679 71.1695 54.3119 71.2226C54.1592 71.2757 54.0231 71.3504 53.9037 71.4466C53.7875 71.5396 53.6896 71.6507 53.61 71.7802C53.5303 71.9096 53.4739 72.0523 53.4407 72.2083C53.3975 72.3245 53.3428 72.4025 53.2764 72.4423C53.2134 72.4788 53.1204 72.4887 52.9976 72.4721L52.5347 72.3925ZM59.4651 73.1542C59.8368 73.0745 60.1786 73.0347 60.4906 73.0347C60.8623 73.0347 61.1909 73.0894 61.4763 73.199C61.7617 73.3085 61.999 73.4595 62.1882 73.652C62.3807 73.8445 62.525 74.0718 62.6213 74.334C62.7209 74.5962 62.7706 74.8816 62.7706 75.1903C62.7706 75.5686 62.7043 75.9104 62.5715 76.2158C62.4421 76.5211 62.2612 76.7833 62.0289 77.0023C61.7999 77.218 61.5294 77.384 61.2174 77.5001C60.9055 77.6163 60.5686 77.6744 60.2069 77.6744C59.9978 77.6744 59.797 77.6528 59.6045 77.6097C59.412 77.5698 59.2311 77.5151 59.0619 77.4454C58.8959 77.3757 58.7416 77.296 58.5989 77.2064C58.4562 77.1168 58.3301 77.0222 58.2206 76.9227L58.4944 76.5443C58.5541 76.458 58.6321 76.4149 58.7283 76.4149C58.7947 76.4149 58.8694 76.4414 58.9523 76.4945C59.0353 76.5443 59.1365 76.6007 59.256 76.6638C59.3755 76.7269 59.5149 76.7849 59.6742 76.838C59.8368 76.8878 60.0293 76.9127 60.2517 76.9127C60.5006 76.9127 60.7246 76.8729 60.9237 76.7932C61.1228 76.7136 61.2938 76.6007 61.4365 76.4547C61.5792 76.3054 61.6887 76.1278 61.765 75.922C61.8414 75.7163 61.8795 75.4856 61.8795 75.2301C61.8795 75.0077 61.8463 74.8069 61.78 74.6277C61.7169 74.4485 61.619 74.2958 61.4863 74.1697C61.3568 74.0436 61.1942 73.9457 60.9984 73.876C60.8026 73.8063 60.5736 73.7715 60.3114 73.7715C60.1322 73.7715 59.9447 73.7864 59.7489 73.8163C59.5564 73.8461 59.3589 73.8943 59.1565 73.9606L58.5989 73.7964L59.1714 70.461H62.5516V70.8493C62.5516 70.9754 62.5118 71.0799 62.4321 71.1629C62.3558 71.2425 62.223 71.2824 62.0339 71.2824H59.7937L59.4651 73.1542Z" fill="#747981"/>
<path d="M90.2324 13.0392C90.2324 5.83784 96.0703 0 103.272 0H189.051C196.252 0 202.09 5.83783 202.09 13.0392V38.5196C202.09 45.7209 196.252 51.5588 189.051 51.5588H103.272C96.0703 51.5588 90.2324 45.7209 90.2324 38.5196V13.0392Z" fill="#17181C"/>
<path d="M114.07 31.8899V18.7767H117.386V31.8899H114.07ZM109.172 26.991V23.6756H122.285V26.991H109.172ZM138.535 37.1501V13.4425H140.054V37.1501H138.535ZM142.564 21.2678C142.489 20.5208 142.171 19.9405 141.61 19.5268C141.048 19.1132 140.285 18.9063 139.322 18.9063C138.668 18.9063 138.115 18.9989 137.665 19.1842C137.214 19.3632 136.868 19.6132 136.627 19.9343C136.393 20.2553 136.275 20.6196 136.275 21.0271C136.263 21.3666 136.334 21.663 136.488 21.9161C136.649 22.1692 136.868 22.3884 137.146 22.5736C137.424 22.7526 137.745 22.9101 138.109 23.0459C138.473 23.1755 138.862 23.2867 139.276 23.3793L140.98 23.7868C141.807 23.972 142.567 24.2189 143.258 24.5276C143.95 24.8363 144.548 25.216 145.055 25.6667C145.561 26.1174 145.953 26.6483 146.231 27.2596C146.515 27.8708 146.66 28.5715 146.666 29.3617C146.66 30.5224 146.364 31.5288 145.777 32.3808C145.197 33.2266 144.357 33.8841 143.258 34.3533C142.165 34.8163 140.847 35.0479 139.304 35.0479C137.773 35.0479 136.439 34.8133 135.303 34.344C134.173 33.8748 133.29 33.1803 132.655 32.2604C132.025 31.3343 131.694 30.189 131.664 28.8246H135.544C135.587 29.4605 135.769 29.9915 136.09 30.4175C136.417 30.8373 136.853 31.1552 137.396 31.3713C137.945 31.5812 138.566 31.6862 139.257 31.6862C139.937 31.6862 140.526 31.5874 141.026 31.3899C141.533 31.1923 141.925 30.9176 142.202 30.5656C142.48 30.2137 142.619 29.8093 142.619 29.3525C142.619 28.9265 142.493 28.5684 142.239 28.2782C141.992 27.9881 141.628 27.7411 141.147 27.5374C140.671 27.3336 140.088 27.1484 139.396 26.9817L137.331 26.4631C135.732 26.0742 134.47 25.466 133.544 24.6388C132.617 23.8115 132.158 22.6971 132.164 21.2956C132.158 20.1473 132.463 19.144 133.081 18.2859C133.704 17.4277 134.559 16.7578 135.646 16.2763C136.732 15.7947 137.967 15.5539 139.35 15.5539C140.758 15.5539 141.986 15.7947 143.036 16.2763C144.092 16.7578 144.913 17.4277 145.499 18.2859C146.086 19.144 146.388 20.138 146.407 21.2678H142.564ZM148.965 31.4454V28.2875L156.883 15.8132H159.606V20.1843H157.994L153.003 28.0838V28.2319H164.255V31.4454H148.965ZM158.068 34.7793V30.4823L158.142 29.0839V15.8132H161.902V34.7793H158.068ZM173.853 35.0386C172.545 35.0386 171.378 34.7978 170.353 34.3163C169.334 33.8347 168.525 33.171 167.926 32.3252C167.328 31.4794 167.016 30.5101 166.991 29.4173H170.881C170.924 30.152 171.233 30.7478 171.807 31.2046C172.381 31.6615 173.063 31.8899 173.853 31.8899C174.483 31.8899 175.039 31.751 175.52 31.4732C176.008 31.1892 176.388 30.7972 176.659 30.2971C176.937 29.7908 177.076 29.2105 177.076 28.5561C177.076 27.8893 176.934 27.3028 176.65 26.7965C176.372 26.2903 175.986 25.8951 175.493 25.6111C174.999 25.3271 174.434 25.1821 173.798 25.1759C173.242 25.1759 172.702 25.2901 172.177 25.5185C171.659 25.747 171.254 26.0587 170.964 26.4539L167.399 25.8149L168.297 15.8132H179.891V19.0915H171.603L171.112 23.8423H171.223C171.557 23.3731 172.06 22.9842 172.733 22.6755C173.406 22.3668 174.159 22.2124 174.992 22.2124C176.135 22.2124 177.153 22.481 178.048 23.0181C178.944 23.5552 179.651 24.293 180.169 25.2314C180.688 26.1637 180.944 27.2379 180.938 28.4542C180.944 29.7322 180.648 30.8682 180.049 31.8622C179.456 32.85 178.626 33.6279 177.558 34.1959C176.496 34.7577 175.261 35.0386 173.853 35.0386Z" fill="white"/>
</svg>
