<svg width="425" height="163" viewBox="0 0 425 163" fill="none" xmlns="http://www.w3.org/2000/svg">
<g clip-path="url(#clip0_675_52616)">
<rect width="424.741" height="162.806" rx="16" fill="white"/>
<path d="M24.9619 -26.7041H399.781C402.508 -26.7038 404.72 -24.4929 404.72 -21.7656V-2.10059C404.719 0.626521 402.508 2.83763 399.781 2.83789H24.9619C22.2347 2.83778 20.0237 0.626614 20.0234 -2.10059V-21.7656C20.0235 -24.493 22.2346 -26.704 24.9619 -26.7041Z" fill="white"/>
<path d="M24.9619 -26.7041H399.781C402.508 -26.7038 404.72 -24.4929 404.72 -21.7656V-2.10059C404.719 0.626521 402.508 2.83763 399.781 2.83789H24.9619C22.2347 2.83778 20.0237 0.626614 20.0234 -2.10059V-21.7656C20.0235 -24.493 22.2346 -26.704 24.9619 -26.7041Z" stroke="#E1E7ED" stroke-width="0.656477"/>
<path d="M22.0303 39.4248L19.9117 31.7858H21.1239L22.6122 37.7016H22.683L24.231 31.7858H25.432L26.98 37.7053H27.0508L28.5354 31.7858H29.7514L27.629 39.4248H26.469L24.8613 33.703H24.8017L23.194 39.4248H22.0303ZM31.828 36.0231V39.4248H30.7128V31.7858H31.8131V34.628H31.884C32.0183 34.3197 32.2234 34.0748 32.4994 33.8932C32.7754 33.7117 33.136 33.6209 33.5811 33.6209C33.974 33.6209 34.3172 33.7018 34.6106 33.8634C34.9065 34.025 35.1353 34.2662 35.2969 34.587C35.461 34.9053 35.5431 35.3032 35.5431 35.7806V39.4248H34.4278V35.9149C34.4278 35.4946 34.3197 35.1689 34.1033 34.9376C33.887 34.7039 33.5861 34.587 33.2007 34.587C32.9371 34.587 32.7008 34.643 32.492 34.7549C32.2856 34.8668 32.1227 35.0309 32.0033 35.2472C31.8865 35.4611 31.828 35.7197 31.828 36.0231ZM39.4447 39.5404C38.9075 39.5404 38.4388 39.4173 38.0384 39.1712C37.6381 38.925 37.3273 38.5806 37.106 38.138C36.8846 37.6953 36.774 37.1781 36.774 36.5863C36.774 35.992 36.8846 35.4723 37.106 35.0272C37.3273 34.582 37.6381 34.2364 38.0384 33.9902C38.4388 33.744 38.9075 33.6209 39.4447 33.6209C39.9818 33.6209 40.4505 33.744 40.8509 33.9902C41.2512 34.2364 41.562 34.582 41.7834 35.0272C42.0047 35.4723 42.1153 35.992 42.1153 36.5863C42.1153 37.1781 42.0047 37.6953 41.7834 38.138C41.562 38.5806 41.2512 38.925 40.8509 39.1712C40.4505 39.4173 39.9818 39.5404 39.4447 39.5404ZM39.4484 38.6042C39.7965 38.6042 40.085 38.5122 40.3137 38.3282C40.5425 38.1442 40.7116 37.8992 40.821 37.5934C40.9329 37.2875 40.9889 36.9506 40.9889 36.5826C40.9889 36.217 40.9329 35.8813 40.821 35.5755C40.7116 35.2671 40.5425 35.0197 40.3137 34.8332C40.085 34.6467 39.7965 34.5534 39.4484 34.5534C39.0978 34.5534 38.8068 34.6467 38.5756 34.8332C38.3468 35.0197 38.1765 35.2671 38.0646 35.5755C37.9551 35.8813 37.9004 36.217 37.9004 36.5826C37.9004 36.9506 37.9551 37.2875 38.0646 37.5934C38.1765 37.8992 38.3468 38.1442 38.5756 38.3282C38.8068 38.5122 39.0978 38.6042 39.4484 38.6042ZM44.4755 31.7858V39.4248H43.3602V31.7858H44.4755ZM48.4451 39.5404C47.8806 39.5404 47.3945 39.4198 46.9867 39.1786C46.5814 38.9349 46.268 38.593 46.0467 38.1529C45.8279 37.7103 45.7185 37.1918 45.7185 36.5975C45.7185 36.0106 45.8279 35.4934 46.0467 35.0458C46.268 34.5982 46.5764 34.2488 46.9718 33.9977C47.3696 33.7465 47.8346 33.6209 48.3668 33.6209C48.69 33.6209 49.0034 33.6744 49.3067 33.7813C49.6101 33.8883 49.8824 34.0561 50.1236 34.2849C50.3648 34.5137 50.555 34.8108 50.6943 35.1764C50.8335 35.5394 50.9032 35.9808 50.9032 36.5005V36.8959H46.3489V36.0604H49.8103C49.8103 35.7669 49.7506 35.5071 49.6312 35.2808C49.5119 35.052 49.344 34.8717 49.1277 34.7399C48.9138 34.6082 48.6627 34.5423 48.3742 34.5423C48.0609 34.5423 47.7874 34.6193 47.5536 34.7735C47.3224 34.9252 47.1433 35.1241 47.0165 35.3703C46.8922 35.614 46.83 35.8788 46.83 36.1648V36.8175C46.83 37.2005 46.8972 37.5262 47.0314 37.7948C47.1682 38.0634 47.3584 38.2685 47.6021 38.4102C47.8458 38.5495 48.1305 38.6191 48.4563 38.6191C48.6677 38.6191 48.8604 38.5893 49.0344 38.5296C49.2085 38.4674 49.359 38.3754 49.4858 38.2536C49.6126 38.1317 49.7096 37.9813 49.7767 37.8023L50.8323 37.9925C50.7477 38.3033 50.5961 38.5756 50.3772 38.8094C50.1609 39.0406 49.8886 39.2209 49.5604 39.3502C49.2346 39.477 48.8629 39.5404 48.4451 39.5404ZM56.4338 35.0943L55.423 35.2733C55.3807 35.144 55.3136 35.0209 55.2216 34.9041C55.132 34.7872 55.0102 34.6915 54.856 34.6169C54.7018 34.5423 54.5091 34.505 54.2779 34.505C53.9621 34.505 53.6985 34.5758 53.4871 34.7176C53.2757 34.8568 53.1701 35.0371 53.1701 35.2584C53.1701 35.4499 53.2409 35.6041 53.3827 35.7209C53.5244 35.8378 53.7532 35.9335 54.069 36.0081L54.9791 36.217C55.5063 36.3389 55.8992 36.5266 56.1578 36.7802C56.4164 37.0339 56.5457 37.3634 56.5457 37.7687C56.5457 38.1118 56.4462 38.4177 56.2473 38.6863C56.0509 38.9523 55.7761 39.1612 55.423 39.3129C55.0724 39.4646 54.6658 39.5404 54.2033 39.5404C53.5617 39.5404 53.0383 39.4037 52.6329 39.1301C52.2276 38.8541 51.979 38.4625 51.8869 37.9552L52.9649 37.7911C53.0321 38.0721 53.1701 38.2847 53.3789 38.4289C53.5878 38.5706 53.8601 38.6415 54.1958 38.6415C54.5613 38.6415 54.8535 38.5657 55.0724 38.414C55.2912 38.2598 55.4006 38.0721 55.4006 37.8508C55.4006 37.6717 55.3335 37.5213 55.1992 37.3994C55.0674 37.2776 54.8647 37.1856 54.5912 37.1234L53.6214 36.9108C53.0868 36.7889 52.6914 36.595 52.4353 36.3289C52.1816 36.0628 52.0548 35.7259 52.0548 35.3181C52.0548 34.9799 52.1493 34.684 52.3383 34.4304C52.5273 34.1767 52.7884 33.979 53.1216 33.8373C53.4548 33.6931 53.8365 33.6209 54.2667 33.6209C54.8859 33.6209 55.3732 33.7552 55.7288 34.0238C56.0844 34.2899 56.3194 34.6467 56.4338 35.0943ZM59.4392 39.5516C59.0762 39.5516 58.7479 39.4845 58.4545 39.3502C58.1611 39.2134 57.9286 39.0157 57.757 38.7571C57.5879 38.4985 57.5034 38.1815 57.5034 37.806C57.5034 37.4827 57.5655 37.2167 57.6899 37.0078C57.8142 36.7989 57.9821 36.6335 58.1934 36.5117C58.4048 36.3898 58.641 36.2978 58.9021 36.2357C59.1632 36.1735 59.4293 36.1263 59.7003 36.0939C60.0435 36.0541 60.322 36.0218 60.5359 35.9969C60.7497 35.9696 60.9051 35.9261 61.0021 35.8664C61.0991 35.8067 61.1476 35.7097 61.1476 35.5755V35.5493C61.1476 35.2236 61.0556 34.9712 60.8716 34.7922C60.69 34.6131 60.419 34.5236 60.0584 34.5236C59.6829 34.5236 59.387 34.6069 59.1707 34.7735C58.9568 34.9376 58.8089 35.1204 58.7268 35.3218L57.6787 35.0831C57.803 34.735 57.9845 34.454 58.2233 34.2401C58.4645 34.0238 58.7417 33.8671 59.055 33.7701C59.3684 33.6707 59.6978 33.6209 60.0435 33.6209C60.2723 33.6209 60.5147 33.6483 60.7708 33.703C61.0295 33.7552 61.2707 33.8522 61.4945 33.9939C61.7207 34.1357 61.906 34.3383 62.0502 34.6019C62.1945 34.863 62.2666 35.2025 62.2666 35.6202V39.4248H61.1774V38.6415H61.1326C61.0605 38.7857 60.9524 38.9275 60.8081 39.0667C60.6639 39.206 60.4787 39.3216 60.2524 39.4136C60.0261 39.5056 59.755 39.5516 59.4392 39.5516ZM59.6817 38.6564C59.99 38.6564 60.2536 38.5955 60.4724 38.4737C60.6938 38.3518 60.8616 38.1927 60.976 37.9962C61.0929 37.7973 61.1513 37.5847 61.1513 37.3584V36.6199C61.1115 36.6596 61.0344 36.6969 60.92 36.7318C60.8081 36.7641 60.6801 36.7927 60.5359 36.8175C60.3916 36.8399 60.2511 36.8611 60.1144 36.881C59.9776 36.8984 59.8632 36.9133 59.7712 36.9257C59.5549 36.9531 59.3572 36.9991 59.1781 37.0637C59.0016 37.1284 58.8598 37.2216 58.7529 37.3435C58.6485 37.4628 58.5963 37.622 58.5963 37.8209C58.5963 38.0969 58.6982 38.3058 58.9021 38.4475C59.106 38.5868 59.3659 38.6564 59.6817 38.6564ZM64.8673 31.7858V39.4248H63.752V31.7858H64.8673ZM68.8369 39.5404C68.2725 39.5404 67.7863 39.4198 67.3785 39.1786C66.9732 38.9349 66.6599 38.593 66.4386 38.1529C66.2197 37.7103 66.1103 37.1918 66.1103 36.5975C66.1103 36.0106 66.2197 35.4934 66.4386 35.0458C66.6599 34.5982 66.9682 34.2488 67.3636 33.9977C67.7615 33.7465 68.2265 33.6209 68.7586 33.6209C69.0819 33.6209 69.3952 33.6744 69.6986 33.7813C70.0019 33.8883 70.2742 34.0561 70.5154 34.2849C70.7566 34.5137 70.9469 34.8108 71.0861 35.1764C71.2254 35.5394 71.295 35.9808 71.295 36.5005V36.8959H66.7407V36.0604H70.2021C70.2021 35.7669 70.1424 35.5071 70.0231 35.2808C69.9037 35.052 69.7359 34.8717 69.5195 34.7399C69.3057 34.6082 69.0545 34.5423 68.7661 34.5423C68.4527 34.5423 68.1792 34.6193 67.9455 34.7735C67.7142 34.9252 67.5352 35.1241 67.4084 35.3703C67.284 35.614 67.2219 35.8788 67.2219 36.1648V36.8175C67.2219 37.2005 67.289 37.5262 67.4233 37.7948C67.56 38.0634 67.7503 38.2685 67.994 38.4102C68.2377 38.5495 68.5224 38.6191 68.8481 38.6191C69.0595 38.6191 69.2522 38.5893 69.4263 38.5296C69.6003 38.4674 69.7508 38.3754 69.8776 38.2536C70.0044 38.1317 70.1014 37.9813 70.1685 37.8023L71.2241 37.9925C71.1396 38.3033 70.9879 38.5756 70.7691 38.8094C70.5527 39.0406 70.2804 39.2209 69.9522 39.3502C69.6264 39.477 69.2547 39.5404 68.8369 39.5404ZM75.4017 39.4248V31.7858H78.1246C78.7189 31.7858 79.2113 31.894 79.6017 32.1103C79.9921 32.3266 80.2843 32.6226 80.4782 32.998C80.6722 33.371 80.7692 33.7913 80.7692 34.2588C80.7692 34.7288 80.6709 35.1515 80.4745 35.527C80.2805 35.9 79.9871 36.1959 79.5942 36.4147C79.2038 36.631 78.7127 36.7392 78.1209 36.7392H76.2484V35.762H78.0164C78.3919 35.762 78.6965 35.6973 78.9303 35.568C79.164 35.4362 79.3356 35.2572 79.445 35.0309C79.5544 34.8046 79.6091 34.5472 79.6091 34.2588C79.6091 33.9703 79.5544 33.7142 79.445 33.4904C79.3356 33.2666 79.1628 33.0913 78.9265 32.9645C78.6928 32.8377 78.3845 32.7742 78.0015 32.7742H76.5543V39.4248H75.4017ZM82.0308 39.4248V33.6955H83.1088V34.6057H83.1685C83.2729 34.2973 83.4569 34.0549 83.7205 33.8783C83.9866 33.6993 84.2875 33.6098 84.6232 33.6098C84.6928 33.6098 84.7749 33.6122 84.8693 33.6172C84.9663 33.6222 85.0422 33.6284 85.0969 33.6359V34.7026C85.0521 34.6902 84.9725 34.6765 84.8582 34.6616C84.7438 34.6442 84.6294 34.6355 84.515 34.6355C84.2514 34.6355 84.0164 34.6915 83.81 34.8034C83.6061 34.9128 83.4445 35.0657 83.3251 35.2621C83.2058 35.4561 83.1461 35.6774 83.1461 35.9261V39.4248H82.0308ZM86.062 39.4248V33.6955H87.1773V39.4248H86.062ZM86.6252 32.8115C86.4313 32.8115 86.2647 32.7469 86.1254 32.6176C85.9886 32.4858 85.9203 32.3291 85.9203 32.1476C85.9203 31.9636 85.9886 31.8069 86.1254 31.6776C86.2647 31.5458 86.4313 31.4799 86.6252 31.4799C86.8192 31.4799 86.9846 31.5458 87.1213 31.6776C87.2606 31.8069 87.3302 31.9636 87.3302 32.1476C87.3302 32.3291 87.2606 32.4858 87.1213 32.6176C86.9846 32.7469 86.8192 32.8115 86.6252 32.8115ZM91.091 39.5404C90.5364 39.5404 90.059 39.4149 89.6586 39.1637C89.2608 38.9101 88.9549 38.5607 88.7411 38.1156C88.5272 37.6705 88.4203 37.1607 88.4203 36.5863C88.4203 36.0044 88.5297 35.4909 88.7485 35.0458C88.9674 34.5982 89.2757 34.2488 89.6736 33.9977C90.0714 33.7465 90.5402 33.6209 91.0798 33.6209C91.5149 33.6209 91.9029 33.7018 92.2435 33.8634C92.5842 34.0225 92.859 34.2463 93.0679 34.5348C93.2792 34.8232 93.4048 35.1602 93.4446 35.5456H92.3592C92.2995 35.2771 92.1627 35.0458 91.9489 34.8518C91.7375 34.6579 91.454 34.5609 91.0984 34.5609C90.7876 34.5609 90.5153 34.643 90.2816 34.8071C90.0503 34.9687 89.87 35.2 89.7407 35.5009C89.6114 35.7993 89.5467 36.1524 89.5467 36.5602C89.5467 36.9779 89.6102 37.3385 89.737 37.6419C89.8638 37.9452 90.0428 38.1802 90.2741 38.3468C90.5078 38.5134 90.7826 38.5967 91.0984 38.5967C91.3098 38.5967 91.5013 38.5582 91.6728 38.4811C91.8469 38.4015 91.9924 38.2884 92.1092 38.1417C92.2286 37.995 92.3119 37.8184 92.3592 37.612H93.4446C93.4048 37.9825 93.2842 38.3133 93.0828 38.6042C92.8814 38.8951 92.6116 39.1239 92.2734 39.2905C91.9377 39.4571 91.5435 39.5404 91.091 39.5404ZM97.1065 39.5404C96.542 39.5404 96.0559 39.4198 95.6481 39.1786C95.2427 38.9349 94.9294 38.593 94.7081 38.1529C94.4893 37.7103 94.3799 37.1918 94.3799 36.5975C94.3799 36.0106 94.4893 35.4934 94.7081 35.0458C94.9294 34.5982 95.2378 34.2488 95.6331 33.9977C96.031 33.7465 96.496 33.6209 97.0282 33.6209C97.3514 33.6209 97.6647 33.6744 97.9681 33.7813C98.2715 33.8883 98.5438 34.0561 98.785 34.2849C99.0262 34.5137 99.2164 34.8108 99.3557 35.1764C99.4949 35.5394 99.5646 35.9808 99.5646 36.5005V36.8959H95.0102V36.0604H98.4717C98.4717 35.7669 98.412 35.5071 98.2926 35.2808C98.1733 35.052 98.0054 34.8717 97.7891 34.7399C97.5752 34.6082 97.3241 34.5423 97.0356 34.5423C96.7223 34.5423 96.4488 34.6193 96.215 34.7735C95.9838 34.9252 95.8047 35.1241 95.6779 35.3703C95.5536 35.614 95.4914 35.8788 95.4914 36.1648V36.8175C95.4914 37.2005 95.5585 37.5262 95.6928 37.7948C95.8296 38.0634 96.0198 38.2685 96.2635 38.4102C96.5072 38.5495 96.7919 38.6191 97.1177 38.6191C97.329 38.6191 97.5218 38.5893 97.6958 38.5296C97.8699 38.4674 98.0203 38.3754 98.1472 38.2536C98.274 38.1317 98.371 37.9813 98.4381 37.8023L99.4937 37.9925C99.4091 38.3033 99.2574 38.5756 99.0386 38.8094C98.8223 39.0406 98.55 39.2209 98.2218 39.3502C97.896 39.477 97.5242 39.5404 97.1065 39.5404Z" fill="#474D56"/>
<path d="M386.233 40.3797V30.8309H386.845V40.3797H386.233ZM387.856 33.9828C387.826 33.6819 387.698 33.4481 387.471 33.2815C387.245 33.1149 386.938 33.0316 386.55 33.0316C386.286 33.0316 386.064 33.0689 385.882 33.1435C385.701 33.2156 385.562 33.3163 385.465 33.4456C385.37 33.5749 385.323 33.7217 385.323 33.8858C385.318 34.0225 385.347 34.1419 385.409 34.2439C385.473 34.3458 385.562 34.4341 385.674 34.5087C385.785 34.5808 385.915 34.6442 386.061 34.6989C386.208 34.7511 386.365 34.7959 386.531 34.8332L387.218 34.9973C387.551 35.0719 387.857 35.1714 388.135 35.2957C388.414 35.42 388.655 35.573 388.859 35.7545C389.063 35.936 389.221 36.1499 389.333 36.3961C389.447 36.6422 389.505 36.9245 389.508 37.2428C389.505 37.7103 389.386 38.1156 389.15 38.4587C388.916 38.7994 388.578 39.0642 388.135 39.2532C387.695 39.4397 387.164 39.533 386.543 39.533C385.926 39.533 385.389 39.4385 384.931 39.2495C384.476 39.0605 384.121 38.7808 383.864 38.4102C383.611 38.0373 383.478 37.576 383.465 37.0264H385.028C385.046 37.2825 385.119 37.4964 385.248 37.668C385.38 37.8371 385.555 37.9651 385.774 38.0522C385.996 38.1367 386.245 38.179 386.524 38.179C386.797 38.179 387.035 38.1392 387.236 38.0596C387.44 37.9801 387.598 37.8694 387.71 37.7277C387.822 37.5859 387.878 37.423 387.878 37.239C387.878 37.0675 387.827 36.9232 387.725 36.8064C387.626 36.6895 387.479 36.59 387.285 36.508C387.093 36.4259 386.858 36.3513 386.58 36.2842L385.748 36.0753C385.104 35.9186 384.596 35.6737 384.223 35.3405C383.85 35.0073 383.664 34.5584 383.667 33.9939C383.664 33.5314 383.787 33.1273 384.036 32.7817C384.287 32.4361 384.632 32.1663 385.069 31.9723C385.507 31.7783 386.004 31.6814 386.561 31.6814C387.128 31.6814 387.623 31.7783 388.046 31.9723C388.471 32.1663 388.802 32.4361 389.038 32.7817C389.274 33.1273 389.396 33.5277 389.404 33.9828H387.856ZM393.399 39.5292C392.825 39.5292 392.314 39.436 391.866 39.2495C391.421 39.0605 391.072 38.8031 390.818 38.4774C390.564 38.1516 390.438 37.7824 390.438 37.3696C390.438 37.0513 390.51 36.7591 390.654 36.493C390.801 36.2245 391 36.0019 391.251 35.8254C391.502 35.6463 391.783 35.5319 392.094 35.4822V35.43C391.686 35.3479 391.355 35.1502 391.102 34.8369C390.848 34.5211 390.721 34.1543 390.721 33.7366C390.721 33.3412 390.837 32.9893 391.068 32.681C391.299 32.3702 391.616 32.1265 392.019 31.9499C392.424 31.7709 392.885 31.6814 393.399 31.6814C393.914 31.6814 394.373 31.7709 394.776 31.9499C395.181 32.129 395.499 32.3739 395.73 32.6847C395.962 32.9931 396.079 33.3437 396.081 33.7366C396.079 34.1568 395.949 34.5236 395.693 34.8369C395.437 35.1502 395.109 35.3479 394.708 35.43V35.4822C395.014 35.5319 395.292 35.6463 395.54 35.8254C395.791 36.0019 395.99 36.2245 396.137 36.493C396.286 36.7591 396.362 37.0513 396.365 37.3696C396.362 37.7824 396.234 38.1516 395.98 38.4774C395.727 38.8031 395.376 39.0605 394.929 39.2495C394.483 39.436 393.974 39.5292 393.399 39.5292ZM393.399 38.3431C393.655 38.3431 393.879 38.2971 394.071 38.2051C394.262 38.1106 394.411 37.9813 394.518 37.8172C394.628 37.6506 394.682 37.4591 394.682 37.2428C394.682 37.0215 394.626 36.8262 394.515 36.6572C394.403 36.4856 394.251 36.3513 394.059 36.2543C393.868 36.1549 393.648 36.1051 393.399 36.1051C393.153 36.1051 392.933 36.1549 392.739 36.2543C392.545 36.3513 392.392 36.4856 392.28 36.6572C392.171 36.8262 392.116 37.0215 392.116 37.2428C392.116 37.4591 392.17 37.6506 392.277 37.8172C392.383 37.9813 392.534 38.1106 392.728 38.2051C392.922 38.2971 393.146 38.3431 393.399 38.3431ZM393.399 34.9302C393.613 34.9302 393.803 34.8867 393.97 34.7996C394.137 34.7126 394.267 34.592 394.362 34.4378C394.456 34.2836 394.503 34.1058 394.503 33.9044C394.503 33.7055 394.456 33.5314 394.362 33.3822C394.267 33.2305 394.138 33.1124 393.974 33.0279C393.81 32.9408 393.618 32.8973 393.399 32.8973C393.183 32.8973 392.991 32.9408 392.825 33.0279C392.658 33.1124 392.528 33.2305 392.433 33.3822C392.341 33.5314 392.295 33.7055 392.295 33.9044C392.295 34.1058 392.342 34.2836 392.437 34.4378C392.531 34.592 392.662 34.7126 392.829 34.7996C392.995 34.8867 393.185 34.9302 393.399 34.9302ZM400.489 39.5927C399.847 39.5902 399.295 39.4323 398.833 39.1189C398.373 38.8056 398.019 38.3518 397.77 37.7575C397.524 37.1632 397.402 36.4483 397.404 35.6128C397.404 34.7797 397.527 34.0698 397.774 33.4829C398.022 32.8961 398.377 32.4497 398.837 32.1439C399.299 31.8355 399.85 31.6814 400.489 31.6814C401.128 31.6814 401.678 31.8355 402.138 32.1439C402.6 32.4522 402.956 32.8998 403.204 33.4867C403.453 34.071 403.576 34.7797 403.574 35.6128C403.574 36.4508 403.449 37.1669 403.201 37.7612C402.955 38.3555 402.601 38.8094 402.141 39.1227C401.681 39.436 401.131 39.5927 400.489 39.5927ZM400.489 38.2536C400.927 38.2536 401.276 38.0335 401.537 37.5934C401.798 37.1532 401.928 36.493 401.925 35.6128C401.925 35.0334 401.865 34.551 401.746 34.1655C401.629 33.7801 401.463 33.4904 401.246 33.2964C401.032 33.1025 400.78 33.0055 400.489 33.0055C400.054 33.0055 399.706 33.2231 399.445 33.6582C399.184 34.0934 399.052 34.7449 399.049 35.6128C399.049 36.1996 399.108 36.6895 399.225 37.0824C399.344 37.4728 399.512 37.7662 399.728 37.9627C399.944 38.1566 400.198 38.2536 400.489 38.2536Z" fill="#17181C"/>
<path d="M20.5346 68.1807V60.5417H23.2574C23.8493 60.5417 24.3404 60.6436 24.7308 60.8475C25.1237 61.0514 25.4171 61.3337 25.6111 61.6942C25.805 62.0523 25.902 62.4663 25.902 62.9363C25.902 63.4038 25.8038 63.8153 25.6073 64.1709C25.4134 64.524 25.12 64.7988 24.7271 64.9953C24.3367 65.1917 23.8455 65.2899 23.2537 65.2899H21.191V64.2977H23.1493C23.5223 64.2977 23.8256 64.2443 24.0594 64.1374C24.2956 64.0304 24.4685 63.875 24.5779 63.6711C24.6873 63.4672 24.742 63.2223 24.742 62.9363C24.742 62.6479 24.686 62.3979 24.5741 62.1866C24.4647 61.9752 24.2919 61.8136 24.0557 61.7017C23.8219 61.5873 23.5148 61.5301 23.1344 61.5301H21.6871V68.1807H20.5346ZM24.3056 64.7342L26.1929 68.1807H24.88L23.0299 64.7342H24.3056ZM29.6124 68.2963C29.0479 68.2963 28.5618 68.1757 28.154 67.9345C27.7487 67.6908 27.4353 67.3489 27.214 66.9087C26.9952 66.4661 26.8858 65.9476 26.8858 65.3533C26.8858 64.7665 26.9952 64.2493 27.214 63.8017C27.4353 63.3541 27.7437 63.0047 28.1391 62.7535C28.5369 62.5024 29.0019 62.3768 29.5341 62.3768C29.8573 62.3768 30.1707 62.4303 30.474 62.5372C30.7774 62.6441 31.0497 62.812 31.2909 63.0407C31.5321 63.2695 31.7223 63.5667 31.8616 63.9322C32.0008 64.2953 32.0705 64.7366 32.0705 65.2564V65.6517H27.5162V64.8162H30.9776C30.9776 64.5228 30.9179 64.2629 30.7985 64.0367C30.6792 63.8079 30.5113 63.6276 30.295 63.4958C30.0811 63.364 29.83 63.2981 29.5415 63.2981C29.2282 63.2981 28.9547 63.3752 28.7209 63.5294C28.4897 63.6811 28.3106 63.88 28.1838 64.1262C28.0595 64.3699 27.9973 64.6347 27.9973 64.9207V65.5734C27.9973 65.9563 28.0645 66.2821 28.1987 66.5507C28.3355 66.8192 28.5257 67.0244 28.7694 67.1661C29.0131 67.3054 29.2978 67.375 29.6236 67.375C29.835 67.375 30.0277 67.3451 30.2017 67.2855C30.3758 67.2233 30.5263 67.1313 30.6531 67.0094C30.7799 66.8876 30.8769 66.7372 30.944 66.5581L31.9996 66.7483C31.9151 67.0592 31.7634 67.3315 31.5445 67.5652C31.3282 67.7965 31.0559 67.9768 30.7277 68.1061C30.4019 68.2329 30.0302 68.2963 29.6124 68.2963ZM35.7212 68.2963C35.1667 68.2963 34.6892 68.1707 34.2889 67.9196C33.891 67.6659 33.5852 67.3166 33.3713 66.8714C33.1575 66.4263 33.0505 65.9166 33.0505 65.3421C33.0505 64.7603 33.1599 64.2468 33.3788 63.8017C33.5976 63.3541 33.9059 63.0047 34.3038 62.7535C34.7017 62.5024 35.1704 62.3768 35.71 62.3768C36.1452 62.3768 36.5331 62.4576 36.8738 62.6193C37.2144 62.7784 37.4892 63.0022 37.6981 63.2907C37.9095 63.5791 38.035 63.916 38.0748 64.3015H36.9894C36.9297 64.0329 36.7929 63.8017 36.5791 63.6077C36.3677 63.4137 36.0842 63.3168 35.7287 63.3168C35.4178 63.3168 35.1455 63.3988 34.9118 63.5629C34.6805 63.7246 34.5002 63.9558 34.3709 64.2567C34.2416 64.5551 34.177 64.9082 34.177 65.316C34.177 65.7338 34.2404 66.0944 34.3672 66.3977C34.494 66.7011 34.6731 66.9361 34.9043 67.1027C35.1381 67.2693 35.4128 67.3526 35.7287 67.3526C35.94 67.3526 36.1315 67.3141 36.3031 67.237C36.4771 67.1574 36.6226 67.0443 36.7395 66.8975C36.8588 66.7508 36.9421 66.5743 36.9894 66.3679H38.0748C38.035 66.7384 37.9144 67.0691 37.713 67.3601C37.5116 67.651 37.2418 67.8798 36.9036 68.0464C36.5679 68.213 36.1738 68.2963 35.7212 68.2963ZM41.6808 68.2963C41.1437 68.2963 40.6749 68.1732 40.2746 67.927C39.8742 67.6808 39.5634 67.3364 39.3421 66.8938C39.1208 66.4512 39.0101 65.934 39.0101 65.3421C39.0101 64.7478 39.1208 64.2281 39.3421 63.783C39.5634 63.3379 39.8742 62.9923 40.2746 62.7461C40.6749 62.4999 41.1437 62.3768 41.6808 62.3768C42.2179 62.3768 42.6866 62.4999 43.087 62.7461C43.4873 62.9923 43.7982 63.3379 44.0195 63.783C44.2408 64.2281 44.3514 64.7478 44.3514 65.3421C44.3514 65.934 44.2408 66.4512 44.0195 66.8938C43.7982 67.3364 43.4873 67.6808 43.087 67.927C42.6866 68.1732 42.2179 68.2963 41.6808 68.2963ZM41.6845 67.3601C42.0326 67.3601 42.3211 67.2681 42.5499 67.084C42.7786 66.9 42.9477 66.6551 43.0571 66.3492C43.169 66.0434 43.225 65.7064 43.225 65.3384C43.225 64.9729 43.169 64.6372 43.0571 64.3313C42.9477 64.023 42.7786 63.7756 42.5499 63.5891C42.3211 63.4026 42.0326 63.3093 41.6845 63.3093C41.3339 63.3093 41.0429 63.4026 40.8117 63.5891C40.5829 63.7756 40.4126 64.023 40.3007 64.3313C40.1913 64.6372 40.1366 64.9729 40.1366 65.3384C40.1366 65.7064 40.1913 66.0434 40.3007 66.3492C40.4126 66.6551 40.5829 66.9 40.8117 67.084C41.0429 67.2681 41.3339 67.3601 41.6845 67.3601ZM45.5963 68.1807V62.4514H46.6668V63.3839H46.7377C46.8571 63.0681 47.0523 62.8219 47.3233 62.6454C47.5944 62.4663 47.9189 62.3768 48.2968 62.3768C48.6798 62.3768 49.0006 62.4663 49.2592 62.6454C49.5203 62.8244 49.713 63.0706 49.8373 63.3839H49.897C50.0338 63.078 50.2514 62.8344 50.5498 62.6528C50.8481 62.4688 51.2037 62.3768 51.6165 62.3768C52.1362 62.3768 52.5602 62.5397 52.8885 62.8654C53.2192 63.1912 53.3845 63.6823 53.3845 64.3388V68.1807H52.2693V64.4432C52.2693 64.0553 52.1636 63.7743 51.9522 63.6002C51.7409 63.4262 51.4885 63.3391 51.195 63.3391C50.832 63.3391 50.5498 63.451 50.3483 63.6748C50.1469 63.8962 50.0462 64.1809 50.0462 64.529V68.1807H48.9347V64.3723C48.9347 64.0615 48.8377 63.8116 48.6437 63.6226C48.4498 63.4336 48.1974 63.3391 47.8865 63.3391C47.6752 63.3391 47.48 63.3951 47.3009 63.507C47.1244 63.6164 46.9814 63.7693 46.872 63.9658C46.7651 64.1622 46.7116 64.3898 46.7116 64.6484V68.1807H45.5963ZM54.8793 68.1807V62.4514H55.9498V63.3839H56.0207C56.1401 63.0681 56.3353 62.8219 56.6063 62.6454C56.8774 62.4663 57.2019 62.3768 57.5798 62.3768C57.9628 62.3768 58.2836 62.4663 58.5422 62.6454C58.8033 62.8244 58.996 63.0706 59.1203 63.3839H59.18C59.3168 63.078 59.5344 62.8344 59.8328 62.6528C60.1312 62.4688 60.4867 62.3768 60.8995 62.3768C61.4192 62.3768 61.8432 62.5397 62.1715 62.8654C62.5022 63.1912 62.6675 63.6823 62.6675 64.3388V68.1807H61.5523V64.4432C61.5523 64.0553 61.4466 63.7743 61.2352 63.6002C61.0239 63.4262 60.7715 63.3391 60.478 63.3391C60.115 63.3391 59.8328 63.451 59.6313 63.6748C59.4299 63.8962 59.3292 64.1809 59.3292 64.529V68.1807H58.2177V64.3723C58.2177 64.0615 58.1207 63.8116 57.9267 63.6226C57.7328 63.4336 57.4804 63.3391 57.1695 63.3391C56.9582 63.3391 56.763 63.3951 56.5839 63.507C56.4074 63.6164 56.2644 63.7693 56.155 63.9658C56.0481 64.1622 55.9946 64.3898 55.9946 64.6484V68.1807H54.8793ZM66.6316 68.2963C66.0671 68.2963 65.581 68.1757 65.1732 67.9345C64.7678 67.6908 64.4545 67.3489 64.2332 66.9087C64.0144 66.4661 63.905 65.9476 63.905 65.3533C63.905 64.7665 64.0144 64.2493 64.2332 63.8017C64.4545 63.3541 64.7629 63.0047 65.1582 62.7535C65.5561 62.5024 66.0211 62.3768 66.5533 62.3768C66.8765 62.3768 67.1898 62.4303 67.4932 62.5372C67.7966 62.6441 68.0689 62.812 68.3101 63.0407C68.5513 63.2695 68.7415 63.5667 68.8808 63.9322C69.02 64.2953 69.0896 64.7366 69.0896 65.2564V65.6517H64.5353V64.8162H67.9968C67.9968 64.5228 67.9371 64.2629 67.8177 64.0367C67.6984 63.8079 67.5305 63.6276 67.3142 63.4958C67.1003 63.364 66.8492 63.2981 66.5607 63.2981C66.2474 63.2981 65.9739 63.3752 65.7401 63.5294C65.5089 63.6811 65.3298 63.88 65.203 64.1262C65.0787 64.3699 65.0165 64.6347 65.0165 64.9207V65.5734C65.0165 65.9563 65.0836 66.2821 65.2179 66.5507C65.3547 66.8192 65.5449 67.0244 65.7886 67.1661C66.0323 67.3054 66.317 67.375 66.6428 67.375C66.8541 67.375 67.0469 67.3451 67.2209 67.2855C67.395 67.2233 67.5454 67.1313 67.6722 67.0094C67.7991 66.8876 67.896 66.7372 67.9632 66.5581L69.0188 66.7483C68.9342 67.0592 68.7825 67.3315 68.5637 67.5652C68.3474 67.7965 68.0751 67.9768 67.7468 68.1061C67.4211 68.2329 67.0493 68.2963 66.6316 68.2963ZM71.4423 64.7789V68.1807H70.3271V62.4514H71.3976V63.3839H71.4684C71.6002 63.0805 71.8066 62.8368 72.0876 62.6528C72.3711 62.4688 72.7279 62.3768 73.1581 62.3768C73.5485 62.3768 73.8904 62.4589 74.1839 62.623C74.4773 62.7846 74.7048 63.0258 74.8665 63.3466C75.0281 63.6674 75.1089 64.064 75.1089 64.5365V68.1807H73.9936V64.6707C73.9936 64.2555 73.8855 63.931 73.6691 63.6972C73.4528 63.461 73.1556 63.3429 72.7777 63.3429C72.5191 63.3429 72.289 63.3988 72.0876 63.5107C71.8887 63.6226 71.7308 63.7867 71.6139 64.0031C71.4995 64.2169 71.4423 64.4755 71.4423 64.7789ZM78.7494 68.2926C78.2869 68.2926 77.8741 68.1744 77.511 67.9382C77.1505 67.6995 76.867 67.3601 76.6606 66.9199C76.4567 66.4773 76.3547 65.9464 76.3547 65.3272C76.3547 64.708 76.4579 64.1784 76.6643 63.7383C76.8732 63.2981 77.1592 62.9612 77.5222 62.7274C77.8853 62.4937 78.2968 62.3768 78.7568 62.3768C79.1124 62.3768 79.3984 62.4365 79.6147 62.5558C79.8336 62.6727 80.0026 62.8095 80.122 62.9661C80.2439 63.1228 80.3383 63.2608 80.4055 63.3802H80.4726V60.5417H81.5879V68.1807H80.4987V67.2892H80.4055C80.3383 67.411 80.2414 67.5503 80.1145 67.707C79.9902 67.8636 79.8186 68.0004 79.5998 68.1173C79.381 68.2341 79.0975 68.2926 78.7494 68.2926ZM78.9956 67.3414C79.3163 67.3414 79.5874 67.2569 79.8087 67.0878C80.0325 66.9162 80.2016 66.6787 80.316 66.3754C80.4328 66.072 80.4913 65.7189 80.4913 65.316C80.4913 64.9182 80.4341 64.57 80.3197 64.2716C80.2053 63.9732 80.0375 63.7407 79.8161 63.5741C79.5948 63.4075 79.3213 63.3242 78.9956 63.3242C78.6599 63.3242 78.3801 63.4113 78.1563 63.5853C77.9325 63.7594 77.7634 63.9969 77.649 64.2977C77.5371 64.5986 77.4812 64.9381 77.4812 65.316C77.4812 65.699 77.5384 66.0434 77.6528 66.3492C77.7671 66.6551 77.9362 66.8975 78.16 67.0766C78.3863 67.2531 78.6648 67.3414 78.9956 67.3414ZM85.6489 68.2963C85.0844 68.2963 84.5983 68.1757 84.1905 67.9345C83.7852 67.6908 83.4718 67.3489 83.2505 66.9087C83.0317 66.4661 82.9223 65.9476 82.9223 65.3533C82.9223 64.7665 83.0317 64.2493 83.2505 63.8017C83.4718 63.3541 83.7802 63.0047 84.1756 62.7535C84.5734 62.5024 85.0384 62.3768 85.5706 62.3768C85.8938 62.3768 86.2072 62.4303 86.5105 62.5372C86.8139 62.6441 87.0862 62.812 87.3274 63.0407C87.5686 63.2695 87.7588 63.5667 87.8981 63.9322C88.0373 64.2953 88.107 64.7366 88.107 65.2564V65.6517H83.5527V64.8162H87.0141C87.0141 64.5228 86.9544 64.2629 86.835 64.0367C86.7157 63.8079 86.5478 63.6276 86.3315 63.4958C86.1176 63.364 85.8665 63.2981 85.578 63.2981C85.2647 63.2981 84.9912 63.3752 84.7574 63.5294C84.5262 63.6811 84.3471 63.88 84.2203 64.1262C84.096 64.3699 84.0338 64.6347 84.0338 64.9207V65.5734C84.0338 65.9563 84.101 66.2821 84.2352 66.5507C84.372 66.8192 84.5622 67.0244 84.8059 67.1661C85.0496 67.3054 85.3343 67.375 85.6601 67.375C85.8715 67.375 86.0642 67.3451 86.2382 67.2855C86.4123 67.2233 86.5628 67.1313 86.6896 67.0094C86.8164 66.8876 86.9134 66.7372 86.9805 66.5581L88.0361 66.7483C87.9516 67.0592 87.7999 67.3315 87.581 67.5652C87.3647 67.7965 87.0924 67.9768 86.7642 68.1061C86.4384 68.2329 86.0667 68.2963 85.6489 68.2963ZM91.4891 68.2926C91.0266 68.2926 90.6138 68.1744 90.2508 67.9382C89.8902 67.6995 89.6067 67.3601 89.4003 66.9199C89.1964 66.4773 89.0945 65.9464 89.0945 65.3272C89.0945 64.708 89.1977 64.1784 89.4041 63.7383C89.613 63.2981 89.8989 62.9612 90.262 62.7274C90.625 62.4937 91.0366 62.3768 91.4966 62.3768C91.8522 62.3768 92.1382 62.4365 92.3545 62.5558C92.5733 62.6727 92.7424 62.8095 92.8618 62.9661C92.9836 63.1228 93.0781 63.2608 93.1452 63.3802H93.2124V60.5417H94.3277V68.1807H93.2385V67.2892H93.1452C93.0781 67.411 92.9811 67.5503 92.8543 67.707C92.73 67.8636 92.5584 68.0004 92.3396 68.1173C92.1207 68.2341 91.8373 68.2926 91.4891 68.2926ZM91.7353 67.3414C92.0561 67.3414 92.3271 67.2569 92.5484 67.0878C92.7722 66.9162 92.9413 66.6787 93.0557 66.3754C93.1726 66.072 93.231 65.7189 93.231 65.316C93.231 64.9182 93.1738 64.57 93.0595 64.2716C92.9451 63.9732 92.7772 63.7407 92.5559 63.5741C92.3346 63.4075 92.0611 63.3242 91.7353 63.3242C91.3996 63.3242 91.1199 63.4113 90.8961 63.5853C90.6723 63.7594 90.5032 63.9969 90.3888 64.2977C90.2769 64.5986 90.2209 64.9381 90.2209 65.316C90.2209 65.699 90.2781 66.0434 90.3925 66.3492C90.5069 66.6551 90.676 66.8975 90.8998 67.0766C91.1261 67.2531 91.4046 67.3414 91.7353 67.3414ZM98.7887 68.1807V60.5417H101.512C102.106 60.5417 102.598 60.6498 102.989 60.8662C103.379 61.0825 103.671 61.3784 103.865 61.7539C104.059 62.1269 104.156 62.5471 104.156 63.0146C104.156 63.4846 104.058 63.9073 103.861 64.2828C103.668 64.6558 103.374 64.9517 102.981 65.1706C102.591 65.3869 102.1 65.4951 101.508 65.4951H99.6354V64.5178H101.403C101.779 64.5178 102.084 64.4532 102.317 64.3239C102.551 64.1921 102.723 64.013 102.832 63.7867C102.941 63.5605 102.996 63.3031 102.996 63.0146C102.996 62.7262 102.941 62.4701 102.832 62.2463C102.723 62.0225 102.55 61.8471 102.314 61.7203C102.08 61.5935 101.771 61.5301 101.389 61.5301H99.9413V68.1807H98.7887ZM105.418 68.1807V62.4514H106.496V63.3615H106.555C106.66 63.0532 106.844 62.8107 107.108 62.6342C107.374 62.4551 107.674 62.3656 108.01 62.3656C108.08 62.3656 108.162 62.3681 108.256 62.3731C108.353 62.3781 108.429 62.3843 108.484 62.3917V63.4585C108.439 63.4461 108.36 63.4324 108.245 63.4175C108.131 63.4001 108.016 63.3914 107.902 63.3914C107.638 63.3914 107.403 63.4473 107.197 63.5592C106.993 63.6686 106.831 63.8216 106.712 64.018C106.593 64.212 106.533 64.4333 106.533 64.6819V68.1807H105.418ZM109.449 68.1807V62.4514H110.564V68.1807H109.449ZM110.012 61.5674C109.818 61.5674 109.652 61.5027 109.512 61.3734C109.376 61.2416 109.307 61.085 109.307 60.9035C109.307 60.7195 109.376 60.5628 109.512 60.4335C109.652 60.3017 109.818 60.2358 110.012 60.2358C110.206 60.2358 110.372 60.3017 110.508 60.4335C110.648 60.5628 110.717 60.7195 110.717 60.9035C110.717 61.085 110.648 61.2416 110.508 61.3734C110.372 61.5027 110.206 61.5674 110.012 61.5674ZM114.478 68.2963C113.923 68.2963 113.446 68.1707 113.046 67.9196C112.648 67.6659 112.342 67.3166 112.128 66.8714C111.914 66.4263 111.807 65.9166 111.807 65.3421C111.807 64.7603 111.917 64.2468 112.136 63.8017C112.354 63.3541 112.663 63.0047 113.061 62.7535C113.458 62.5024 113.927 62.3768 114.467 62.3768C114.902 62.3768 115.29 62.4576 115.631 62.6193C115.971 62.7784 116.246 63.0022 116.455 63.2907C116.666 63.5791 116.792 63.916 116.832 64.3015H115.746C115.686 64.0329 115.55 63.8017 115.336 63.6077C115.124 63.4137 114.841 63.3168 114.485 63.3168C114.175 63.3168 113.902 63.3988 113.669 63.5629C113.437 63.7246 113.257 63.9558 113.128 64.2567C112.998 64.5551 112.934 64.9082 112.934 65.316C112.934 65.7338 112.997 66.0944 113.124 66.3977C113.251 66.7011 113.43 66.9361 113.661 67.1027C113.895 67.2693 114.17 67.3526 114.485 67.3526C114.697 67.3526 114.888 67.3141 115.06 67.237C115.234 67.1574 115.379 67.0443 115.496 66.8975C115.616 66.7508 115.699 66.5743 115.746 66.3679H116.832C116.792 66.7384 116.671 67.0691 116.47 67.3601C116.268 67.651 115.999 67.8798 115.66 68.0464C115.325 68.213 114.931 68.2963 114.478 68.2963ZM120.493 68.2963C119.929 68.2963 119.443 68.1757 119.035 67.9345C118.63 67.6908 118.316 67.3489 118.095 66.9087C117.876 66.4661 117.767 65.9476 117.767 65.3533C117.767 64.7665 117.876 64.2493 118.095 63.8017C118.316 63.3541 118.625 63.0047 119.02 62.7535C119.418 62.5024 119.883 62.3768 120.415 62.3768C120.738 62.3768 121.052 62.4303 121.355 62.5372C121.658 62.6441 121.931 62.812 122.172 63.0407C122.413 63.2695 122.603 63.5667 122.743 63.9322C122.882 64.2953 122.952 64.7366 122.952 65.2564V65.6517H118.397V64.8162H121.859C121.859 64.5228 121.799 64.2629 121.68 64.0367C121.56 63.8079 121.392 63.6276 121.176 63.4958C120.962 63.364 120.711 63.2981 120.423 63.2981C120.109 63.2981 119.836 63.3752 119.602 63.5294C119.371 63.6811 119.192 63.88 119.065 64.1262C118.941 64.3699 118.878 64.6347 118.878 64.9207V65.5734C118.878 65.9563 118.946 66.2821 119.08 66.5507C119.217 66.8192 119.407 67.0244 119.651 67.1661C119.894 67.3054 120.179 67.375 120.505 67.375C120.716 67.375 120.909 67.3451 121.083 67.2855C121.257 67.2233 121.407 67.1313 121.534 67.0094C121.661 66.8876 121.758 66.7372 121.825 66.5581L122.881 66.7483C122.796 67.0592 122.644 67.3315 122.426 67.5652C122.209 67.7965 121.937 67.9768 121.609 68.1061C121.283 68.2329 120.911 68.2963 120.493 68.2963Z" fill="#474D56"/>
<path d="M382.233 69.1355V59.5868H382.845V69.1355H382.233ZM383.856 62.7386C383.826 62.4377 383.698 62.204 383.471 62.0374C383.245 61.8708 382.938 61.7875 382.55 61.7875C382.286 61.7875 382.064 61.8248 381.882 61.8994C381.701 61.9715 381.562 62.0722 381.465 62.2015C381.37 62.3308 381.323 62.4775 381.323 62.6416C381.318 62.7784 381.347 62.8978 381.409 62.9997C381.473 63.1017 381.562 63.1899 381.674 63.2645C381.785 63.3367 381.915 63.4001 382.061 63.4548C382.208 63.507 382.365 63.5518 382.531 63.5891L383.218 63.7532C383.551 63.8278 383.857 63.9272 384.135 64.0516C384.414 64.1759 384.655 64.3288 384.859 64.5104C385.063 64.6919 385.221 64.9057 385.333 65.1519C385.447 65.3981 385.505 65.6803 385.508 65.9986C385.505 66.4661 385.386 66.8714 385.15 67.2146C384.916 67.5553 384.578 67.8201 384.135 68.0091C383.695 68.1956 383.164 68.2888 382.543 68.2888C381.926 68.2888 381.389 68.1943 380.931 68.0054C380.476 67.8164 380.121 67.5366 379.864 67.1661C379.611 66.7931 379.478 66.3318 379.465 65.7823H381.028C381.046 66.0384 381.119 66.2523 381.248 66.4238C381.38 66.5929 381.555 66.721 381.774 66.808C381.996 66.8926 382.245 66.9348 382.524 66.9348C382.797 66.9348 383.035 66.8951 383.236 66.8155C383.44 66.7359 383.598 66.6253 383.71 66.4835C383.822 66.3418 383.878 66.1789 383.878 65.9949C383.878 65.8233 383.827 65.6791 383.725 65.5622C383.626 65.4453 383.479 65.3459 383.285 65.2638C383.093 65.1818 382.858 65.1072 382.58 65.04L381.748 64.8311C381.104 64.6745 380.596 64.4295 380.223 64.0963C379.85 63.7631 379.664 63.3143 379.667 62.7498C379.664 62.2873 379.787 61.8832 380.036 61.5376C380.287 61.1919 380.632 60.9221 381.069 60.7282C381.507 60.5342 382.004 60.4372 382.561 60.4372C383.128 60.4372 383.623 60.5342 384.046 60.7282C384.471 60.9221 384.802 61.1919 385.038 61.5376C385.274 61.8832 385.396 62.2836 385.404 62.7386H383.856ZM389.873 60.5417V68.1807H388.258V62.0747H388.213L386.464 63.1713V61.739L388.355 60.5417H389.873ZM391.689 68.1807V67.0169L394.408 64.4992C394.639 64.2754 394.833 64.074 394.99 63.8949C395.149 63.7159 395.269 63.5406 395.351 63.369C395.433 63.1949 395.474 63.0072 395.474 62.8058C395.474 62.582 395.423 62.3892 395.322 62.2276C395.22 62.0635 395.08 61.9379 394.904 61.8509C394.727 61.7614 394.527 61.7166 394.303 61.7166C394.07 61.7166 393.866 61.7638 393.692 61.8583C393.517 61.9528 393.383 62.0884 393.289 62.2649C393.194 62.4415 393.147 62.6516 393.147 62.8953H391.614C391.614 62.3955 391.727 61.9615 391.953 61.5935C392.18 61.2255 392.497 60.9408 392.905 60.7393C393.312 60.5379 393.782 60.4372 394.314 60.4372C394.862 60.4372 395.338 60.5342 395.743 60.7282C396.151 60.9196 396.468 61.1857 396.694 61.5264C396.92 61.867 397.034 62.2574 397.034 62.6976C397.034 62.986 396.976 63.2708 396.862 63.5518C396.75 63.8327 396.55 64.1448 396.261 64.488C395.973 64.8287 395.566 65.2377 395.042 65.7151L393.927 66.808V66.8602H397.134V68.1807H391.689ZM401.3 68.3485C400.658 68.346 400.106 68.1881 399.644 67.8748C399.184 67.5615 398.829 67.1077 398.581 66.5134C398.334 65.919 398.213 65.2041 398.215 64.3686C398.215 63.5356 398.338 62.8256 398.584 62.2388C398.833 61.6519 399.187 61.2056 399.647 60.8997C400.11 60.5914 400.661 60.4372 401.3 60.4372C401.939 60.4372 402.488 60.5914 402.948 60.8997C403.411 61.2081 403.767 61.6557 404.015 62.2425C404.264 62.8269 404.387 63.5356 404.384 64.3686C404.384 65.2066 404.26 65.9228 404.011 66.5171C403.765 67.1114 403.412 67.5652 402.952 67.8785C402.492 68.1919 401.941 68.3485 401.3 68.3485ZM401.3 67.0094C401.737 67.0094 402.087 66.7894 402.348 66.3492C402.609 65.9091 402.738 65.2489 402.736 64.3686C402.736 63.7892 402.676 63.3068 402.557 62.9214C402.44 62.536 402.273 62.2463 402.057 62.0523C401.843 61.8583 401.591 61.7614 401.3 61.7614C400.865 61.7614 400.516 61.9789 400.255 62.4141C399.994 62.8493 399.862 63.5008 399.86 64.3686C399.86 64.9555 399.918 65.4453 400.035 65.8382C400.155 66.2286 400.323 66.5221 400.539 66.7185C400.755 66.9125 401.009 67.0094 401.3 67.0094Z" fill="#17181C"/>
<line x1="19.6954" y1="97.1112" x2="405.048" y2="97.1112" stroke="#E1E7ED" stroke-width="0.656477"/>
<path d="M21.9743 126.059V133.698H20.3592V126.059H21.9743ZM24.8623 130.386V133.698H23.2733V127.969H24.7877V128.98H24.8548C24.9816 128.647 25.1942 128.383 25.4926 128.189C25.791 127.993 26.1528 127.894 26.5781 127.894C26.9759 127.894 27.3228 127.981 27.6187 128.155C27.9146 128.33 28.1447 128.578 28.3088 128.901C28.4729 129.222 28.555 129.605 28.555 130.05V133.698H26.966V130.334C26.9685 129.983 26.879 129.71 26.6974 129.513C26.5159 129.314 26.266 129.215 25.9477 129.215C25.7338 129.215 25.5449 129.261 25.3807 129.353C25.2191 129.445 25.0923 129.579 25.0003 129.756C24.9108 129.93 24.8648 130.14 24.8623 130.386ZM32.3959 133.81C31.8091 133.81 31.3043 133.686 30.8815 133.437C30.4613 133.186 30.138 132.838 29.9117 132.393C29.6879 131.948 29.576 131.435 29.576 130.856C29.576 130.269 29.6892 129.754 29.9155 129.312C30.1442 128.867 30.4688 128.52 30.889 128.271C31.3092 128.02 31.8091 127.894 32.3885 127.894C32.8883 127.894 33.3259 127.985 33.7014 128.167C34.0769 128.348 34.374 128.603 34.5929 128.931C34.8117 129.26 34.9323 129.645 34.9547 130.088H33.4552C33.413 129.802 33.3011 129.572 33.1195 129.398C32.9405 129.221 32.7055 129.133 32.4146 129.133C32.1684 129.133 31.9533 129.2 31.7693 129.334C31.5877 129.466 31.446 129.659 31.3441 129.912C31.2421 130.166 31.1911 130.473 31.1911 130.834C31.1911 131.199 31.2409 131.51 31.3403 131.766C31.4423 132.022 31.5853 132.217 31.7693 132.352C31.9533 132.486 32.1684 132.553 32.4146 132.553C32.5961 132.553 32.759 132.516 32.9032 132.441C33.0499 132.367 33.1705 132.258 33.265 132.117C33.362 131.973 33.4254 131.8 33.4552 131.598H34.9547C34.9298 132.036 34.8105 132.421 34.5966 132.755C34.3852 133.085 34.0931 133.344 33.7201 133.53C33.3471 133.717 32.9057 133.81 32.3959 133.81ZM38.5606 133.81C37.9813 133.81 37.4802 133.687 37.0575 133.441C36.6372 133.192 36.3127 132.847 36.0839 132.404C35.8552 131.959 35.7408 131.443 35.7408 130.856C35.7408 130.264 35.8552 129.747 36.0839 129.304C36.3127 128.859 36.6372 128.514 37.0575 128.267C37.4802 128.019 37.9813 127.894 38.5606 127.894C39.14 127.894 39.6399 128.019 40.0601 128.267C40.4828 128.514 40.8086 128.859 41.0374 129.304C41.2661 129.747 41.3805 130.264 41.3805 130.856C41.3805 131.443 41.2661 131.959 41.0374 132.404C40.8086 132.847 40.4828 133.192 40.0601 133.441C39.6399 133.687 39.14 133.81 38.5606 133.81ZM38.5681 132.579C38.8317 132.579 39.0518 132.505 39.2283 132.355C39.4049 132.204 39.5379 131.997 39.6274 131.736C39.7194 131.475 39.7654 131.178 39.7654 130.845C39.7654 130.512 39.7194 130.214 39.6274 129.953C39.5379 129.692 39.4049 129.486 39.2283 129.334C39.0518 129.182 38.8317 129.107 38.5681 129.107C38.302 129.107 38.0782 129.182 37.8967 129.334C37.7177 129.486 37.5821 129.692 37.4901 129.953C37.4006 130.214 37.3559 130.512 37.3559 130.845C37.3559 131.178 37.4006 131.475 37.4901 131.736C37.5821 131.997 37.7177 132.204 37.8967 132.355C38.0782 132.505 38.302 132.579 38.5681 132.579ZM42.4137 133.698V127.969H43.9281V128.98H43.9952C44.1146 128.644 44.3135 128.379 44.592 128.185C44.8705 127.991 45.2037 127.894 45.5917 127.894C45.9846 127.894 46.319 127.993 46.595 128.189C46.8711 128.383 47.0551 128.647 47.1471 128.98H47.2067C47.3236 128.652 47.535 128.389 47.8408 128.193C48.1492 127.994 48.5135 127.894 48.9337 127.894C49.4684 127.894 49.9023 128.065 50.2355 128.405C50.5712 128.744 50.739 129.224 50.739 129.845V133.698H49.1538V130.158C49.1538 129.84 49.0693 129.601 48.9002 129.442C48.7311 129.283 48.5197 129.204 48.2661 129.204C47.9776 129.204 47.7526 129.296 47.5909 129.48C47.4293 129.661 47.3485 129.901 47.3485 130.2V133.698H45.808V130.125C45.808 129.844 45.7272 129.62 45.5656 129.454C45.4064 129.287 45.1963 129.204 44.9352 129.204C44.7586 129.204 44.5995 129.248 44.4578 129.338C44.3185 129.425 44.2078 129.548 44.1258 129.707C44.0437 129.864 44.0027 130.048 44.0027 130.259V133.698H42.4137ZM54.6052 133.81C54.0158 133.81 53.5086 133.691 53.0833 133.452C52.6606 133.211 52.3349 132.87 52.1061 132.43C51.8773 131.987 51.7629 131.464 51.7629 130.86C51.7629 130.27 51.8773 129.753 52.1061 129.308C52.3349 128.863 52.6569 128.516 53.0722 128.267C53.4899 128.019 53.9798 127.894 54.5418 127.894C54.9197 127.894 55.2716 127.955 55.5974 128.077C55.9256 128.197 56.2116 128.377 56.4552 128.618C56.7014 128.859 56.8929 129.163 57.0297 129.528C57.1664 129.891 57.2348 130.316 57.2348 130.804V131.24H52.397V130.255H55.7391C55.7391 130.027 55.6894 129.824 55.5899 129.647C55.4904 129.471 55.3524 129.333 55.1759 129.233C55.0018 129.131 54.7991 129.081 54.5679 129.081C54.3267 129.081 54.1128 129.136 53.9263 129.248C53.7423 129.358 53.5981 129.506 53.4936 129.692C53.3892 129.876 53.3357 130.081 53.3333 130.308V131.244C53.3333 131.527 53.3855 131.772 53.4899 131.979C53.5968 132.185 53.7473 132.344 53.9412 132.456C54.1352 132.568 54.3652 132.624 54.6313 132.624C54.8078 132.624 54.9695 132.599 55.1162 132.549C55.2629 132.5 55.3885 132.425 55.4929 132.326C55.5974 132.226 55.6769 132.104 55.7316 131.96L57.2012 132.057C57.1266 132.41 56.9737 132.718 56.7425 132.982C56.5137 133.243 56.2178 133.447 55.8547 133.594C55.4942 133.738 55.0776 133.81 54.6052 133.81Z" fill="#474D56"/>
<path d="M363.233 134.653V125.104H363.845V134.653H363.233ZM364.856 128.256C364.826 127.955 364.698 127.722 364.471 127.555C364.245 127.388 363.938 127.305 363.55 127.305C363.286 127.305 363.064 127.342 362.882 127.417C362.701 127.489 362.562 127.59 362.465 127.719C362.37 127.848 362.323 127.995 362.323 128.159C362.318 128.296 362.347 128.415 362.409 128.517C362.473 128.619 362.562 128.708 362.674 128.782C362.785 128.854 362.915 128.918 363.061 128.972C363.208 129.025 363.365 129.069 363.531 129.107L364.218 129.271C364.551 129.345 364.857 129.445 365.135 129.569C365.414 129.693 365.655 129.846 365.859 130.028C366.063 130.209 366.221 130.423 366.333 130.669C366.447 130.916 366.505 131.198 366.508 131.516C366.505 131.984 366.386 132.389 366.15 132.732C365.916 133.073 365.578 133.338 365.135 133.527C364.695 133.713 364.164 133.806 363.543 133.806C362.926 133.806 362.389 133.712 361.931 133.523C361.476 133.334 361.121 133.054 360.864 132.684C360.611 132.311 360.478 131.849 360.465 131.3H362.028C362.046 131.556 362.119 131.77 362.248 131.941C362.38 132.111 362.555 132.239 362.774 132.326C362.996 132.41 363.245 132.452 363.524 132.452C363.797 132.452 364.035 132.413 364.236 132.333C364.44 132.253 364.598 132.143 364.71 132.001C364.822 131.859 364.878 131.696 364.878 131.512C364.878 131.341 364.827 131.197 364.725 131.08C364.626 130.963 364.479 130.863 364.285 130.781C364.093 130.699 363.858 130.625 363.58 130.558L362.748 130.349C362.104 130.192 361.596 129.947 361.223 129.614C360.85 129.281 360.664 128.832 360.667 128.267C360.664 127.805 360.787 127.401 361.036 127.055C361.287 126.709 361.632 126.44 362.069 126.246C362.507 126.052 363.004 125.955 363.561 125.955C364.128 125.955 364.623 126.052 365.046 126.246C365.471 126.44 365.802 126.709 366.038 127.055C366.274 127.401 366.396 127.801 366.404 128.256H364.856ZM367.55 133.698V132.534L370.269 130.017C370.5 129.793 370.694 129.592 370.851 129.412C371.01 129.233 371.13 129.058 371.212 128.887C371.294 128.712 371.335 128.525 371.335 128.323C371.335 128.1 371.284 127.907 371.183 127.745C371.081 127.581 370.941 127.455 370.765 127.368C370.588 127.279 370.388 127.234 370.164 127.234C369.931 127.234 369.727 127.281 369.553 127.376C369.378 127.47 369.244 127.606 369.15 127.782C369.055 127.959 369.008 128.169 369.008 128.413H367.475C367.475 127.913 367.588 127.479 367.814 127.111C368.041 126.743 368.358 126.458 368.766 126.257C369.173 126.056 369.643 125.955 370.175 125.955C370.723 125.955 371.199 126.052 371.604 126.246C372.012 126.437 372.329 126.703 372.555 127.044C372.781 127.385 372.895 127.775 372.895 128.215C372.895 128.504 372.837 128.788 372.723 129.069C372.611 129.35 372.411 129.662 372.123 130.006C371.834 130.346 371.427 130.755 370.903 131.233L369.788 132.326V132.378H372.995V133.698H367.55ZM377.161 133.866C376.519 133.864 375.967 133.706 375.505 133.392C375.045 133.079 374.69 132.625 374.442 132.031C374.195 131.437 374.074 130.722 374.076 129.886C374.076 129.053 374.199 128.343 374.445 127.756C374.694 127.17 375.048 126.723 375.508 126.417C375.971 126.109 376.522 125.955 377.161 125.955C377.8 125.955 378.349 126.109 378.809 126.417C379.272 126.726 379.628 127.173 379.876 127.76C380.125 128.344 380.248 129.053 380.245 129.886C380.245 130.724 380.121 131.44 379.872 132.035C379.626 132.629 379.273 133.083 378.813 133.396C378.353 133.709 377.802 133.866 377.161 133.866ZM377.161 132.527C377.598 132.527 377.948 132.307 378.209 131.867C378.47 131.427 378.599 130.766 378.597 129.886C378.597 129.307 378.537 128.824 378.418 128.439C378.301 128.054 378.134 127.764 377.918 127.57C377.704 127.376 377.452 127.279 377.161 127.279C376.726 127.279 376.377 127.497 376.116 127.932C375.855 128.367 375.723 129.018 375.721 129.886C375.721 130.473 375.779 130.963 375.896 131.356C376.016 131.746 376.184 132.04 376.4 132.236C376.616 132.43 376.87 132.527 377.161 132.527ZM382.831 132.654L382.79 133.064C382.758 133.392 382.696 133.719 382.604 134.045C382.514 134.373 382.42 134.671 382.32 134.937C382.223 135.203 382.145 135.412 382.085 135.563H381.056C381.093 135.417 381.144 135.211 381.209 134.948C381.273 134.687 381.334 134.393 381.392 134.068C381.449 133.742 381.485 133.41 381.5 133.072L381.518 132.654H382.831ZM384.269 133.698V132.534L386.988 130.017C387.22 129.793 387.414 129.592 387.57 129.412C387.729 129.233 387.85 129.058 387.932 128.887C388.014 128.712 388.055 128.525 388.055 128.323C388.055 128.1 388.004 127.907 387.902 127.745C387.8 127.581 387.661 127.455 387.484 127.368C387.308 127.279 387.108 127.234 386.884 127.234C386.65 127.234 386.446 127.281 386.272 127.376C386.098 127.47 385.964 127.606 385.869 127.782C385.775 127.959 385.728 128.169 385.728 128.413H384.195C384.195 127.913 384.308 127.479 384.534 127.111C384.76 126.743 385.077 126.458 385.485 126.257C385.893 126.056 386.363 125.955 386.895 125.955C387.442 125.955 387.918 126.052 388.324 126.246C388.732 126.437 389.049 126.703 389.275 127.044C389.501 127.385 389.614 127.775 389.614 128.215C389.614 128.504 389.557 128.788 389.443 129.069C389.331 129.35 389.131 129.662 388.842 130.006C388.554 130.346 388.147 130.755 387.622 131.233L386.507 132.326V132.378H389.715V133.698H384.269ZM393.675 133.803C393.148 133.803 392.678 133.706 392.265 133.512C391.855 133.318 391.529 133.05 391.288 132.71C391.047 132.369 390.921 131.979 390.911 131.539H392.478C392.495 131.834 392.62 132.074 392.851 132.258C393.082 132.442 393.357 132.534 393.675 132.534C393.929 132.534 394.153 132.479 394.347 132.367C394.543 132.252 394.696 132.094 394.805 131.893C394.917 131.689 394.973 131.455 394.973 131.192C394.973 130.923 394.916 130.687 394.802 130.483C394.69 130.279 394.534 130.12 394.335 130.006C394.137 129.891 393.909 129.833 393.653 129.83C393.429 129.83 393.212 129.876 393 129.968C392.791 130.06 392.628 130.186 392.512 130.345L391.075 130.088L391.437 126.059H396.107V127.38H392.769L392.571 129.293H392.616C392.75 129.104 392.953 128.947 393.224 128.823C393.495 128.699 393.798 128.637 394.134 128.637C394.594 128.637 395.004 128.745 395.365 128.961C395.726 129.178 396.01 129.475 396.219 129.853C396.428 130.228 396.531 130.661 396.529 131.151C396.531 131.665 396.412 132.123 396.171 132.523C395.932 132.921 395.597 133.234 395.167 133.463C394.74 133.69 394.242 133.803 393.675 133.803ZM400.65 133.866C400.009 133.864 399.457 133.706 398.994 133.392C398.534 133.079 398.18 132.625 397.931 132.031C397.685 131.437 397.563 130.722 397.566 129.886C397.566 129.053 397.689 128.343 397.935 127.756C398.184 127.17 398.538 126.723 398.998 126.417C399.46 126.109 400.011 125.955 400.65 125.955C401.289 125.955 401.839 126.109 402.299 126.417C402.762 126.726 403.117 127.173 403.366 127.76C403.614 128.344 403.738 129.053 403.735 129.886C403.735 130.724 403.611 131.44 403.362 132.035C403.116 132.629 402.763 133.083 402.303 133.396C401.843 133.709 401.292 133.866 400.65 133.866ZM400.65 132.527C401.088 132.527 401.437 132.307 401.698 131.867C401.96 131.427 402.089 130.766 402.086 129.886C402.086 129.307 402.027 128.824 401.907 128.439C401.79 128.054 401.624 127.764 401.408 127.57C401.194 127.376 400.941 127.279 400.65 127.279C400.215 127.279 399.867 127.497 399.606 127.932C399.345 128.367 399.213 129.018 399.211 129.886C399.211 130.473 399.269 130.963 399.386 131.356C399.505 131.746 399.673 132.04 399.889 132.236C400.106 132.43 400.359 132.527 400.65 132.527Z" fill="#0B0C10"/>
</g>
<defs>
<clipPath id="clip0_675_52616">
<rect width="424.741" height="162.806" rx="16" fill="white"/>
</clipPath>
</defs>
</svg>
