<svg width="59" height="87" viewBox="0 0 59 87" fill="none" xmlns="http://www.w3.org/2000/svg">
<path d="M12.4459 7.69827L12.139 5.71959L11.962 5.74704L11.7927 5.80546L12.4459 7.69827ZM41.048 4.04948L41.0429 2.04714L41.048 4.04948ZM12.9302 81.1127L14.2295 79.5892V79.5892L12.9302 81.1127ZM34.6693 74.3023L36.5872 74.8776L36.7094 74.4705L36.6556 74.0489L34.6693 74.3023ZM27.4144 1.63589C27.2117 0.548745 26.1662 -0.168311 25.079 0.0343025C23.9919 0.236916 23.2748 1.28247 23.4774 2.36962L25.4459 2.00276L27.4144 1.63589ZM49.9185 54.5935L50.495 56.511L50.6812 56.455L50.8532 56.3643L49.9185 54.5935ZM12.4459 7.69827L12.7529 9.67695C17.6074 8.92386 24.3777 8.01534 30.1211 7.29389C32.991 6.93339 35.5972 6.62051 37.572 6.39784C38.5602 6.28642 39.3845 6.19825 40.0022 6.13809C40.3116 6.10796 40.5624 6.08553 40.7527 6.07077C40.8478 6.06339 40.9226 6.05835 40.9787 6.05523C41.0397 6.05184 41.0598 6.05181 41.053 6.05182L41.048 4.04948L41.0429 2.04714C40.5437 2.0484 39.0384 2.20243 37.1233 2.41836C35.1267 2.64348 32.5029 2.95853 29.622 3.32042C23.8638 4.04374 17.0495 4.95781 12.139 5.71959L12.4459 7.69827ZM41.048 4.04948L41.053 6.05182C42.0641 6.04927 43.7225 6.63007 45.5118 7.95333C47.2507 9.23932 48.8745 11.056 49.882 13.1491C50.8796 15.2214 51.2568 17.5193 50.6242 19.8918C49.99 22.2704 48.2787 24.9549 44.6748 27.672L45.8803 29.2708L47.0858 30.8697C51.2161 27.7556 53.5749 24.3697 54.4938 20.9235C55.4142 17.471 54.8274 14.1895 53.4904 11.4121C52.1636 8.6557 50.0825 6.35273 47.893 4.7335C45.754 3.15154 43.2605 2.04155 41.0429 2.04714L41.048 4.04948ZM45.8803 29.2708L45.6269 27.2846L13.8469 31.3388L14.1003 33.325L14.3537 35.3113L46.1337 31.2571L45.8803 29.2708ZM14.1003 33.325L14 31.3252C12.0489 31.4231 9.9771 30.5732 8.16831 28.9514C6.36502 27.3345 4.95874 25.0616 4.34316 22.6202C3.73203 20.1964 3.91375 17.6816 5.15618 15.4533C6.39505 13.2314 8.815 11.0695 13.0991 9.59109L12.4459 7.69827L11.7927 5.80546C6.79635 7.52962 3.47914 10.2377 1.65845 13.503C-0.158657 16.762 -0.358871 20.3516 0.459994 23.5993C1.27441 26.8293 3.11004 29.7948 5.49487 31.9331C7.87422 34.0665 10.9368 35.4886 14.2006 35.3249L14.1003 33.325ZM14.1003 33.325L13.5238 31.4075C7.98629 33.0722 3.50973 38.9858 3.0313 45.1263C2.78529 48.2838 3.58628 51.5682 5.87322 54.3968C8.147 57.2092 11.7575 59.4105 16.8558 60.6911L17.3436 58.7491L17.8314 56.807C13.3367 55.678 10.5786 53.8471 8.98743 51.879C7.4094 49.9272 6.84895 47.6828 7.0239 45.4374C7.38739 40.7721 10.8823 36.3833 14.6767 35.2426L14.1003 33.325ZM17.3436 58.7491L17.597 60.7353L31.8975 58.911L31.6441 56.9247L31.3908 54.9385L17.0903 56.7628L17.3436 58.7491ZM17.3436 58.7491L16.8119 56.8186C15.0256 57.3106 13.1087 58.5418 11.444 60.1262C9.75447 61.7341 8.18288 63.8388 7.17302 66.2518C6.15906 68.6745 5.69266 71.4599 6.31708 74.349C6.94475 77.2532 8.63618 80.0824 11.6308 82.6363L12.9302 81.1127L14.2295 79.5892C11.7988 77.5163 10.6467 75.4246 10.2314 73.5031C9.81285 71.5665 10.1041 69.6213 10.8672 67.7979C11.6345 65.9646 12.8594 64.3075 14.2048 63.0271C15.575 61.7231 16.9313 60.9395 17.8754 60.6795L17.3436 58.7491ZM12.9302 81.1127L11.6308 82.6363C16.7729 87.0215 22.4582 87.285 27.1363 85.2785C31.6886 83.3259 35.2799 79.2355 36.5872 74.8776L34.6693 74.3023L32.7514 73.7269C31.792 76.9251 29.0433 80.103 25.5576 81.5981C22.1977 83.0392 18.1468 82.93 14.2295 79.5892L12.9302 81.1127ZM34.6693 74.3023L36.6556 74.0489L33.0068 45.4469L31.0205 45.7003L29.0343 45.9537L32.6831 74.5557L34.6693 74.3023ZM31.0205 45.7003C33.0155 45.529 33.0155 45.5288 33.0155 45.5286C33.0155 45.5284 33.0155 45.528 33.0154 45.5276C33.0153 45.5267 33.0152 45.5254 33.0151 45.5238C33.0148 45.5205 33.0144 45.5157 33.0138 45.5093C33.0127 45.4966 33.0111 45.4777 33.009 45.4529C33.0046 45.4032 32.9982 45.3296 32.9897 45.233C32.9726 45.0397 32.9473 44.7547 32.9138 44.3858C32.8469 43.6481 32.7477 42.575 32.618 41.2311C32.3587 38.5436 31.9778 34.7715 31.4909 30.4307C30.5182 21.7598 29.1182 10.7781 27.4144 1.63589L25.4459 2.00276L23.4774 2.36962C25.1543 11.367 26.5416 22.2341 27.5111 30.8771C27.9953 35.1932 28.3741 38.9442 28.6318 41.6157C28.7607 42.9513 28.8592 44.0167 28.9255 44.7475C28.9586 45.1129 28.9837 45.3946 29.0005 45.5847C29.0088 45.6797 29.0151 45.7518 29.0193 45.7999C29.0214 45.824 29.023 45.8421 29.024 45.854C29.0245 45.86 29.0249 45.8645 29.0252 45.8674C29.0253 45.8689 29.0254 45.8699 29.0254 45.8706C29.0255 45.871 29.0255 45.8712 29.0255 45.8714C29.0255 45.8715 29.0255 45.8715 31.0205 45.7003ZM45.8803 29.2708L45.6269 27.2846C41.2431 27.8438 36.5879 28.8155 33.2752 31.605C29.7739 34.5533 28.1668 39.1536 29.0343 45.9537L31.0205 45.7003L33.0068 45.4469C32.2526 39.5349 33.7056 36.4779 35.8547 34.6683C38.1925 32.6998 41.778 31.8128 46.1337 31.2571L45.8803 29.2708ZM31.0205 45.7003L29.054 46.0771C29.5099 48.4566 30.9011 52.2571 34.2972 54.8848C37.8037 57.5979 43.0395 58.7523 50.495 56.511L49.9185 54.5935L49.342 52.6759C42.8003 54.6425 38.9898 53.4522 36.7479 51.7175C34.3957 49.8975 33.3366 47.1474 32.9871 45.3235L31.0205 45.7003ZM49.9185 54.5935L50.8532 56.3643C53.3711 55.0353 58.1143 51.175 58.4451 42.5335L56.4442 42.4569L54.4433 42.3803C54.1778 49.3176 50.5006 52.0221 48.9838 52.8226L49.9185 54.5935ZM56.4442 42.4569L58.4451 42.5335C58.6191 37.989 56.7358 34.4488 54.2658 31.9431C51.8327 29.4747 48.7881 27.956 46.3827 27.3325L45.8803 29.2708L45.3779 31.2091C47.1478 31.6679 49.5342 32.8475 51.4138 34.7544C53.2565 36.6238 54.5675 39.1355 54.4433 42.3803L56.4442 42.4569Z" fill="#262626"/>
</svg>
