<svg width="106" height="92" viewBox="0 0 106 92" fill="none" xmlns="http://www.w3.org/2000/svg">
<path d="M9.75 1.25C13.75 1.25 12.7703 1.25 17.75 1.25C22.1082 1.25 26.75 1.24997 31.0057 1.98158" stroke="#262626" stroke-width="2.5" stroke-linecap="round" stroke-linejoin="round"/>
<path d="M1.60742 10.8718C2.20571 21.714 1.60742 27.0355 1.60742 38.6186" stroke="#262626" stroke-width="2.5" stroke-linecap="round" stroke-linejoin="round"/>
<path d="M1.25 39.287C11.6108 42.5787 21.9396 39.287 32.25 39.287" stroke="#262626" stroke-width="2.5" stroke-linecap="round" stroke-linejoin="round"/>
<path d="M31.5498 2.71295C31.5498 6.95929 31.5498 11.7861 31.5498 15.8796C31.5498 18.794 31.5498 20.9011 31.5498 23.9259C31.5498 26.7135 31.5498 30.2558 31.5498 33.0434C31.5498 34.386 31.5498 40.0185 31.5498 38.5555" stroke="#262626" stroke-width="2.5" stroke-linecap="round" stroke-linejoin="round"/>
<path d="M1.25 11.7658C1.98762 10.7908 4.04976 8.40032 5.50439 6.81142C6.29651 5.94619 9.18176 2.26282 9.18176 2.26282" stroke="#262626" stroke-width="2.5" stroke-linecap="round" stroke-linejoin="round"/>
<path d="M9.92841 3.34473C9.60148 4.37947 9.74097 5.54725 9.74097 6.62478C9.74097 7.26252 9.86431 8.03975 9.69411 8.66032C9.47218 9.46951 9.47205 10.4886 9.83469 11.2232" stroke="#262626" stroke-width="2.5" stroke-linecap="round" stroke-linejoin="round"/>
<path d="M2.80566 12.1724C3.80696 12.1536 4.80043 12.0775 5.8047 12.0775C6.47422 12.0775 7.31145 12.2126 7.96025 12.03C8.50895 11.8757 9.3554 12.1163 9.83465 11.7927" stroke="#262626" stroke-width="2.5" stroke-linecap="round" stroke-linejoin="round"/>
<path d="M45.75 1.25C49.75 1.25 48.7703 1.25 53.75 1.25C58.1082 1.25 62.75 1.24997 67.0057 1.98158" stroke="#262626" stroke-width="2.5" stroke-linecap="round" stroke-linejoin="round"/>
<path d="M37.6074 10.8718C38.2057 21.714 37.6074 27.0355 37.6074 38.6186" stroke="#262626" stroke-width="2.5" stroke-linecap="round" stroke-linejoin="round"/>
<path d="M37.25 39.287C47.6108 42.5787 57.9396 39.287 68.25 39.287" stroke="#262626" stroke-width="2.5" stroke-linecap="round" stroke-linejoin="round"/>
<path d="M67.5498 2.71295C67.5498 6.95929 67.5498 11.7861 67.5498 15.8796C67.5498 18.794 67.5498 20.9011 67.5498 23.9259C67.5498 26.7135 67.5498 30.2558 67.5498 33.0434C67.5498 34.386 67.5498 40.0185 67.5498 38.5555" stroke="#262626" stroke-width="2.5" stroke-linecap="round" stroke-linejoin="round"/>
<path d="M37.25 11.7658C37.9876 10.7908 40.0498 8.40032 41.5044 6.81142C42.2965 5.94619 45.1818 2.26282 45.1818 2.26282" stroke="#262626" stroke-width="2.5" stroke-linecap="round" stroke-linejoin="round"/>
<path d="M45.9284 3.34473C45.6015 4.37947 45.741 5.54725 45.741 6.62478C45.741 7.26252 45.8643 8.03975 45.6941 8.66032C45.4722 9.46951 45.472 10.4886 45.8347 11.2232" stroke="#262626" stroke-width="2.5" stroke-linecap="round" stroke-linejoin="round"/>
<path d="M38.8057 12.1724C39.807 12.1536 40.8004 12.0775 41.8047 12.0775C42.4742 12.0775 43.3115 12.2126 43.9602 12.03C44.509 11.8757 45.3554 12.1163 45.8346 11.7927" stroke="#262626" stroke-width="2.5" stroke-linecap="round" stroke-linejoin="round"/>
<path d="M81.75 1.25C85.75 1.25 84.7703 1.25 89.75 1.25C94.1082 1.25 98.75 1.24997 103.006 1.98158" stroke="#262626" stroke-width="2.5" stroke-linecap="round" stroke-linejoin="round"/>
<path d="M73.6074 10.8718C74.2057 21.714 73.6074 27.0355 73.6074 38.6186" stroke="#262626" stroke-width="2.5" stroke-linecap="round" stroke-linejoin="round"/>
<path d="M73.25 39.287C83.6108 42.5787 93.9396 39.287 104.25 39.287" stroke="#262626" stroke-width="2.5" stroke-linecap="round" stroke-linejoin="round"/>
<path d="M103.55 2.71295C103.55 6.95929 103.55 11.7861 103.55 15.8796C103.55 18.794 103.55 20.9011 103.55 23.9259C103.55 26.7135 103.55 30.2558 103.55 33.0434C103.55 34.386 103.55 40.0185 103.55 38.5555" stroke="#262626" stroke-width="2.5" stroke-linecap="round" stroke-linejoin="round"/>
<path d="M73.25 11.7658C73.9876 10.7908 76.0498 8.40032 77.5044 6.81142C78.2965 5.94619 81.1818 2.26282 81.1818 2.26282" stroke="#262626" stroke-width="2.5" stroke-linecap="round" stroke-linejoin="round"/>
<path d="M81.9284 3.34473C81.6015 4.37947 81.741 5.54725 81.741 6.62478C81.741 7.26252 81.8643 8.03975 81.6941 8.66032C81.4722 9.46951 81.472 10.4886 81.8347 11.2232" stroke="#262626" stroke-width="2.5" stroke-linecap="round" stroke-linejoin="round"/>
<path d="M74.8057 12.1724C75.807 12.1536 76.8004 12.0775 77.8047 12.0775C78.4742 12.0775 79.3115 12.2126 79.9602 12.03C80.509 11.8757 81.3554 12.1163 81.8346 11.7927" stroke="#262626" stroke-width="2.5" stroke-linecap="round" stroke-linejoin="round"/>
<path d="M9.75 47.75C13.75 47.75 12.7703 47.75 17.75 47.75C22.1082 47.75 26.75 47.75 31.0057 48.4816" stroke="#262626" stroke-width="2.5" stroke-linecap="round" stroke-linejoin="round"/>
<path d="M1.60742 57.3718C2.20571 68.214 1.60742 73.5355 1.60742 85.1186" stroke="#262626" stroke-width="2.5" stroke-linecap="round" stroke-linejoin="round"/>
<path d="M1.25 85.787C11.6108 89.0787 21.9396 85.787 32.25 85.787" stroke="#262626" stroke-width="2.5" stroke-linecap="round" stroke-linejoin="round"/>
<path d="M31.5498 49.213C31.5498 53.4593 31.5498 58.2861 31.5498 62.3796C31.5498 65.294 31.5498 67.4011 31.5498 70.4259C31.5498 73.2135 31.5498 76.7558 31.5498 79.5434C31.5498 80.886 31.5498 86.5185 31.5498 85.0555" stroke="#262626" stroke-width="2.5" stroke-linecap="round" stroke-linejoin="round"/>
<path d="M1.25 58.2658C1.98762 57.2908 4.04976 54.9003 5.50439 53.3114C6.29651 52.4462 9.18176 48.7628 9.18176 48.7628" stroke="#262626" stroke-width="2.5" stroke-linecap="round" stroke-linejoin="round"/>
<path d="M9.92841 49.8447C9.60148 50.8795 9.74097 52.0472 9.74097 53.1248C9.74097 53.7625 9.86431 54.5397 9.69411 55.1603C9.47218 55.9695 9.47205 56.9886 9.83469 57.7232" stroke="#262626" stroke-width="2.5" stroke-linecap="round" stroke-linejoin="round"/>
<path d="M2.80566 58.6724C3.80696 58.6536 4.80043 58.5775 5.8047 58.5775C6.47422 58.5775 7.31145 58.7126 7.96025 58.53C8.50895 58.3757 9.3554 58.6163 9.83465 58.2927" stroke="#262626" stroke-width="2.5" stroke-linecap="round" stroke-linejoin="round"/>
<path d="M49.3242 50.2609C53.3118 50.5753 52.3352 50.4983 57.2995 50.8897C61.6442 51.2322 66.2716 51.597 70.4567 52.6608" stroke="#262626" stroke-width="2.5" stroke-linecap="round" stroke-linejoin="round"/>
<path d="M40.4502 59.213C40.1945 70.0687 39.1798 75.3267 38.2695 86.874" stroke="#262626" stroke-width="2.5" stroke-linecap="round" stroke-linejoin="round"/>
<path d="M37.8613 87.5123C47.9314 91.608 58.4869 89.1383 68.7654 89.9486" stroke="#262626" stroke-width="2.5" stroke-linecap="round" stroke-linejoin="round"/>
<path d="M70.9424 53.4327C70.6087 57.6659 70.2293 62.4778 69.9076 66.5586C69.6786 69.464 69.5129 71.5646 69.2752 74.58C69.0561 77.359 68.7777 80.8903 68.5586 83.6693C68.4531 85.0077 68.0105 90.6228 68.1254 89.1644" stroke="#262626" stroke-width="2.5" stroke-linecap="round" stroke-linejoin="round"/>
<path d="M40.0236 60.0762C40.8356 59.1622 43.0792 56.9412 44.6543 55.4715C45.5119 54.6712 48.6777 51.226 48.6777 51.226" stroke="#262626" stroke-width="2.5" stroke-linecap="round" stroke-linejoin="round"/>
<path d="M49.3374 52.3632C48.9301 53.369 48.9774 54.5442 48.8927 55.6184C48.8426 56.2541 48.9045 57.0387 48.686 57.6439C48.4012 58.4332 48.321 59.4491 48.6248 60.2099" stroke="#262626" stroke-width="2.5" stroke-linecap="round" stroke-linejoin="round"/>
<path d="M41.5424 60.6038C42.5421 60.6638 43.5385 60.6659 44.5396 60.7449C45.2071 60.7975 46.0311 60.9979 46.6923 60.867C47.2514 60.7562 48.0763 61.0626 48.5795 60.7777" stroke="#262626" stroke-width="2.5" stroke-linecap="round" stroke-linejoin="round"/>
</svg>
