<svg width="439" height="153" viewBox="0 0 439 153" fill="none" xmlns="http://www.w3.org/2000/svg">
<path d="M21.0259 139.45C20.5157 139.366 19.91 139.222 19.2089 139.018C18.5147 138.844 17.8274 138.554 17.1471 138.148C16.4668 137.742 15.8871 137.199 15.408 136.519C14.8943 135.682 14.4777 134.841 14.1583 133.994C13.8701 133.14 13.6131 132.132 13.3874 130.969C13.0263 129.345 12.8231 127.915 12.7779 126.679C12.7569 125.405 12.8574 124.088 13.0794 122.728C13.1211 122.62 13.1714 122.33 13.2303 121.858C13.3136 121.348 13.4055 120.803 13.5061 120.223C13.6379 119.637 13.7351 119.189 13.7975 118.88C13.9294 118.293 14.148 117.507 14.4533 116.521C14.7829 115.498 15.1507 114.498 15.5567 113.523C16.164 111.978 16.6862 110.714 17.1235 109.732C17.5538 108.719 17.9841 107.853 18.4144 107.134C18.8759 106.409 19.3878 105.688 19.95 104.973C20.5435 104.251 21.2914 103.413 22.1937 102.458C22.7698 101.806 23.575 101.299 24.6093 100.938C25.6748 100.57 26.7751 100.506 27.9101 100.745C29.0382 100.953 29.991 101.626 30.7686 102.765C31.258 103.344 31.5982 104.137 31.7892 105.144C31.9733 106.119 32.0185 107.207 31.9249 108.408C31.8244 109.578 31.6163 110.706 31.3005 111.792C30.9848 112.879 30.5649 113.792 30.0408 114.531C29.7181 114.996 29.1853 115.18 28.4426 115.083C27.731 114.979 27.1114 114.773 26.5838 114.464C26.1846 113.995 25.959 113.718 25.9069 113.631C25.8861 113.537 25.9347 113.461 26.0527 113.402C26.1915 113.141 26.3581 112.711 26.5524 112.111C26.7467 111.51 26.934 110.878 27.1145 110.215C27.2879 109.521 27.3955 108.973 27.4371 108.57C27.3953 107.203 27.3761 106.305 27.3796 105.878C27.376 105.42 27.2025 105.082 26.8588 104.863C26.7061 104.766 26.5083 104.761 26.2653 104.848C26.0536 104.928 25.7135 105.167 25.2449 105.566C24.5959 106.038 23.8793 106.87 23.095 108.06C22.335 109.213 21.6166 110.553 20.9399 112.08C20.0585 114.013 19.3385 115.714 18.7798 117.182C18.2211 118.65 17.8725 120.105 17.7338 121.545C17.6991 121.684 17.6418 121.943 17.562 122.321C17.5135 122.692 17.4892 122.878 17.4892 122.878C17.5482 122.996 17.5708 123.319 17.557 123.846C17.5362 124.343 17.4859 124.78 17.4061 125.158C17.382 126.672 17.488 128.107 17.7241 129.464C17.9534 130.79 18.2884 131.928 18.7293 132.879C19.1945 133.792 19.7135 134.431 20.2862 134.795C20.7548 134.986 21.291 134.965 21.8949 134.732C22.4988 134.5 23.1687 134.121 23.9045 133.597C24.6402 133.073 25.4316 132.504 26.2784 131.889C26.9586 131.41 27.5695 130.914 28.1109 130.4C28.6523 129.886 29.0479 129.454 29.2978 129.104C29.506 128.861 29.7767 128.604 30.1099 128.333C30.4674 128.024 30.7867 127.838 31.0678 127.776C31.4704 127.523 31.8262 127.575 32.1351 127.932C32.4441 128.289 32.668 128.781 32.8069 129.405C32.9041 129.843 32.7098 130.443 32.224 131.207C31.7381 131.97 31.1689 132.654 30.5165 133.258C30.3221 133.564 30.0306 133.874 29.6419 134.19C29.2775 134.468 28.894 134.734 28.4914 134.987C27.9465 135.633 27.242 136.297 26.3778 136.981C25.5136 137.665 24.6095 138.243 23.6655 138.715C22.7527 139.18 21.8728 139.425 21.0259 139.45ZM38.4301 130.466C38.2184 130.546 37.9512 130.524 37.6284 130.399C37.3299 130.236 37.0539 130.1 36.8005 129.993C36.4048 129.687 36.1132 129.408 35.9258 129.154C35.7383 128.901 35.6064 128.603 35.53 128.259C35.4536 127.915 35.3946 127.502 35.3529 127.02C35.3979 126.485 35.436 125.772 35.4672 124.88C35.4983 123.988 35.5625 123.023 35.6595 121.985C35.6387 121.597 35.6508 121.135 35.6958 120.6C35.7652 120.028 35.8415 119.486 35.9248 118.976C36.0011 118.435 36.0583 118.029 36.0965 117.758C36.1415 116.928 36.1935 116.13 36.2524 115.363C36.3426 114.589 36.4553 113.695 36.5906 112.682C36.7258 111.668 36.8836 110.387 37.064 108.839C37.3345 106.812 37.5374 105.292 37.6726 104.278C37.8079 103.265 37.9085 102.538 37.9744 102.097C38.0403 101.656 38.0767 101.304 38.0836 101.04C38.0281 100.79 38.1478 100.518 38.4428 100.223C38.7621 99.8894 39.0623 99.6915 39.3434 99.629C39.7877 99.563 40.2684 99.7348 40.7856 100.144C41.2959 100.523 41.7055 101.038 42.0145 101.69C42.3165 102.312 42.3495 102.976 42.1136 103.684C41.8638 104.92 41.6453 106.296 41.458 107.813C41.295 109.292 41.132 110.77 40.969 112.249C40.8061 113.728 40.6188 115.097 40.4072 116.357C40.4106 116.52 40.3603 116.81 40.2563 117.226C40.1834 117.636 40.1123 117.98 40.0429 118.257C39.9735 118.535 39.9007 118.797 39.8243 119.043C39.7792 119.283 39.7567 119.403 39.7567 119.403C39.7671 119.597 39.7637 119.876 39.7463 120.241C39.729 120.605 39.7013 120.923 39.6631 121.194C39.6666 121.357 39.6649 121.57 39.658 121.834C39.6511 122.098 39.6598 122.358 39.6841 122.615C39.7986 122.393 39.9687 122.126 40.1942 121.813C40.4129 121.469 40.6957 121.046 41.0427 120.543C41.4453 119.994 41.7993 119.522 42.1047 119.126C42.4101 118.731 42.7224 118.366 43.0417 118.033C43.3298 117.707 43.5901 117.403 43.8226 117.122C44.0863 116.834 44.2182 116.69 44.2182 116.69C44.2599 116.582 44.298 116.459 44.3327 116.32C44.3987 116.174 44.475 116.075 44.5618 116.023C44.6104 115.947 44.7023 115.844 44.8377 115.716C44.9661 115.556 45.0945 115.397 45.2229 115.237C45.4624 114.987 45.7244 114.765 46.009 114.571C46.2936 114.376 46.6007 114.21 46.9305 114.071C47.2602 113.932 47.5812 113.828 47.8936 113.758C48.2685 113.675 48.6936 113.744 49.1692 113.966C49.6378 114.157 50.1029 114.48 50.5646 114.935C50.9672 115.271 51.2623 115.714 51.4498 116.262C51.6616 116.772 51.8369 117.487 51.9758 118.407C52.0314 118.657 52.0575 119.143 52.0541 119.865C52.0819 120.58 52.1028 121.116 52.1167 121.474L52.0492 123.16L52.424 123.077C52.7399 122.876 53.0644 122.787 53.3976 122.811C53.762 122.829 53.9443 122.837 53.9443 122.837C54.1213 122.896 54.2862 122.974 54.4389 123.072C54.6229 123.162 54.7843 123.224 54.9231 123.259C55.1661 123.467 55.2147 123.833 55.069 124.358C54.9233 124.882 54.715 125.272 54.4443 125.529C53.8058 126.195 53.2036 126.657 52.6379 126.914C52.1034 127.164 51.4856 127.187 50.7844 126.982C50.1006 126.708 49.5869 126.314 49.2432 125.8C48.9308 125.28 48.6826 124.532 48.4985 123.556C48.3179 122.154 48.1772 121.153 48.0765 120.552C47.9688 119.921 47.7432 119.643 47.3996 119.719C47.0247 119.803 46.551 120.105 45.9784 120.625C45.43 121.108 44.8348 121.748 44.1928 122.547C43.5438 123.314 42.9122 124.159 42.2979 125.082C41.708 125.968 41.1996 126.851 40.7727 127.733C40.5021 128.285 40.2001 128.843 39.867 129.409C39.5269 129.944 39.048 130.296 38.4301 130.466ZM67.9802 124.782C67.1612 125.521 66.231 126.056 65.1898 126.385C64.1729 126.677 63.1732 126.752 62.191 126.61C61.2018 126.436 60.3461 126.053 59.6241 125.459C59.2215 125.123 58.7824 124.548 58.3068 123.736C57.8242 122.893 57.5065 121.685 57.3536 120.113C57.2216 118.634 57.336 117.084 57.6968 115.463C58.0889 113.835 58.6753 112.345 59.4561 110.991C60.2369 109.637 61.1913 108.622 62.3193 107.945C62.7219 107.691 63.1349 107.485 63.5583 107.325C64.0061 107.127 64.6117 106.976 65.3753 106.872C66.1146 106.806 66.7966 106.851 67.4214 107.007C68.0392 107.132 68.5078 107.323 68.8272 107.58C69.4381 107.968 69.8737 108.38 70.1341 108.814C70.3944 109.247 70.5576 109.686 70.6236 110.131C70.6897 111.165 70.4763 112.343 69.9836 113.666C69.5221 114.981 68.6978 116.066 67.5109 116.92C67.0285 117.257 66.435 117.536 65.7304 117.758C65.0258 117.981 64.021 118.106 62.716 118.134C61.9316 118.144 61.4491 118.333 61.2687 118.701C61.1195 119.062 61.1612 119.692 61.3938 120.591C61.5813 121.139 61.8174 121.612 62.102 122.007C62.411 122.365 62.8639 122.559 63.4609 122.59C64.2072 122.555 64.726 122.456 65.0176 122.293C65.3022 122.099 65.6544 121.84 66.0744 121.517C66.2896 121.306 66.4857 121.082 66.6626 120.846C66.8709 120.603 67.0635 120.363 67.2405 120.127C67.4487 119.884 67.6205 119.698 67.7558 119.57C67.8843 119.41 68.0231 119.298 68.1723 119.232C68.3216 119.166 68.4743 119.115 68.6305 119.081C68.981 119.035 69.3507 119.15 69.7394 119.424C70.1282 119.698 70.4042 119.981 70.5673 120.273C70.6229 120.523 70.5466 120.916 70.3384 121.454C70.1232 121.961 69.8057 122.524 69.3858 123.141C68.9902 123.721 68.5216 124.268 67.9802 124.782ZM65.048 114.468C65.2459 114.326 65.5096 114.038 65.8393 113.604C66.2003 113.163 66.5109 112.717 66.7711 112.266C67.0245 111.783 67.1268 111.433 67.0782 111.214C67.0018 110.87 66.7015 110.626 66.1774 110.48C65.6845 110.327 65.0962 110.409 64.4125 110.725C64.1765 110.843 63.9179 111.081 63.6368 111.438C63.3557 111.796 63.085 112.2 62.8248 112.651C62.5575 113.071 62.3372 113.481 62.1637 113.88C61.9832 114.248 61.867 114.536 61.8149 114.744C61.9746 114.873 62.2523 114.942 62.648 114.953C63.0437 114.963 63.4602 114.919 63.8975 114.822C64.366 114.718 64.7496 114.6 65.048 114.468ZM78.8345 122.958C78.1473 123.111 77.6249 123.195 77.2674 123.208C76.9412 123.215 76.6861 123.174 76.5021 123.084C76.3181 122.993 76.0769 122.867 75.7784 122.704C75.5979 122.482 75.3098 122.218 74.9141 121.912C74.5114 121.576 74.2337 121.359 74.081 121.262C73.8519 120.821 73.6626 120.191 73.5133 119.372C73.3952 118.546 73.3413 117.64 73.3516 116.654C73.3619 115.668 73.44 114.766 73.5856 113.947C73.655 113.669 73.7088 113.395 73.747 113.124C73.7851 112.853 73.8042 112.718 73.8042 112.718C73.7695 112.562 73.8736 112.145 74.1164 111.469C74.3906 110.785 74.689 110.063 75.0117 109.303C75.3657 108.535 75.6676 107.977 75.9175 107.626C76.0806 107.328 76.3495 106.989 76.7243 106.611C77.1304 106.225 77.4913 105.932 77.8072 105.731C78.123 105.529 78.5568 105.269 79.1087 104.95C79.6536 104.599 80.1603 104.372 80.6289 104.268C81.0662 104.17 81.5556 104.16 82.097 104.236C82.6385 104.312 83.1331 104.547 83.5809 104.939C84.2682 105.376 84.7767 105.968 85.1065 106.714C85.4364 107.46 85.6013 108.128 85.6013 108.718C85.5841 109.378 85.3863 109.963 85.008 110.473C84.6228 110.952 84.1681 111.266 83.644 111.416C83.113 111.534 82.5958 111.419 82.0925 111.072C81.912 110.85 81.8044 110.661 81.7697 110.505C81.728 110.317 81.7314 110.038 81.78 109.666C81.8077 109.201 81.7834 108.797 81.707 108.453C81.6306 108.11 81.4518 107.969 81.1707 108.032C80.7646 108.122 80.4644 108.32 80.2701 108.625C80.0688 108.899 79.7773 109.358 79.3955 110C79.2324 110.298 79.0312 110.72 78.7917 111.265C78.5523 111.81 78.3233 112.402 78.1047 113.04C77.9103 113.641 77.7507 114.25 77.6259 114.868C77.5114 115.975 77.4421 116.695 77.4178 117.029C77.4178 117.324 77.4179 117.471 77.4179 117.471C77.4456 117.596 77.4578 117.724 77.4543 117.856C77.4439 117.957 77.4526 118.07 77.4804 118.195C77.5637 118.57 77.8484 118.818 78.3343 118.939C78.7265 119.081 79.032 119.128 79.2506 119.08C79.4936 118.993 79.924 118.717 80.5417 118.252C80.986 117.891 81.3816 117.459 81.7286 116.955C82.1069 116.445 82.5112 115.978 82.9416 115.555C83.2366 115.26 83.4604 115.013 83.6131 114.815C83.7971 114.61 83.9029 114.571 83.9307 114.695C83.9585 114.82 84.0192 114.872 84.1129 114.852C84.2067 114.831 84.3021 114.744 84.3993 114.591C84.5311 114.3 84.7446 114.154 85.0396 114.154C85.3277 114.123 85.5949 114.145 85.8414 114.222C86.1191 114.291 86.2683 114.372 86.2891 114.466C86.2892 114.761 86.4037 114.982 86.6328 115.127C86.6606 115.252 86.652 115.435 86.6069 115.674C86.586 115.875 86.5271 116.052 86.4299 116.205C86.3223 116.458 86.1575 116.823 85.9354 117.298C85.7445 117.767 85.5589 118.185 85.3784 118.553C85.198 118.921 85.1078 119.105 85.1078 119.105C84.9759 119.102 84.8579 119.161 84.7538 119.282C84.6809 119.397 84.5959 119.53 84.4987 119.683C84.2974 119.957 84.1013 120.181 83.9104 120.355C83.7126 120.497 83.5512 120.582 83.4263 120.61C83.2354 120.783 83.0809 120.9 82.9629 120.959C82.8762 121.011 82.8467 121.099 82.8745 121.224C82.6315 121.606 82.1179 121.95 81.3335 122.255C80.5422 122.53 79.7092 122.764 78.8345 122.958ZM101.368 118.735C101.215 118.638 100.993 118.524 100.702 118.392C100.403 118.229 100.167 118.052 99.9934 117.861C99.9101 117.781 99.7157 117.644 99.4103 117.45C99.0978 117.224 98.7889 117.014 98.4835 116.82C98.1711 116.594 97.9611 116.461 97.8535 116.419C97.7563 116.277 97.6087 116.129 97.4109 115.976C97.2061 115.793 96.9857 115.612 96.7496 115.435C96.5066 115.227 96.2359 115.041 95.9374 114.878C95.4896 114.486 95.1286 114.189 94.8544 113.988C94.6114 113.78 94.4274 113.689 94.3025 113.717C94.3025 113.717 94.2747 114.035 94.2193 114.67C94.1568 115.274 94.0996 115.975 94.0477 116.773C93.9887 117.54 93.9333 118.176 93.8812 118.679C93.8049 118.925 93.7182 119.125 93.621 119.278C93.5238 119.43 93.4197 119.552 93.3086 119.642C93.2288 119.725 93.1299 119.797 93.0119 119.856C92.887 119.883 92.762 119.911 92.6371 119.939C92.2934 120.015 91.8214 119.956 91.2209 119.762C90.6204 119.568 90.2542 119.174 90.1223 118.58C89.9001 118.171 89.8445 117.183 89.9554 115.618C90.0663 114.053 90.3212 112.029 90.7201 109.547C90.7409 109.051 90.7894 108.532 90.8657 107.991C90.9351 107.418 90.994 106.946 91.0426 106.574C91.1709 104.94 91.3738 103.419 91.6513 102.014C91.9219 100.577 92.2237 98.9852 92.5567 97.2393C92.7128 96.6146 92.8256 96.1633 92.895 95.8857C92.9574 95.5767 93.0355 95.2644 93.1292 94.9485C93.2159 94.6014 93.3495 94.0964 93.5299 93.4334C93.9324 91.9999 94.2568 90.8788 94.5032 90.07C94.7495 89.2613 94.9438 88.6608 95.0861 88.2686C95.2284 87.8764 95.3602 87.5848 95.4817 87.3939C95.6032 87.203 95.8288 87.0381 96.1585 86.8992C96.4882 86.7603 96.8318 86.6839 97.1893 86.67C97.5711 86.6179 97.8609 86.6682 98.0588 86.8209C98.3642 87.0153 98.6072 87.2235 98.7877 87.4456C98.9613 87.6365 99.0307 87.9489 98.9961 88.3827C98.9857 88.7784 98.833 89.4188 98.5381 90.3039C98.4132 90.9217 98.3005 91.373 98.1998 91.6576C98.0992 91.9422 97.9986 92.2268 97.8979 92.5115C97.7973 92.7961 97.6447 93.289 97.4399 93.9901C97.4365 94.122 97.4053 94.2765 97.3463 94.4535C97.3116 94.5923 97.2613 94.7346 97.1953 94.8804C97.1225 94.995 97.0392 95.0627 96.9454 95.0835C96.9663 95.1772 96.9611 95.375 96.9299 95.677C96.8987 95.979 96.8484 96.2688 96.779 96.5465C96.7617 96.9109 96.6888 97.3205 96.5604 97.7752C96.4564 98.1917 96.3852 98.5353 96.3471 98.8061C96.2291 99.4551 96.0453 100.25 95.7954 101.191C95.5699 102.093 95.4659 102.805 95.4833 103.325C95.4972 103.388 95.5475 103.393 95.6343 103.341C95.7141 103.258 95.8061 103.155 95.9102 103.034C96.0386 102.874 96.1583 102.749 96.2694 102.659C96.8628 101.937 97.5101 101.236 98.2111 100.555C98.9434 99.8679 99.5803 99.4149 100.122 99.1962C100.413 99.033 100.684 98.9237 100.934 98.8681C101.177 98.7813 101.411 98.7292 101.637 98.7118C101.862 98.6945 102.095 98.7083 102.334 98.7534C102.727 98.8957 103.129 99.2323 103.542 99.7633C103.955 100.294 104.29 100.843 104.547 101.408C104.61 101.69 104.584 102.236 104.469 103.048C104.379 103.822 104.227 104.61 104.011 105.412C103.821 106.176 103.597 106.717 103.34 107.037C103.198 107.134 103.071 107.228 102.96 107.318C102.88 107.401 102.816 107.481 102.767 107.557C102.743 107.595 102.731 107.615 102.731 107.615C102.759 107.74 102.731 107.91 102.648 108.125C102.596 108.333 102.459 108.527 102.236 108.708C102.139 108.861 102.033 109.048 101.919 109.27C101.804 109.492 101.758 109.65 101.778 109.744C101.778 109.744 101.789 109.791 101.81 109.885C101.824 109.947 101.83 109.978 101.83 109.978C101.706 110.006 101.6 110.046 101.513 110.098C101.45 110.112 101.275 110.282 100.987 110.608C100.72 111.028 100.512 111.271 100.362 111.337C100.244 111.396 100.071 111.5 99.8418 111.65C99.7446 111.802 99.6058 111.915 99.4253 111.988C99.2761 112.054 99.2154 112.15 99.2431 112.275C99.2709 112.4 99.448 112.606 99.7742 112.894C100.101 113.182 100.481 113.491 100.915 113.821C101.38 114.143 101.822 114.438 102.242 114.706C102.662 114.973 102.98 115.148 103.195 115.231C103.435 115.276 103.629 115.414 103.778 115.643C103.927 115.872 104.033 116.127 104.096 116.408C104.19 116.682 104.233 116.951 104.226 117.215C104.25 117.472 104.245 117.67 104.211 117.808C104.162 117.885 103.961 118.011 103.607 118.189C103.291 118.39 102.918 118.555 102.487 118.683C102.088 118.805 101.715 118.822 101.368 118.735ZM96.6606 110.39C96.789 110.23 97.0181 109.934 97.3478 109.5C97.7087 109.059 98.0939 108.58 98.5034 108.063C98.906 107.514 99.2652 106.992 99.581 106.496C99.928 105.992 100.171 105.61 100.31 105.35C100.48 105.083 100.634 104.671 100.773 104.116C100.912 103.561 100.868 103.144 100.643 102.867C100.584 102.749 100.367 102.879 99.992 103.257C99.6171 103.635 99.1243 104.073 98.5135 104.569C98.0519 105 97.5383 105.491 96.9726 106.043C96.4312 106.557 95.9314 107.11 95.4733 107.704C95.0083 108.266 94.6786 108.848 94.4843 109.448C94.4704 109.681 94.5884 109.917 94.8384 110.156C95.0883 110.395 95.3868 110.559 95.7339 110.645C96.0741 110.701 96.383 110.616 96.6606 110.39ZM124.92 112.712C124.292 112.983 123.785 113.063 123.4 112.952C123.039 112.803 122.652 112.61 122.239 112.374C121.684 112.235 121.154 111.993 120.651 111.645C120.141 111.267 119.721 110.852 119.391 110.401C119.061 109.95 118.881 109.58 118.849 109.292C118.7 108.178 118.686 106.936 118.807 105.565C118.96 104.187 119.229 102.816 119.614 101.452C120.03 100.081 120.556 98.8327 121.191 97.7081C121.85 96.5453 122.631 95.6341 123.534 94.9745C124.103 94.5857 124.754 94.3427 125.486 94.2455C126.218 94.1482 126.768 94.3373 127.136 94.8128C127.806 95.6145 127.826 96.2167 127.194 96.6194C127.1 96.6402 127.001 96.7114 126.897 96.8329C126.786 96.9231 126.744 97.0307 126.772 97.1557C126.911 97.1904 127.258 97.1296 127.813 96.9733C128.362 96.7859 128.903 96.5671 129.438 96.3172C129.997 96.029 130.352 95.786 130.505 95.5882C130.672 95.4528 130.802 95.3747 130.895 95.3539C130.989 95.333 131.23 95.3122 131.619 95.2913C132.185 95.3294 132.492 95.4578 132.541 95.6765C132.568 95.8014 132.66 95.9941 132.817 96.2544C132.966 96.4834 133.103 96.5841 133.228 96.5563C133.454 96.5389 133.549 96.7472 133.514 97.181C133.511 97.608 133.245 98.1095 132.718 98.6857C132.208 99.1925 131.889 99.5258 131.76 99.6855C131.656 99.8069 131.689 100.029 131.859 100.352C132.241 100.89 132.385 101.612 132.291 102.518C132.198 103.424 131.924 104.402 131.469 105.454C131.015 106.506 130.425 107.538 129.699 108.552C128.998 109.527 128.226 110.404 127.383 111.181C126.564 111.921 125.743 112.431 124.92 112.712ZM124.186 108.745C124.311 108.717 124.516 108.606 124.8 108.412C125.078 108.186 125.3 108.006 125.466 107.87C125.564 107.718 125.689 107.542 125.841 107.345C126.018 107.109 126.166 106.961 126.284 106.902C126.409 106.874 126.476 106.81 126.487 106.709C126.49 106.577 126.547 106.319 126.659 105.934C126.763 105.517 127.016 104.887 127.418 104.044C127.89 103.217 128.175 102.581 128.272 102.133C128.362 101.654 128.274 101.182 128.006 100.717C127.947 100.599 127.836 100.541 127.673 100.545C127.541 100.541 127.352 100.502 127.106 100.425C126.793 100.495 126.592 100.621 126.502 100.805C126.436 100.951 126.2 100.922 125.794 100.717L124.836 99.9465L124.216 100.92C123.828 101.531 123.514 102.256 123.274 103.096C123.066 103.929 122.939 104.761 122.894 105.59C122.849 106.42 122.861 107.138 122.931 107.746C123.004 108.221 123.151 108.516 123.374 108.631C123.596 108.745 123.866 108.783 124.186 108.745ZM140.444 107.933C139.732 107.534 139.095 107.102 138.533 106.637C137.964 106.141 137.465 105.301 137.038 104.118C136.851 103.569 136.74 102.774 136.705 101.733C136.67 100.692 136.719 99.5829 136.85 98.4062C136.975 97.1983 137.152 96.0772 137.381 95.0429C137.61 94.0085 137.895 93.2241 138.235 92.6895C138.505 92.1376 138.891 91.6586 139.39 91.2525C139.921 90.8394 140.531 90.704 141.218 90.8462C141.652 91.1759 141.948 91.7 142.108 92.4184C142.292 93.0987 142.263 93.7773 142.02 94.4541C141.583 95.4364 141.272 96.62 141.088 98.0049C140.929 99.3516 140.882 100.542 140.948 101.576C140.889 102.344 140.92 102.927 141.042 103.326C141.157 103.694 141.427 103.879 141.854 103.883C142.482 103.907 143.053 103.6 143.567 102.961C144.112 102.315 144.573 101.442 144.952 100.342C145.361 99.2349 145.661 98.0045 145.852 96.6508C145.942 96.1718 145.968 95.6251 145.93 95.0108C145.923 94.3895 145.951 93.9244 146.013 93.6155C146.03 92.956 146.188 92.4128 146.487 91.9859C146.809 91.5207 147.179 91.1927 147.596 91.0018C148.012 90.8108 148.35 90.7848 148.611 90.9236C148.92 90.986 149.262 91.1231 149.636 91.3348C150.011 91.5464 150.247 92.0185 150.345 92.7508C150.602 93.9066 150.571 94.9461 150.251 95.8694C149.932 96.7927 149.701 97.7455 149.559 98.7278C149.424 99.4462 149.141 100.312 148.711 101.326C148.28 102.339 147.786 103.285 147.227 104.163C146.7 105.035 146.167 105.661 145.629 106.043C144.879 106.8 144.066 107.341 143.187 107.668C142.302 107.963 141.388 108.051 140.444 107.933ZM158.208 105.754C157.85 105.768 157.43 105.648 156.948 105.395C156.458 105.111 155.993 104.788 155.552 104.427C155.136 104.028 154.846 103.682 154.683 103.391C154.669 103.328 154.605 103.261 154.49 103.188C154.407 103.108 154.365 103.068 154.365 103.068C154.219 103.002 154.051 102.613 153.86 101.902C153.693 101.152 153.556 100.314 153.449 99.3874C153.341 98.4606 153.291 97.7179 153.297 97.1591C153.342 96.6245 153.427 95.9009 153.552 94.988C153.67 94.0439 153.762 93.2039 153.828 92.4681L154.489 89.4692L152.5 89.3705C152.267 89.3566 152.052 89.2733 151.854 89.1206C151.688 88.961 151.591 88.8187 151.563 88.6937C151.507 88.4438 151.568 88.0534 151.745 87.5223C151.922 86.9912 152.073 86.7118 152.198 86.684C152.361 86.6805 152.646 86.6337 153.052 86.5434C153.489 86.4462 153.907 86.3368 154.306 86.2153C154.705 86.0937 154.948 86.0069 155.035 85.9549C155.146 85.8646 155.254 85.7587 155.358 85.6372C155.455 85.4845 155.511 85.2919 155.525 85.0593C155.604 84.681 155.686 84.3842 155.769 84.169C155.852 83.9538 155.962 83.6345 156.097 83.211C156.225 82.7563 156.321 82.3745 156.383 82.0656C156.477 81.7497 156.624 81.3072 156.826 80.7379C156.933 80.4846 157.046 80.1808 157.164 79.8268C157.282 79.4728 157.457 79.1552 157.69 78.874C157.915 78.5616 158.33 78.2891 158.934 78.0565C159.562 77.7857 160.156 77.8012 160.715 78.1032C161.034 78.36 161.24 78.6255 161.334 78.8997C161.428 79.1739 161.383 79.5609 161.199 80.0607C161.067 80.6473 160.878 81.1974 160.632 81.7112C160.409 82.1867 160.217 82.7212 160.054 83.3148C159.707 84.1131 159.7 84.5244 160.033 84.5487C160.366 84.5729 161.227 84.316 162.615 83.7779C163.487 83.4203 164.163 83.3682 164.646 83.6215C165.128 83.8748 165.46 84.26 165.64 84.7772C165.901 85.506 165.923 85.9764 165.708 86.1881C165.493 86.3998 164.792 86.6377 163.605 86.9016C162.883 87.1932 162.26 87.4137 161.736 87.563C161.205 87.681 160.814 87.7678 160.565 87.8234C160.165 87.9449 159.903 88.0196 159.778 88.0473C159.653 88.0751 159.473 88.148 159.237 88.2661C159.001 88.3841 158.838 88.5351 158.748 88.7191C158.682 88.8648 158.614 89.0766 158.545 89.3543C158.447 89.507 158.333 89.8766 158.201 90.4632C158.069 91.0498 157.885 91.6972 157.649 92.4053C157.504 93.8144 157.41 95.1629 157.369 96.4506C157.351 97.7001 157.365 98.9427 157.411 100.178C157.449 100.793 157.562 101.227 157.749 101.48C157.961 101.695 158.402 101.761 159.072 101.678C159.422 101.632 159.922 101.521 160.571 101.344C161.213 101.136 161.739 100.921 162.149 100.698C162.457 100.466 162.782 100.23 163.122 99.9903C163.455 99.7196 163.757 99.4558 164.028 99.1989C164.274 98.9802 164.521 98.7615 164.767 98.5428C165.007 98.2929 165.126 98.1679 165.126 98.1679C165.227 97.8833 165.456 97.8815 165.814 98.1626C166.195 98.4056 166.49 98.7006 166.699 99.0476C166.782 99.4225 166.805 99.8928 166.766 100.459C166.721 100.993 166.262 101.653 165.387 102.437C164.176 103.624 162.888 104.468 161.524 104.968C160.16 105.468 159.055 105.73 158.208 105.754ZM182.657 98.45C182.535 98.3459 182.298 98.2349 181.944 98.1169C181.59 97.9989 181.399 97.8774 181.371 97.7525C181.357 97.69 181.324 97.6154 181.272 97.5286C181.251 97.4349 181.178 97.402 181.053 97.4297C180.939 97.3569 180.909 97.0028 180.965 96.3677C181.051 95.7255 181.176 94.9602 181.339 94.0716C181.534 93.1761 181.75 92.3084 181.99 91.4684C182.222 90.5972 182.427 89.896 182.604 89.365C182.739 89.2365 182.805 89.0908 182.802 88.9276C182.823 88.7263 182.802 88.6326 182.739 88.6465C182.739 88.6465 182.786 88.4886 182.88 88.1727C182.998 87.8187 183.093 87.5844 183.166 87.4698C183.319 86.9769 183.409 86.4979 183.437 86.0328C183.457 85.5365 183.402 85.1391 183.27 84.8406C183.11 84.7122 182.959 84.6966 182.817 84.7938C182.675 84.891 182.604 84.9396 182.604 84.9396C182.486 84.9986 182.312 85.1028 182.083 85.252C181.878 85.3631 181.696 85.502 181.536 85.6686C180.929 86.3281 180.454 86.6961 180.11 86.7725C179.798 86.8419 179.402 86.5365 178.923 85.8563C178.721 85.5404 178.602 85.2229 178.563 84.9035C178.525 84.5842 178.595 84.3066 178.772 84.0705C178.973 83.7963 179.237 83.5082 179.563 83.2062C179.882 82.8729 180.094 82.6456 180.198 82.5241C180.493 82.229 180.925 81.8871 181.494 81.4983C182.063 81.1095 182.407 80.8856 182.525 80.8266C183.282 80.3961 183.969 80.2433 184.587 80.3682C185.198 80.4619 185.717 80.8055 186.144 81.3989C186.699 81.8327 187.043 82.3464 187.175 82.9399C187.306 83.5334 187.251 84.3161 187.008 85.288L186.696 86.095C186.609 86.4421 186.613 86.6052 186.706 86.5844C186.831 86.5566 186.948 86.416 187.055 86.1626C187.121 86.0169 187.267 85.7878 187.492 85.4754C187.718 85.163 187.878 84.9963 187.971 84.9755C187.971 84.9755 187.999 84.9529 188.055 84.9078C188.141 84.8557 188.16 84.7204 188.112 84.5017C188.185 84.3872 188.258 84.2726 188.33 84.1581C188.435 84.0366 188.487 83.9758 188.487 83.9758C188.612 83.9481 188.754 83.8509 188.914 83.6842C189.097 83.4794 189.394 83.1184 189.804 82.6012C190.092 82.2749 190.376 82.0805 190.657 82.018C191.327 81.6397 191.957 81.7455 192.547 82.3354C193.169 82.9185 193.601 83.7567 193.844 84.85L193.423 87.599L194.651 85.1623C194.783 84.8707 194.922 84.6104 195.067 84.3813C195.244 84.1452 195.397 83.9474 195.526 83.7877C195.539 83.5552 195.605 83.4094 195.723 83.3504C195.841 83.2913 195.9 83.2618 195.9 83.2618C195.9 83.2618 195.932 83.2549 195.994 83.241C196.05 83.1959 196.067 83.1265 196.046 83.0327C196.175 82.8731 196.322 82.7255 196.489 82.5902C196.648 82.4235 196.745 82.2708 196.78 82.132C197.263 81.7953 197.896 81.6216 198.68 81.6112C199.458 81.5694 200.076 81.8418 200.534 82.4284C200.836 82.7546 201.112 83.0375 201.362 83.2769C201.612 83.5164 201.799 83.9173 201.924 84.4795C201.966 84.962 201.976 85.3039 201.956 85.5052C201.966 85.6995 201.98 85.9095 201.997 86.1351C202.008 86.3295 202.037 86.6835 202.086 87.1972C202.016 87.4749 201.997 87.7578 202.029 88.0459C202.091 88.327 202.15 88.5925 202.206 88.8424C202.296 89.2485 202.374 89.5261 202.44 89.6754C202.499 89.7934 202.638 89.8281 202.857 89.7795C203.273 89.5885 203.601 89.3681 203.841 89.1182C204.104 88.8301 204.385 88.4725 204.684 88.0456C205.055 87.5041 205.447 87.3513 205.86 87.5873C206.298 87.7851 206.605 88.061 206.782 88.415C206.872 88.5261 206.872 88.8211 206.782 89.3001C206.692 89.7791 206.567 90.2494 206.407 90.7111C206.248 91.1727 206.09 91.4209 205.934 91.4556C205.84 91.4764 205.68 91.6431 205.455 91.9555C205.229 92.2679 205.049 92.4883 204.913 92.6167C204.743 92.884 204.57 93.1357 204.393 93.3717C204.247 93.6008 204.049 93.7431 203.799 93.7987C203.674 93.8265 203.529 93.908 203.362 94.0434C203.22 94.1406 203.039 94.2135 202.821 94.2621C202.529 94.4253 202.035 94.4861 201.337 94.4445C200.67 94.396 200.167 94.0489 199.827 93.4034C199.626 93.0876 199.341 92.6919 198.973 92.2164C198.636 91.734 198.444 91.0884 198.395 90.2797C198.395 89.6897 198.358 89.1569 198.285 88.6814C198.212 88.2059 198.202 87.864 198.254 87.6557C198.233 87.562 198.185 87.3434 198.108 86.9998C198.025 86.6249 197.936 86.4479 197.843 86.4687C197.718 86.4965 197.518 86.7048 197.244 87.0936C196.97 87.4823 196.657 87.9943 196.307 88.6295C195.95 89.2335 195.587 89.8878 195.219 90.5924C194.882 91.2901 194.593 91.9774 194.35 92.6542C194.145 93.0603 193.989 93.5376 193.881 94.086C193.774 94.6344 193.68 94.9503 193.6 95.0336C193.437 95.3321 193.069 95.4467 192.497 95.3773C191.955 95.301 191.514 95.0876 191.174 94.7371C191.039 94.5705 190.905 94.4854 190.773 94.482C190.634 94.4473 190.504 94.3779 190.383 94.2738C190.286 94.1315 190.22 93.8347 190.185 93.3835C190.181 92.9254 190.228 92.1774 190.325 91.1396C190.433 90.0011 190.518 88.9824 190.58 88.0834C190.667 87.1463 190.71 86.6777 190.71 86.6777C190.682 86.5528 190.476 86.7298 190.09 87.2088C189.698 87.6566 189.249 88.2155 188.742 88.8854C188.537 89.2915 188.26 89.8122 187.909 90.4474C187.59 91.0756 187.214 91.815 186.78 92.6654C186.377 93.5088 185.924 94.4946 185.421 95.6227C184.8 97.1048 184.286 98.0386 183.88 98.4239C183.506 98.8022 183.098 98.8109 182.657 98.45ZM215.524 104.665C215.406 104.724 215.208 104.719 214.93 104.65C214.684 104.573 214.448 104.396 214.222 104.119C213.997 103.841 213.859 103.445 213.811 102.932C213.589 102.522 213.483 101.972 213.493 101.281C213.542 100.615 213.724 99.5909 214.039 98.2095C214.241 97.6402 214.39 96.9842 214.487 96.2414C214.615 95.4917 214.775 94.735 214.966 93.9714C215.059 93.6556 215.217 93.1123 215.439 92.3418C215.693 91.5643 215.949 90.6549 216.21 89.6136C216.494 88.5341 216.725 87.4338 216.902 86.3127C216.277 87.3367 215.751 88.2895 215.324 89.1711C214.922 90.0146 214.535 90.7071 214.164 91.2486C213.817 91.7519 213.39 92.0435 212.883 92.1234C212.456 92.1199 211.913 91.9621 211.253 91.6498C210.594 91.3374 210.127 90.9331 209.853 90.4368C209.575 89.7774 209.334 88.9131 209.129 87.8441C208.955 86.7682 208.8 85.1143 208.665 82.8825C208.679 81.7649 208.607 80.9284 208.451 80.3731C208.319 79.7796 208.144 79.3596 207.925 79.1132C207.707 78.8668 207.448 78.6621 207.149 78.499C206.66 78.2144 206.538 77.8153 206.785 77.3015C207.031 76.7878 207.349 76.373 207.737 76.0571C208.359 75.7551 208.867 75.6093 209.263 75.6197C209.683 75.5918 210.148 75.7671 210.658 76.1454C210.998 76.4959 211.346 76.8776 211.7 77.2906C212.054 77.7036 212.328 78.3475 212.522 79.2221C212.606 79.597 212.684 80.0221 212.757 80.4976C212.823 80.9419 212.882 81.3549 212.934 81.7367C212.986 82.1185 213.021 82.4222 213.038 82.6478C212.983 83.8731 212.924 84.9352 212.861 85.8341C212.799 86.7331 212.846 87.1652 213.002 87.1305C213.516 86.4918 213.939 85.8896 214.272 85.3238C214.637 84.751 215.012 84.0776 215.397 83.3036C215.782 82.5295 216.247 81.5247 216.792 80.289C216.955 79.6955 217.121 79.1175 217.291 78.5552C217.461 77.9929 217.581 77.4254 217.65 76.8527C217.748 76.405 217.904 75.9277 218.119 75.4209C218.327 74.8829 218.49 74.5844 218.608 74.5254C218.75 74.4282 218.973 74.3952 219.275 74.4264C219.577 74.4576 219.866 74.5079 220.144 74.5773C220.446 74.6085 220.604 74.6554 220.618 74.7178C220.656 74.7421 220.819 74.7386 221.107 74.7074C221.395 74.6761 221.683 74.6448 221.971 74.6136C222.253 74.5511 222.404 74.5667 222.424 74.6604C222.438 74.7229 222.397 74.978 222.3 75.4257C222.234 75.8665 222.147 76.3612 222.039 76.9096C221.932 77.458 221.829 77.9561 221.732 78.4038C221.66 78.8134 221.646 79.0459 221.691 79.1015C221.767 79.15 221.772 79.3947 221.706 79.8356C221.634 80.2451 221.54 80.7085 221.425 81.2257C221.342 81.7359 221.264 82.1958 221.191 82.6054C221.108 83.7057 220.978 84.8163 220.801 85.9375C220.617 87.0273 220.355 88.1346 220.015 89.2592C219.911 89.6757 219.759 90.3161 219.557 91.1804C219.387 92.0377 219.214 92.8794 219.037 93.7055C218.898 94.5559 218.78 95.2049 218.683 95.6527C218.614 95.9304 218.513 96.3625 218.381 96.9491C218.288 97.56 218.173 98.2247 218.038 98.9432C217.934 99.6547 217.819 100.319 217.694 100.937C217.577 101.586 217.49 102.081 217.434 102.421C217.504 103.028 217.46 103.497 217.304 103.827C217.086 104.17 216.726 104.398 216.227 104.509C215.758 104.613 215.524 104.665 215.524 104.665ZM240.284 87.7525C239.124 87.5513 238.243 87.272 237.639 86.9145C237.059 86.5189 236.775 86.1232 236.785 85.7275C236.806 85.5262 236.877 85.3301 236.998 85.1392C237.12 84.9483 237.45 84.8094 237.988 84.7226C238.55 84.5976 239.44 84.5472 240.658 84.5714C241.002 84.495 241.342 84.403 241.679 84.2953C242.015 84.1877 242.317 84.0714 242.585 83.9464C242.883 83.8145 243.116 83.6808 243.282 83.5455C243.425 83.4483 243.454 83.3597 243.371 83.2799C243.28 83.1689 243.143 83.0682 242.959 82.978C242.8 82.8496 242.638 82.7871 242.475 82.7906C242.305 82.7629 242.158 82.7629 242.033 82.7907C241.935 82.6484 241.76 82.5234 241.507 82.4159C241.285 82.3013 241.012 82.1816 240.689 82.0567C239.877 81.6472 239.141 81.2863 238.482 80.974C237.822 80.6617 237.531 80.3823 237.607 80.1359C237.579 80.0109 237.565 79.9484 237.565 79.9484C237.558 79.9172 237.555 79.9016 237.555 79.9016C237.336 79.9502 237.067 79.6986 236.748 79.1468C236.422 78.5637 236.203 78.0222 236.092 77.5224C235.953 76.8977 235.939 76.2452 236.05 75.5649C236.192 74.8776 236.404 74.2077 236.685 73.5552C236.997 72.8957 237.323 72.2986 237.663 71.7641C238.132 71.0699 238.635 70.3843 239.173 69.7074C239.735 68.9924 240.358 68.3294 241.042 67.7184C241.757 67.1005 242.571 66.559 243.484 66.0938C243.9 65.9029 244.389 65.7449 244.952 65.6199C245.514 65.4949 245.937 65.4827 246.222 65.5833C246.437 65.3716 246.76 65.349 247.19 65.5155C247.614 65.6509 248.058 65.8799 248.523 66.2026C248.988 66.5254 249.36 66.869 249.638 67.2334C249.721 67.6082 249.809 68.0803 249.903 68.6495C250.021 69.1805 250.094 69.656 250.122 70.076C250.15 70.496 250.054 70.7303 249.836 70.7789C249.836 70.7789 249.792 70.8049 249.706 70.857C249.643 70.8709 249.629 70.9559 249.664 71.1121C249.733 71.4245 249.579 71.8358 249.201 72.3461C248.697 72.8841 248.208 73.3371 247.733 73.705C247.257 74.073 246.855 74.1789 246.525 74.0228C246.31 73.9395 246.11 73.8527 245.926 73.7625C245.742 73.6723 245.567 73.5473 245.4 73.3877C245.4 73.3877 245.339 73.3356 245.218 73.2315C245.121 73.0892 245.058 72.9556 245.03 72.8307C245.003 72.7057 245.025 72.586 245.098 72.4714C245.164 72.3256 245.197 72.2527 245.197 72.2527C245.544 71.7494 245.789 71.3017 245.931 70.9094C246.105 70.5103 246.21 70.1753 246.248 69.9046C246.28 69.6026 246.278 69.3735 246.243 69.2173C246.202 69.0299 246.13 68.931 246.03 68.9206C245.953 68.872 245.79 68.8755 245.54 68.9311C245.384 68.9658 245.068 69.1671 244.593 69.5351C244.149 69.8961 243.687 70.3265 243.208 70.8264C242.722 71.295 242.354 71.7046 242.104 72.0552C242.028 72.3016 241.966 72.463 241.917 72.5394C241.9 72.6088 241.829 72.6574 241.704 72.6852C241.676 72.5603 241.601 72.5932 241.48 72.7841C241.358 72.9751 241.219 73.2354 241.063 73.5651C240.907 73.8949 240.755 74.2403 240.605 74.6012C240.456 74.9622 240.34 75.2503 240.257 75.4655C240.288 75.7536 240.269 76.0365 240.199 76.3142C240.154 76.5537 240.175 76.7949 240.262 77.0378C240.363 77.3433 240.585 77.6053 240.928 77.8239C241.272 78.0426 241.758 78.3115 242.386 78.6308C243.66 79.1999 244.615 79.6597 245.25 80.0102C245.916 80.3537 246.39 80.6417 246.671 80.8743C246.952 81.1068 247.156 81.3567 247.28 81.6239C248.027 82.4742 248.277 83.3037 248.03 84.1125C247.777 84.89 247.27 85.5599 246.51 86.1223C246.233 86.3479 245.717 86.61 244.964 86.9086C244.218 87.2384 243.404 87.4849 242.523 87.6481C241.679 87.8356 240.933 87.8704 240.284 87.7525ZM254.083 83.5537C253.777 83.3593 253.506 83.0261 253.27 82.5541C253.066 82.0752 252.927 81.5979 252.854 81.1224C252.774 80.6157 252.769 80.2235 252.838 79.9458C252.782 79.6959 252.772 79.5015 252.807 79.3627C252.866 79.1857 252.866 79.0382 252.807 78.9202C252.748 78.8021 252.73 78.5765 252.755 78.2433C252.779 77.9101 252.807 77.5925 252.838 77.2906C252.945 76.7422 253.053 76.0462 253.16 75.2028C253.261 74.3281 253.361 73.4534 253.462 72.5788C253.556 71.6729 253.63 70.9023 253.686 70.2671C253.734 69.6007 253.76 69.2016 253.764 69.0697C253.68 68.6948 253.885 68.4362 254.378 68.2939C254.725 68.0856 255.213 68.1411 255.841 68.4603C256.469 68.7796 256.995 69.1544 257.419 69.5847C257.724 69.7791 257.891 70.0862 257.918 70.5062C257.946 70.9262 257.872 71.5492 257.695 72.3753C257.625 72.653 257.563 73.1094 257.507 73.7446C257.476 74.3416 257.471 74.8345 257.492 75.2232C257.423 75.5009 257.346 75.8948 257.263 76.4051C257.204 76.8771 257.157 77.3301 257.123 77.7639C257.095 77.934 257.098 78.2446 257.133 78.6959C257.161 79.1158 257.177 79.5549 257.18 80.013C257.184 80.4712 257.135 80.8426 257.034 81.1272C257.038 82.4705 256.705 83.3313 256.035 83.7097C255.396 84.0811 254.746 84.0291 254.083 83.5537ZM254.966 63.6394C254.567 63.4659 254.235 63.2281 253.971 62.9262C253.732 62.5861 253.565 62.2789 253.471 62.0047C253.409 61.7236 253.402 61.5448 253.451 61.4685C253.687 61.0554 253.851 60.5434 253.945 59.9325C254.07 59.3147 254.221 58.7403 254.398 58.2092C254.439 58.1016 254.49 57.9593 254.549 57.7823C254.632 57.5671 254.733 57.43 254.851 57.3709C255.17 57.0377 255.689 56.9387 256.407 57.074C257.157 57.2024 257.744 57.4817 258.167 57.9121C258.58 58.4431 258.794 59.0348 258.808 59.6874C258.853 60.333 258.671 61.0619 258.261 61.8741C257.932 62.603 257.428 63.141 256.752 63.4882C256.068 63.8041 255.473 63.8545 254.966 63.6394ZM276.754 79.3C276.292 79.4355 275.858 79.5483 275.452 79.6386C275.077 79.7219 274.767 79.7254 274.52 79.6491C273.854 79.3055 273.396 79.014 273.146 78.7746C272.927 78.5281 272.779 78.2331 272.703 77.8895C272.637 77.4453 272.555 77.0045 272.458 76.5671C272.354 76.0986 272.274 75.7394 272.219 75.4895C272.066 75.3923 271.847 75.5884 271.563 76.0778C271.278 76.5673 270.928 77.055 270.511 77.5409C269.786 78.8495 269.104 79.8371 268.465 80.5035C267.82 81.1388 267.192 81.5571 266.581 81.7584C265.977 81.991 265.356 82.1456 264.717 82.222C264.141 82.2845 263.579 82.1145 263.03 81.7119C262.513 81.3024 262.065 80.7627 261.687 80.0929C261.34 79.4161 261.121 78.7272 261.031 78.026C260.902 76.7106 260.926 75.4923 261.103 74.3712C261.273 73.2188 261.636 71.9745 262.191 70.6381C262.455 70.055 262.833 69.3972 263.326 68.6648C263.85 67.9255 264.431 67.2226 265.069 66.5561C265.701 65.8584 266.289 65.3342 266.834 64.9836C267.65 64.3761 268.358 64.022 268.958 63.9213C269.59 63.8137 270.22 63.7719 270.848 63.7962C271.334 63.9176 271.702 63.9505 271.952 63.895C272.233 63.8325 272.401 63.6312 272.457 63.291C272.589 62.9994 272.66 62.6558 272.67 62.2601C272.681 61.8644 272.757 61.4705 272.899 61.0783L273.253 57.8034C273.409 56.8836 273.6 55.825 273.825 54.6275C274.051 53.4301 274.311 52.0937 274.606 50.6186C275.054 49.2406 275.52 48.4648 276.006 48.2912C276.523 48.1107 277.132 48.2703 277.834 48.77C278.292 49.0615 278.599 49.4849 278.755 50.0403C278.936 50.5574 278.934 51.2134 278.75 52.0083C278.608 52.4005 278.471 52.8899 278.339 53.4765C278.2 54.0318 278.036 54.6913 277.845 55.4549C277.682 56.3435 277.503 57.2355 277.309 58.131C277.146 59.0196 276.984 59.9897 276.825 61.0414C276.811 61.569 276.768 62.1851 276.695 62.8897C276.653 63.5873 276.629 64.2156 276.622 64.7744C276.64 65.295 276.634 65.7879 276.607 66.253C276.603 66.6799 276.539 66.9073 276.414 66.935C276.213 67.2093 276.083 67.7299 276.024 68.497C275.958 69.2328 275.934 70.0086 275.951 70.8242C276 71.6329 276.033 72.2976 276.05 72.8182C276.071 73.207 276.142 73.7484 276.264 74.4426C276.378 75.1055 276.505 75.7493 276.644 76.3741C276.776 76.9676 276.866 77.3737 276.915 77.5923C277.047 78.1859 277.094 78.618 277.056 78.8887C277.042 79.1213 276.941 79.2584 276.754 79.3ZM265.341 77.9527C266.06 77.793 266.665 77.3469 267.158 76.6145C267.675 75.8439 268.248 75.0282 268.876 74.1674C269.24 73.5946 269.61 72.9716 269.985 72.2982C270.353 71.5936 270.677 70.915 270.958 70.2624C271.271 69.6029 271.506 69.0424 271.666 68.5807C271.826 68.1191 271.892 67.8258 271.864 67.7008C271.829 67.5446 271.673 67.4318 271.395 67.3625C271.149 67.2861 270.862 67.2514 270.536 67.2584C270.203 67.2341 269.918 67.281 269.682 67.3991C268.981 67.7844 268.445 68.2478 268.074 68.7893C267.734 69.3239 267.246 70.1535 266.611 71.2781C265.997 72.4964 265.544 73.6297 265.253 74.678C264.961 75.7262 264.819 76.561 264.826 77.1822C264.857 77.7654 265.029 78.0222 265.341 77.9527ZM287.089 77.9366C285.371 78.3186 283.932 78.1139 282.773 77.3227C281.644 76.5245 280.851 75.0945 280.393 73.0329C280.143 71.9083 280.072 70.6293 280.179 69.1958C280.318 67.7554 280.588 66.3184 280.991 64.8849C281.424 63.4445 281.959 62.1619 282.594 61.0373C283.222 59.8814 283.916 59.0223 284.676 58.4599C284.954 58.2343 285.258 58.0521 285.587 57.9132C285.941 57.7361 286.29 57.6094 286.634 57.533C287.009 57.4497 287.422 57.3906 287.873 57.3559C288.348 57.2829 288.806 57.2794 289.247 57.3453C290.014 57.4043 290.733 57.6871 291.403 58.1938C292.104 58.6935 292.586 59.5369 292.85 60.7239C292.92 61.0363 292.965 61.3868 292.986 61.7756C293 62.1331 292.967 62.501 292.887 62.8793C292.71 64.0004 292.304 65.1233 291.669 66.2479C291.065 67.3656 290.352 68.2126 289.53 68.7888C289.307 68.9693 289.078 69.1186 288.842 69.2366C288.631 69.3165 288.4 69.3842 288.15 69.4398C287.494 69.5856 286.88 69.6238 286.307 69.5545C285.765 69.4782 285.241 69.3324 284.735 69.1173L284.287 68.8726L284.157 69.3933C284.07 70.0354 284.025 70.5699 284.021 70.9969C284.049 71.4168 284.084 71.7205 284.126 71.908C284.209 72.2828 284.311 72.6698 284.433 73.0689C284.548 73.4368 284.711 73.7284 284.922 73.9435C285.082 74.072 285.266 74.1622 285.474 74.2142C285.714 74.2593 285.99 74.2471 286.302 74.1777C286.49 74.136 286.661 74.0978 286.818 74.0631C286.998 73.9902 287.147 73.9242 287.265 73.8652C287.8 73.6153 288.208 73.3115 288.489 72.954C288.794 72.5583 289.126 72.206 289.483 71.897L289.65 71.7616L289.571 71.6315C290.04 71.2323 290.361 70.9806 290.535 70.8765C290.701 70.7411 290.824 70.6317 290.904 70.5484C291.001 70.3957 291.128 70.302 291.284 70.2672C291.708 70.1075 292.157 70.1387 292.633 70.3608C293.132 70.5447 293.431 70.8554 293.528 71.2927C293.57 71.4801 293.495 71.8081 293.304 72.2767C293.145 72.7383 292.907 73.2173 292.591 73.7137C292.3 74.1719 291.975 74.5555 291.618 74.8644C291.531 74.9165 291.448 74.9842 291.368 75.0675C291.281 75.1195 291.198 75.1872 291.118 75.2705L291.165 75.2601C290.967 75.6975 290.728 75.9474 290.447 76.0099L290.072 76.0933C289.995 76.3397 289.641 76.6643 289.01 77.0669C288.385 77.5009 287.745 77.7907 287.089 77.9366ZM287.015 66.1026C287.296 66.0401 287.535 65.9377 287.733 65.7954C287.962 65.6461 288.172 65.4847 288.363 65.3111C288.995 64.6134 289.326 63.8185 289.357 62.9265C289.388 62.0345 289.168 61.4115 288.696 61.0575C288.612 60.9777 288.52 60.9326 288.42 60.9222C288.312 60.8805 288.196 60.8736 288.071 60.9014C287.727 60.9778 287.361 61.1739 286.973 61.4898C286.615 61.7987 286.278 62.2014 285.963 62.6978C285.647 63.1941 285.38 63.7617 285.161 64.4003L284.771 65.5197C284.826 65.4746 284.87 65.4486 284.901 65.4416C284.956 65.3965 285 65.3704 285.031 65.3635C285.312 65.301 285.52 65.353 285.656 65.5196C285.791 65.6862 285.942 65.8493 286.109 66.009C286.307 66.1617 286.609 66.1929 287.015 66.1026ZM309.682 83.9771C309.443 83.932 309.047 83.7741 308.495 83.5035C307.975 83.2258 307.478 82.91 307.006 82.5561C306.572 82.2264 306.335 81.9678 306.293 81.7804C306.251 81.593 306.218 81.0758 306.194 80.2289C306.176 79.4132 306.164 78.3997 306.157 77.1884C306.188 76.0014 306.228 74.7796 306.276 73.5231C306.363 72.291 306.477 71.1837 306.62 70.2015C306.647 70.0314 306.736 69.4708 306.885 68.5198C307.059 67.5306 307.175 66.3574 307.234 65.0003C307.303 64.1326 307.426 63.1381 307.603 62.017C307.78 60.8959 307.972 59.7713 308.18 58.6433C308.382 57.484 308.533 56.467 308.633 55.5923C308.734 54.7176 308.865 53.836 309.029 52.9474C309.185 52.0276 309.264 51.5018 309.268 51.3699C309.289 51.1686 309.426 50.9742 309.679 50.7868C309.957 50.5611 310.241 50.3667 310.533 50.2036C310.817 50.0092 311.003 49.8859 311.09 49.8339C311.617 49.5527 312.154 49.6793 312.699 50.2138C312.917 50.4602 313.035 50.8437 313.053 51.3643C313.095 51.8468 313.053 52.3969 312.928 53.0147L312.808 54.0248L314.412 53.2749C314.693 53.2124 315.087 53.1412 315.594 53.0613C316.1 52.9815 316.592 52.905 317.067 52.8321C317.574 52.7522 317.928 52.7227 318.129 52.7435C318.886 52.6081 319.432 52.634 319.769 52.8214C320.137 53.0019 320.476 53.2708 320.784 53.6283C320.975 53.7498 321.211 53.9268 321.493 54.1593C321.767 54.3606 321.947 54.5827 322.034 54.8256C322.277 55.3289 322.369 55.9641 322.31 56.7311C322.283 57.4913 322.149 58.2913 321.91 59.1313C321.694 59.9331 321.391 60.7054 320.999 61.4482C320.631 62.1528 320.247 62.7134 319.848 63.13C319.564 63.3244 319.314 63.5274 319.099 63.7392C318.877 63.9197 318.765 64.0099 318.765 64.0099C318.769 64.1731 318.5 64.5115 317.959 65.0253C317.448 65.5321 316.825 66.0475 316.09 66.5717C315.378 67.0577 314.72 67.417 314.117 67.6496C313.905 67.7295 313.599 67.8302 313.2 67.9517C312.801 68.0732 312.478 68.0958 312.232 68.0195C311.874 68.0334 311.633 68.0542 311.508 68.082C311.383 68.1098 311.335 68.1862 311.362 68.3111C311.345 68.3805 311.238 68.9289 311.04 69.9563C310.842 70.9837 310.709 72.3738 310.639 74.1266C310.449 76.0704 310.294 77.6618 310.176 78.9009C310.066 80.1712 309.974 81.1587 309.901 81.8633C309.859 82.561 309.823 83.0608 309.792 83.3628C309.767 83.696 309.731 83.9008 309.682 83.9771ZM311.57 63.9378C311.706 64.1043 312.048 64.0939 312.596 63.9064C313.137 63.6877 313.736 63.3579 314.392 62.917C315.048 62.4762 315.615 62.0058 316.094 61.506C316.598 60.9679 316.847 60.4698 316.844 60.0117C317.358 59.0779 317.717 58.408 317.921 58.0019C318.119 57.5646 318.038 57.2713 317.677 57.1221C317.222 56.6987 316.67 56.5755 316.021 56.7526C315.403 56.9227 314.49 57.5354 313.283 58.5907C312.793 58.8962 312.472 59.1478 312.32 59.3457C312.16 59.5123 312.049 59.7501 311.986 60.059C311.955 60.361 311.868 60.8556 311.726 61.5428C311.598 62.2926 311.525 62.8496 311.508 63.2141C311.49 63.5785 311.511 63.8198 311.57 63.9378ZM327.483 66.7431C327.153 66.587 326.778 66.3753 326.358 66.1081C325.97 65.8339 325.753 65.374 325.707 64.7285C325.607 63.833 325.562 63.0399 325.572 62.3492C325.575 61.6272 325.589 60.8046 325.613 59.8814C325.592 59.4926 325.606 58.8175 325.655 57.8561C325.734 56.8877 325.844 55.8308 325.982 54.6854C326.121 53.54 326.289 52.4536 326.487 51.4262C326.678 50.3676 326.877 49.5692 327.086 49.0312C327.36 48.6425 327.825 48.3752 328.481 48.2293C329.168 48.0765 329.664 48.0973 329.97 48.2916C330.376 48.4964 330.596 48.9719 330.631 49.7181C330.659 50.4331 330.461 51.608 330.038 53.2429C329.965 53.6524 329.852 54.1037 329.7 54.5965C329.571 55.0512 329.492 55.4296 329.46 55.7315C329.422 56.0023 329.478 56.1047 329.627 56.0387C329.738 55.6534 329.995 55.1866 330.397 54.6381C330.793 54.0584 331.223 53.4874 331.688 52.9251C332.153 52.3628 332.598 51.8543 333.021 51.3995C333.444 50.9448 333.739 50.6497 333.906 50.5144C334.121 50.3026 334.375 50.1152 334.666 49.952C334.982 49.7507 335.195 49.6049 335.306 49.5146C335.949 49.0113 336.702 48.7127 337.566 48.6189C338.454 48.4869 339.045 48.6344 339.336 49.0613C339.423 49.3042 339.558 49.4708 339.742 49.561C339.957 49.6443 340.065 49.6859 340.065 49.6859C340.19 49.6582 340.263 49.6911 340.284 49.7848C340.336 49.8716 340.362 49.915 340.362 49.915C340.41 50.1337 340.261 50.4946 339.914 50.998C339.598 51.4943 339.194 51.8137 338.701 51.956C338.302 52.0776 337.96 52.2355 337.676 52.4299C337.391 52.6243 337.051 52.8638 336.655 53.1485C335.621 54.0996 334.679 54.9483 333.828 55.6947C333.009 56.434 332.222 57.4615 331.465 58.7771C331.302 59.0756 331.12 59.3619 330.919 59.6362C330.717 59.9104 330.537 60.2783 330.377 60.7399C330.256 60.9309 330.176 61.3092 330.138 61.8749C330.1 62.4407 330.074 62.9874 330.06 63.515C330.07 64.0043 330.086 64.2959 330.107 64.3896C330.107 64.3896 330.095 64.5562 330.07 64.8894C330.039 65.1914 329.946 65.5073 329.789 65.837C329.526 66.4201 329.22 66.8158 328.873 67.0241C328.557 67.2255 328.094 67.1318 327.483 66.7431ZM348.444 63.8531C348.045 63.9746 347.707 64.0007 347.429 63.9313C347.158 63.8931 346.811 63.8064 346.388 63.6711C345.582 63.2928 344.859 62.7653 344.217 62.0886C343.606 61.4049 343.257 60.794 343.17 60.256C343.17 59.961 343.114 59.7111 343.003 59.5063C342.923 59.2946 342.883 59.1888 342.883 59.1888C342.661 59.0743 342.578 58.9944 342.634 58.9493C342.682 58.8729 342.708 58.7688 342.712 58.6369C342.948 58.5189 342.941 58.3401 342.691 58.1007C342.541 57.8716 342.463 57.2989 342.456 56.3826C342.474 55.4281 342.567 54.5222 342.737 53.6649C342.817 53.2865 342.935 52.785 343.091 52.1602C343.278 51.5285 343.497 50.8898 343.747 50.2442C343.99 49.5674 344.229 49.0224 344.465 48.6093C344.979 47.6756 345.446 46.8998 345.865 46.282C346.317 45.6572 346.858 45.1434 347.49 44.7407C348.059 44.3519 348.659 44.1037 349.291 43.9961C349.954 43.8815 350.58 43.9716 351.17 44.2666C351.969 44.3186 352.717 44.5129 353.414 44.8495C354.105 45.1549 354.65 45.6893 355.049 46.4529C355.501 47.3032 355.818 48.3635 356.002 49.6339C356.211 50.866 356.031 52.5615 355.462 54.7205C355.139 56.0707 354.764 57.1866 354.337 58.0683C353.942 58.943 353.414 59.8142 352.755 60.682C352.272 61.3138 351.604 61.9212 350.751 62.5044C349.897 63.0876 349.128 63.5372 348.444 63.8531ZM350.948 55.8715C351.229 55.219 351.42 54.6029 351.52 54.0232C351.652 53.4366 351.723 52.6505 351.733 51.6647C351.751 51.3003 351.704 50.8682 351.593 50.3684C351.513 49.8616 351.397 49.4122 351.244 49.02C351.115 48.5896 350.954 48.3796 350.76 48.3901C350.319 48.3242 349.897 48.4179 349.494 48.6713C349.116 48.8866 348.715 49.3691 348.292 50.1188C347.917 50.7922 347.629 51.4135 347.428 51.9828C347.251 52.5138 347.114 53.1507 347.017 53.8935C346.944 54.5981 346.885 55.5127 346.84 56.6373C346.819 57.7237 346.988 58.5549 347.345 59.1311C347.734 59.7002 348.241 59.7679 348.866 59.334C349.49 58.9 350.184 57.7459 350.948 55.8715ZM356.363 72.8613C355.443 72.7052 354.631 72.2957 353.926 71.6328C353.19 70.9769 352.628 70.2168 352.239 69.3526C351.857 68.5197 351.69 67.77 351.739 67.1036C351.798 66.6315 351.966 66.2827 352.244 66.057C352.49 65.8383 352.723 65.7047 352.941 65.6561C353.066 65.6283 353.262 65.6994 353.53 65.8695C353.797 66.0395 354.056 66.2443 354.306 66.4837C354.562 66.7544 354.719 67.0147 354.774 67.2646C354.844 67.577 355.019 67.8495 355.3 68.082C355.557 68.3527 355.862 68.547 356.216 68.665C356.539 68.7899 356.864 68.8489 357.19 68.8419C357.759 68.7482 358.158 68.4791 358.387 68.0348C358.648 67.5836 358.884 66.8755 359.095 65.9106C359.363 65.1955 359.526 64.602 359.585 64.13C359.643 63.6579 359.659 63.2119 359.631 62.7919C359.642 62.3962 359.642 61.9537 359.631 61.4643C359.7 60.8916 359.73 60.213 359.719 59.4286C359.702 58.613 359.678 57.7661 359.646 56.8879C359.615 56.0098 359.582 55.1976 359.547 54.4514C359.526 54.0627 359.523 53.6045 359.537 53.0769C359.575 52.5112 359.668 52.0478 359.818 51.6868C359.8 51.1662 359.795 50.4789 359.802 49.6251C359.84 48.7643 359.909 47.8966 360.01 47.0219C360.103 46.116 360.225 45.335 360.374 44.679C360.443 44.4014 360.504 44.1584 360.556 43.9501C360.601 43.7106 360.667 43.4173 360.754 43.0702C361.042 42.7439 361.424 42.5443 361.899 42.4714C362.406 42.3915 362.923 42.3585 363.451 42.3723C364.433 42.5145 365.157 42.747 365.622 43.0698C366.118 43.3856 366.424 43.7274 366.538 44.0953C366.684 44.4563 366.675 44.786 366.512 45.0845C366.415 45.2372 366.276 45.3501 366.096 45.423C365.94 45.4577 365.761 45.4647 365.56 45.4438C365.514 45.3883 365.426 45.3588 365.294 45.3554C365.155 45.3207 365.086 45.3033 365.086 45.3033C364.898 45.345 364.728 45.6123 364.576 46.1051C364.454 46.5911 364.341 47.1898 364.237 47.9014C364.126 48.5817 364.034 49.2741 363.962 49.9787C363.913 50.6451 363.875 51.2109 363.847 51.676C363.854 51.7072 363.846 52.037 363.821 52.6652C363.79 53.2622 363.747 53.8783 363.691 54.5135C363.667 55.1417 363.66 55.553 363.671 55.7474C363.685 56.3999 363.699 56.9049 363.712 57.2624C363.758 57.613 363.772 57.9705 363.754 58.3349C363.775 59.0187 363.758 59.6781 363.702 60.3133C363.685 60.9728 363.621 61.6427 363.51 62.323C363.489 63.1143 363.397 63.9543 363.234 64.8429C363.102 65.7245 362.877 66.6269 362.558 67.5502C362.2 68.7442 361.697 69.7248 361.048 70.492C360.43 71.2521 359.865 71.8041 359.351 72.1477C358.98 72.3942 358.513 72.5799 357.951 72.7049C357.364 72.8681 356.835 72.9203 356.363 72.8613ZM362.06 36.7809C361.578 36.5275 361.253 36.1735 361.086 35.7189C360.913 35.233 360.927 34.7054 361.128 34.1361C361.215 33.789 361.27 33.4489 361.294 33.1157C361.35 32.7755 361.358 32.4458 361.32 32.1265C361.955 31.5919 362.578 31.2239 363.189 31.0225C363.831 30.8142 364.378 30.8402 364.829 31.1005C365.378 31.503 365.702 32.1521 365.803 33.0475C365.935 33.9361 365.772 34.8246 365.314 35.7132C364.915 36.4248 364.387 36.8535 363.731 36.9994C363.068 37.114 362.511 37.0411 362.06 36.7809ZM379.545 55.5126C378.726 56.252 377.796 56.7866 376.754 57.1165C375.737 57.4081 374.738 57.4829 373.756 57.3406C372.766 57.1672 371.911 56.7837 371.189 56.1903C370.786 55.8537 370.347 55.2793 369.871 54.4671C369.389 53.6238 369.071 52.4159 368.918 50.8436C368.786 49.365 368.901 47.8153 369.261 46.1943C369.653 44.5664 370.24 43.0756 371.021 41.7219C371.802 40.3682 372.756 39.3529 373.884 38.6759C374.286 38.4225 374.7 38.216 375.123 38.0563C375.571 37.8584 376.176 37.7073 376.94 37.6031C377.679 37.5371 378.361 37.5822 378.986 37.7383C379.604 37.8632 380.072 38.054 380.392 38.3108C381.003 38.6995 381.438 39.1108 381.699 39.5446C381.959 39.9785 382.122 40.4175 382.188 40.8618C382.254 41.8961 382.041 43.0745 381.548 44.3969C381.087 45.7124 380.262 46.7972 379.075 47.6511C378.593 47.9879 378 48.2673 377.295 48.4895C376.59 48.7117 375.586 48.8368 374.281 48.8647C373.496 48.8752 373.014 49.0644 372.833 49.4323C372.684 49.7933 372.726 50.4233 372.958 51.3222C373.146 51.8706 373.382 52.3426 373.667 52.7383C373.976 53.0957 374.429 53.29 375.026 53.3212C375.772 53.2864 376.291 53.1875 376.582 53.0243C376.867 52.8299 377.219 52.5713 377.639 52.2485C377.854 52.0367 378.05 51.8128 378.227 51.5768C378.435 51.3338 378.628 51.0943 378.805 50.8583C379.013 50.6153 379.185 50.4296 379.32 50.3011C379.449 50.1415 379.588 50.0286 379.737 49.9627C379.886 49.8967 380.039 49.8464 380.195 49.8116C380.546 49.7665 380.915 49.881 381.304 50.1552C381.693 50.4293 381.969 50.7122 382.132 51.0037C382.187 51.2536 382.111 51.6476 381.903 52.1856C381.688 52.6923 381.37 53.2547 380.95 53.8725C380.555 54.4522 380.086 54.9989 379.545 55.5126ZM376.613 45.1992C376.81 45.0569 377.074 44.7688 377.404 44.3349C377.765 43.894 378.075 43.448 378.336 42.9967C378.589 42.5143 378.691 42.1637 378.643 41.945C378.566 41.6014 378.266 41.3568 377.742 41.211C377.249 41.0584 376.661 41.14 375.977 41.4559C375.741 41.5739 375.483 41.8117 375.201 42.1692C374.92 42.5268 374.65 42.9312 374.389 43.3824C374.122 43.8024 373.902 44.212 373.728 44.6112C373.548 44.9791 373.432 45.2672 373.38 45.4754C373.539 45.6039 373.817 45.6732 374.213 45.6836C374.608 45.694 375.025 45.6506 375.462 45.5533C375.931 45.4492 376.314 45.3311 376.613 45.1992ZM393.2 53.0176C392.836 53.2953 392.384 53.4776 391.846 53.5644C391.308 53.6513 390.552 53.6392 389.577 53.5282C389.514 53.5421 389.264 53.4501 388.827 53.2523C388.389 53.0545 387.942 52.8099 387.483 52.5184C387.025 52.2269 386.706 51.9701 386.525 51.7479C385.866 51.1406 385.474 50.1133 385.348 48.6659C385.255 47.2116 385.379 45.4137 385.723 43.2721C385.837 42.7549 386.033 42.0885 386.311 41.2728C386.62 40.4502 386.927 39.6935 387.232 39.0028C387.562 38.2739 387.81 37.8417 387.977 37.7063C387.977 37.7063 388.135 37.6057 388.45 37.4043C388.766 37.203 389.158 36.9027 389.627 36.5035C389.769 36.4063 390.017 36.2692 390.371 36.0921C390.757 35.9081 391.145 35.7398 391.538 35.587C391.954 35.3961 392.244 35.2988 392.407 35.2954C393.039 35.1877 393.731 35.2796 394.484 35.5711C395.262 35.8244 395.932 36.1836 396.494 36.6486C397.049 37.0824 397.294 37.5197 397.228 37.9605C397.242 38.023 397.194 38.2469 397.083 38.6321C396.996 38.9792 396.897 39.3454 396.786 39.7307C396.668 40.0848 396.564 40.3538 396.474 40.5377C396.359 40.7599 396.095 40.9005 395.682 40.9595C395.3 41.0116 394.929 40.9631 394.568 40.8139C394.207 40.6646 393.969 40.4061 393.855 40.0382C393.737 39.8022 393.45 39.62 392.996 39.4916C392.572 39.3563 392.36 39.2886 392.36 39.2886C392.111 39.3442 391.838 39.667 391.543 40.2571C391.248 40.8472 390.952 41.5032 390.653 42.2252C390.216 42.9124 389.945 43.6118 389.841 44.3234C389.761 44.9967 389.737 45.625 389.768 46.2081C389.824 46.753 389.836 47.1765 389.805 47.4784C389.749 47.8186 389.836 48.209 390.065 48.6498C390.295 49.0906 390.51 49.3214 390.711 49.3422C390.999 49.3109 391.371 49.212 391.825 49.0453C392.304 48.8405 392.795 48.6166 393.299 48.3736C393.826 48.0924 394.354 47.8112 394.881 47.53C395.402 47.2176 395.86 46.919 396.256 46.6344C396.766 46.1276 397.25 45.8724 397.708 45.8689C398.159 45.8341 398.501 45.8237 398.734 45.8375C399.105 45.8861 399.336 46.1134 399.426 46.5195C399.516 46.9256 399.473 47.3942 399.296 47.9252C399.112 48.4251 398.786 48.8746 398.318 49.2738C397.873 49.6348 397.483 50.0166 397.146 50.4193C396.834 50.7838 396.695 51.0441 396.73 51.2003C396.605 51.228 396.475 51.3062 396.339 51.4346C396.228 51.5248 396.122 51.5648 396.022 51.5544C395.959 51.5683 395.72 51.6707 395.303 51.8616C394.887 52.0526 394.458 52.2626 394.017 52.4917C393.608 52.7139 393.335 52.8892 393.2 53.0176ZM407.588 50.3106C407.23 50.3245 406.81 50.2048 406.328 49.9515C405.838 49.6669 405.373 49.3442 404.932 48.9833C404.516 48.5842 404.226 48.2388 404.063 47.9473C404.049 47.8848 403.985 47.8171 403.87 47.7443C403.787 47.6644 403.745 47.6245 403.745 47.6245C403.599 47.5586 403.431 47.1699 403.24 46.4584C403.073 45.7087 402.936 44.8705 402.828 43.9437C402.721 43.017 402.67 42.2743 402.677 41.7155C402.722 41.1809 402.807 40.4572 402.932 39.5444C403.05 38.6003 403.142 37.7603 403.208 37.0245L403.869 34.0256L401.88 33.9269C401.647 33.913 401.432 33.8297 401.234 33.677C401.068 33.5174 400.97 33.3751 400.943 33.2501C400.887 33.0002 400.948 32.6098 401.125 32.0787C401.302 31.5476 401.453 31.2682 401.578 31.2404C401.741 31.2369 402.025 31.1901 402.431 31.0998C402.869 31.0025 403.287 30.8932 403.686 30.7716C404.085 30.6501 404.328 30.5633 404.415 30.5113C404.526 30.421 404.634 30.3151 404.738 30.1936C404.835 30.0409 404.89 29.8483 404.904 29.6157C404.984 29.2374 405.066 28.9406 405.149 28.7254C405.232 28.5102 405.341 28.1909 405.477 27.7674C405.605 27.3127 405.701 26.9309 405.763 26.622C405.857 26.3061 406.004 25.8636 406.205 25.2943C406.313 25.041 406.426 24.7372 406.544 24.3832C406.662 24.0292 406.837 23.7115 407.07 23.4304C407.295 23.118 407.71 22.8455 408.314 22.6129C408.942 22.3421 409.535 22.3576 410.094 22.6595C410.414 22.9164 410.62 23.1819 410.714 23.4561C410.808 23.7302 410.763 24.1173 410.579 24.6171C410.447 25.2037 410.258 25.7538 410.011 26.2675C409.789 26.7431 409.597 27.2776 409.434 27.8712C409.087 28.6695 409.08 29.0808 409.413 29.1051C409.746 29.1293 410.607 28.8724 411.995 28.3343C412.866 27.9767 413.543 27.9245 414.026 28.1779C414.508 28.4312 414.84 28.8164 415.02 29.3336C415.281 30.0624 415.303 30.5327 415.088 30.7445C414.873 30.9562 414.172 31.1941 412.985 31.458C412.263 31.7496 411.64 31.9701 411.116 32.1194C410.585 32.2374 410.194 32.3242 409.944 32.3798C409.545 32.5013 409.283 32.576 409.158 32.6037C409.033 32.6315 408.853 32.7044 408.617 32.8225C408.381 32.9405 408.218 33.0915 408.127 33.2755C408.061 33.4212 407.994 33.633 407.924 33.9106C407.827 34.0634 407.713 34.433 407.581 35.0196C407.449 35.6062 407.265 36.2536 407.029 36.9616C406.884 38.3708 406.79 39.7193 406.748 41.007C406.731 42.2565 406.745 43.4991 406.79 44.7347C406.829 45.3491 406.942 45.7829 407.129 46.0363C407.341 46.2514 407.782 46.3173 408.451 46.234C408.802 46.1888 409.302 46.0777 409.951 45.9006C410.593 45.6923 411.119 45.4771 411.528 45.2549C411.837 45.0223 412.162 44.7863 412.502 44.5467C412.835 44.276 413.137 44.0121 413.408 43.7553C413.654 43.5366 413.9 43.3179 414.147 43.0992C414.386 42.8493 414.506 42.7243 414.506 42.7243C414.607 42.4397 414.836 42.4379 415.193 42.719C415.575 42.962 415.87 43.257 416.078 43.604C416.162 43.9789 416.184 44.4492 416.146 45.0149C416.101 45.5495 415.641 46.209 414.767 46.9935C413.556 48.1806 412.268 49.0242 410.904 49.5241C409.54 50.0241 408.435 50.2862 407.588 50.3106ZM424.229 46.8566C423.23 47.0788 422.26 47.0651 421.319 46.8152C420.403 46.5273 419.622 46.1108 418.976 45.566C418.323 44.9899 417.928 44.3894 417.789 43.7647C417.726 43.4835 417.728 43.2701 417.794 43.1243C417.891 42.9716 418.049 42.8709 418.268 42.8223C418.431 42.8188 418.636 42.8552 418.882 42.9316C419.128 43.0079 419.378 43.0999 419.632 43.2074C420.208 43.4399 420.803 43.537 421.418 43.4988C422.032 43.4606 422.556 43.3113 422.99 43.0509C423.417 42.7593 423.62 42.4191 423.599 42.0304C423.571 41.9055 423.45 41.6538 423.234 41.2755C423.019 40.8972 422.776 40.5415 422.505 40.2083C421.467 39.2261 420.74 38.2405 420.324 37.2513C419.9 36.2309 419.539 35.1966 419.24 34.1484C419.143 33.7111 419.239 33.1818 419.527 32.5605C419.808 31.9079 420.186 31.2502 420.661 30.5872C421.192 29.8791 421.793 29.1883 422.463 28.5149C423.164 27.8345 423.866 27.2357 424.571 26.7185C425.275 26.2013 425.886 25.8524 426.403 25.6718C426.966 25.5468 427.566 25.4461 428.205 25.3697C428.868 25.2551 429.329 25.2672 429.59 25.406C430.103 25.6524 430.634 26.1244 431.183 26.822C431.731 27.5196 432.065 28.1339 432.183 28.6649C432.238 28.9148 432.167 29.2584 431.969 29.6958C431.796 30.0949 431.648 30.5375 431.527 31.0234C431.451 31.2699 431.393 31.5285 431.355 31.7992C431.317 32.0699 431.263 32.3441 431.194 32.6218C431.104 33.1008 430.802 33.3646 430.288 33.4133C429.799 33.4237 429.306 33.2711 428.809 32.9553C428.306 32.6082 427.992 32.1536 427.867 31.5913C427.763 31.1227 427.813 30.6854 428.018 30.2793C428.223 29.8732 428.311 29.6076 428.283 29.4827C428.269 29.4202 428.228 29.3803 428.158 29.3629C428.089 29.3456 427.976 29.3543 427.82 29.389C427.601 29.4376 427.263 29.6112 426.805 29.9097C426.371 30.1701 425.923 30.5155 425.462 30.9459C425 31.3764 424.599 31.8589 424.259 32.3934C424.023 32.8065 423.841 33.2404 423.713 33.6951C423.608 34.1116 423.605 34.5385 423.702 34.9758C423.799 35.4131 423.992 35.9112 424.28 36.47C424.593 36.9906 424.9 37.414 425.202 37.7402C425.278 37.7888 425.41 37.9398 425.598 38.1931C425.809 38.4083 426.051 38.6825 426.321 39.0157C428.005 41.1327 428.585 42.856 428.061 44.1854C427.568 45.5078 426.291 46.3982 424.229 46.8566Z" fill="#262626"/>
<path d="M260 106.219C271.468 108.134 278.661 110.299 285.253 120.057C286.853 122.425 289.739 126.061 289.898 129.074C289.989 130.786 291.309 132.272 288.864 131.179C286.852 130.279 283.818 129.088 282.246 127.497C281.678 126.922 288.737 131.066 290.832 132.417C293.511 134.144 293.018 119.854 293.032 117.447" stroke="#1C1C1C" stroke-width="2.2693" stroke-linecap="round"/>
</svg>
