<svg width="34" height="34" viewBox="0 0 34 34" fill="none" xmlns="http://www.w3.org/2000/svg">
<path d="M25.9999 17.79C25.8426 19.4922 25.2038 21.1144 24.1581 22.4668C23.1125 23.8192 21.7034 24.8458 20.0956 25.4265C18.4878 26.0073 16.7479 26.1181 15.0794 25.7461C13.4109 25.3741 11.8829 24.5345 10.6741 23.3258C9.46536 22.117 8.62584 20.589 8.25381 18.9205C7.88178 17.252 7.99262 15.5121 8.57336 13.9043C9.15411 12.2965 10.1807 10.8874 11.5331 9.84175C12.8855 8.79614 14.5077 8.15731 16.2099 8C15.2133 9.34827 14.7338 11.0094 14.8584 12.6814C14.9831 14.3534 15.7038 15.9251 16.8893 17.1106C18.0748 18.2961 19.6465 19.0168 21.3185 19.1415C22.9905 19.2662 24.6516 18.7866 25.9999 17.79Z" stroke="#262626" stroke-width="2" stroke-linecap="round" stroke-linejoin="round"/>
</svg>
